<?xml version="1.0" encoding="utf-8" standalone="no"?>
<!DOCTYPE svg PUBLIC "-//W3C//DTD SVG 1.1//EN"
  "http://www.w3.org/Graphics/SVG/1.1/DTD/svg11.dtd">
<svg xmlns:xlink="http://www.w3.org/1999/xlink" width="720pt" height="360pt" viewBox="0 0 720 360" xmlns="http://www.w3.org/2000/svg" version="1.1">
 <metadata>
  <rdf:RDF xmlns:dc="http://purl.org/dc/elements/1.1/" xmlns:cc="http://creativecommons.org/ns#" xmlns:rdf="http://www.w3.org/1999/02/22-rdf-syntax-ns#">
   <cc:Work>
    <dc:type rdf:resource="http://purl.org/dc/dcmitype/StillImage"/>
    <dc:date>2023-10-24T23:02:01.772013</dc:date>
    <dc:format>image/svg+xml</dc:format>
    <dc:creator>
     <cc:Agent>
      <dc:title>Matplotlib v3.5.2, https://matplotlib.org/</dc:title>
     </cc:Agent>
    </dc:creator>
   </cc:Work>
  </rdf:RDF>
 </metadata>
 <defs>
  <style type="text/css">*{stroke-linejoin: round; stroke-linecap: butt}</style>
 </defs>
 <g id="figure_1">
  <g id="patch_1">
   <path d="M 0 360 
L 720 360 
L 720 0 
L 0 0 
z
" style="fill: #ffffff"/>
  </g>
  <g id="axes_1">
   <g id="patch_2">
    <path d="M 90 320.4 
L 648 320.4 
L 648 43.2 
L 90 43.2 
z
" style="fill: #ffffff"/>
   </g>
   <g id="matplotlib.axis_1">
    <g id="xtick_1">
     <g id="line2d_1">
      <path d="M 90 320.4 
L 90 43.2 
" clip-path="url(#p3cceb8854f)" style="fill: none; stroke-dasharray: 2.96,1.28; stroke-dashoffset: 0; stroke: #b0b0b0; stroke-width: 0.8"/>
     </g>
     <g id="line2d_2">
      <defs>
       <path id="m75d525f63d" d="M 0 0 
L 0 3.5 
" style="stroke: #000000; stroke-width: 0.8"/>
      </defs>
      <g>
       <use xlink:href="#m75d525f63d" x="90" y="320.4" style="stroke: #000000; stroke-width: 0.8"/>
      </g>
     </g>
     <g id="text_1">
      <!-- 0 -->
      <g transform="translate(86.81875 334.998438)scale(0.1 -0.1)">
       <defs>
        <path id="DejaVuSans-30" d="M 2034 4250 
Q 1547 4250 1301 3770 
Q 1056 3291 1056 2328 
Q 1056 1369 1301 889 
Q 1547 409 2034 409 
Q 2525 409 2770 889 
Q 3016 1369 3016 2328 
Q 3016 3291 2770 3770 
Q 2525 4250 2034 4250 
z
M 2034 4750 
Q 2819 4750 3233 4129 
Q 3647 3509 3647 2328 
Q 3647 1150 3233 529 
Q 2819 -91 2034 -91 
Q 1250 -91 836 529 
Q 422 1150 422 2328 
Q 422 3509 836 4129 
Q 1250 4750 2034 4750 
z
" transform="scale(0.015625)"/>
       </defs>
       <use xlink:href="#DejaVuSans-30"/>
      </g>
     </g>
    </g>
    <g id="xtick_2">
     <g id="line2d_3">
      <path d="M 152 320.4 
L 152 43.2 
" clip-path="url(#p3cceb8854f)" style="fill: none; stroke-dasharray: 2.96,1.28; stroke-dashoffset: 0; stroke: #b0b0b0; stroke-width: 0.8"/>
     </g>
     <g id="line2d_4">
      <g>
       <use xlink:href="#m75d525f63d" x="152" y="320.4" style="stroke: #000000; stroke-width: 0.8"/>
      </g>
     </g>
     <g id="text_2">
      <!-- 20 -->
      <g transform="translate(145.6375 334.998438)scale(0.1 -0.1)">
       <defs>
        <path id="DejaVuSans-32" d="M 1228 531 
L 3431 531 
L 3431 0 
L 469 0 
L 469 531 
Q 828 903 1448 1529 
Q 2069 2156 2228 2338 
Q 2531 2678 2651 2914 
Q 2772 3150 2772 3378 
Q 2772 3750 2511 3984 
Q 2250 4219 1831 4219 
Q 1534 4219 1204 4116 
Q 875 4013 500 3803 
L 500 4441 
Q 881 4594 1212 4672 
Q 1544 4750 1819 4750 
Q 2544 4750 2975 4387 
Q 3406 4025 3406 3419 
Q 3406 3131 3298 2873 
Q 3191 2616 2906 2266 
Q 2828 2175 2409 1742 
Q 1991 1309 1228 531 
z
" transform="scale(0.015625)"/>
       </defs>
       <use xlink:href="#DejaVuSans-32"/>
       <use xlink:href="#DejaVuSans-30" x="63.623047"/>
      </g>
     </g>
    </g>
    <g id="xtick_3">
     <g id="line2d_5">
      <path d="M 214 320.4 
L 214 43.2 
" clip-path="url(#p3cceb8854f)" style="fill: none; stroke-dasharray: 2.96,1.28; stroke-dashoffset: 0; stroke: #b0b0b0; stroke-width: 0.8"/>
     </g>
     <g id="line2d_6">
      <g>
       <use xlink:href="#m75d525f63d" x="214" y="320.4" style="stroke: #000000; stroke-width: 0.8"/>
      </g>
     </g>
     <g id="text_3">
      <!-- 40 -->
      <g transform="translate(207.6375 334.998438)scale(0.1 -0.1)">
       <defs>
        <path id="DejaVuSans-34" d="M 2419 4116 
L 825 1625 
L 2419 1625 
L 2419 4116 
z
M 2253 4666 
L 3047 4666 
L 3047 1625 
L 3713 1625 
L 3713 1100 
L 3047 1100 
L 3047 0 
L 2419 0 
L 2419 1100 
L 313 1100 
L 313 1709 
L 2253 4666 
z
" transform="scale(0.015625)"/>
       </defs>
       <use xlink:href="#DejaVuSans-34"/>
       <use xlink:href="#DejaVuSans-30" x="63.623047"/>
      </g>
     </g>
    </g>
    <g id="xtick_4">
     <g id="line2d_7">
      <path d="M 276 320.4 
L 276 43.2 
" clip-path="url(#p3cceb8854f)" style="fill: none; stroke-dasharray: 2.96,1.28; stroke-dashoffset: 0; stroke: #b0b0b0; stroke-width: 0.8"/>
     </g>
     <g id="line2d_8">
      <g>
       <use xlink:href="#m75d525f63d" x="276" y="320.4" style="stroke: #000000; stroke-width: 0.8"/>
      </g>
     </g>
     <g id="text_4">
      <!-- 60 -->
      <g transform="translate(269.6375 334.998438)scale(0.1 -0.1)">
       <defs>
        <path id="DejaVuSans-36" d="M 2113 2584 
Q 1688 2584 1439 2293 
Q 1191 2003 1191 1497 
Q 1191 994 1439 701 
Q 1688 409 2113 409 
Q 2538 409 2786 701 
Q 3034 994 3034 1497 
Q 3034 2003 2786 2293 
Q 2538 2584 2113 2584 
z
M 3366 4563 
L 3366 3988 
Q 3128 4100 2886 4159 
Q 2644 4219 2406 4219 
Q 1781 4219 1451 3797 
Q 1122 3375 1075 2522 
Q 1259 2794 1537 2939 
Q 1816 3084 2150 3084 
Q 2853 3084 3261 2657 
Q 3669 2231 3669 1497 
Q 3669 778 3244 343 
Q 2819 -91 2113 -91 
Q 1303 -91 875 529 
Q 447 1150 447 2328 
Q 447 3434 972 4092 
Q 1497 4750 2381 4750 
Q 2619 4750 2861 4703 
Q 3103 4656 3366 4563 
z
" transform="scale(0.015625)"/>
       </defs>
       <use xlink:href="#DejaVuSans-36"/>
       <use xlink:href="#DejaVuSans-30" x="63.623047"/>
      </g>
     </g>
    </g>
    <g id="xtick_5">
     <g id="line2d_9">
      <path d="M 338 320.4 
L 338 43.2 
" clip-path="url(#p3cceb8854f)" style="fill: none; stroke-dasharray: 2.96,1.28; stroke-dashoffset: 0; stroke: #b0b0b0; stroke-width: 0.8"/>
     </g>
     <g id="line2d_10">
      <g>
       <use xlink:href="#m75d525f63d" x="338" y="320.4" style="stroke: #000000; stroke-width: 0.8"/>
      </g>
     </g>
     <g id="text_5">
      <!-- 80 -->
      <g transform="translate(331.6375 334.998438)scale(0.1 -0.1)">
       <defs>
        <path id="DejaVuSans-38" d="M 2034 2216 
Q 1584 2216 1326 1975 
Q 1069 1734 1069 1313 
Q 1069 891 1326 650 
Q 1584 409 2034 409 
Q 2484 409 2743 651 
Q 3003 894 3003 1313 
Q 3003 1734 2745 1975 
Q 2488 2216 2034 2216 
z
M 1403 2484 
Q 997 2584 770 2862 
Q 544 3141 544 3541 
Q 544 4100 942 4425 
Q 1341 4750 2034 4750 
Q 2731 4750 3128 4425 
Q 3525 4100 3525 3541 
Q 3525 3141 3298 2862 
Q 3072 2584 2669 2484 
Q 3125 2378 3379 2068 
Q 3634 1759 3634 1313 
Q 3634 634 3220 271 
Q 2806 -91 2034 -91 
Q 1263 -91 848 271 
Q 434 634 434 1313 
Q 434 1759 690 2068 
Q 947 2378 1403 2484 
z
M 1172 3481 
Q 1172 3119 1398 2916 
Q 1625 2713 2034 2713 
Q 2441 2713 2670 2916 
Q 2900 3119 2900 3481 
Q 2900 3844 2670 4047 
Q 2441 4250 2034 4250 
Q 1625 4250 1398 4047 
Q 1172 3844 1172 3481 
z
" transform="scale(0.015625)"/>
       </defs>
       <use xlink:href="#DejaVuSans-38"/>
       <use xlink:href="#DejaVuSans-30" x="63.623047"/>
      </g>
     </g>
    </g>
    <g id="xtick_6">
     <g id="line2d_11">
      <path d="M 400 320.4 
L 400 43.2 
" clip-path="url(#p3cceb8854f)" style="fill: none; stroke-dasharray: 2.96,1.28; stroke-dashoffset: 0; stroke: #b0b0b0; stroke-width: 0.8"/>
     </g>
     <g id="line2d_12">
      <g>
       <use xlink:href="#m75d525f63d" x="400" y="320.4" style="stroke: #000000; stroke-width: 0.8"/>
      </g>
     </g>
     <g id="text_6">
      <!-- 100 -->
      <g transform="translate(390.45625 334.998438)scale(0.1 -0.1)">
       <defs>
        <path id="DejaVuSans-31" d="M 794 531 
L 1825 531 
L 1825 4091 
L 703 3866 
L 703 4441 
L 1819 4666 
L 2450 4666 
L 2450 531 
L 3481 531 
L 3481 0 
L 794 0 
L 794 531 
z
" transform="scale(0.015625)"/>
       </defs>
       <use xlink:href="#DejaVuSans-31"/>
       <use xlink:href="#DejaVuSans-30" x="63.623047"/>
       <use xlink:href="#DejaVuSans-30" x="127.246094"/>
      </g>
     </g>
    </g>
    <g id="xtick_7">
     <g id="line2d_13">
      <path d="M 462 320.4 
L 462 43.2 
" clip-path="url(#p3cceb8854f)" style="fill: none; stroke-dasharray: 2.96,1.28; stroke-dashoffset: 0; stroke: #b0b0b0; stroke-width: 0.8"/>
     </g>
     <g id="line2d_14">
      <g>
       <use xlink:href="#m75d525f63d" x="462" y="320.4" style="stroke: #000000; stroke-width: 0.8"/>
      </g>
     </g>
     <g id="text_7">
      <!-- 120 -->
      <g transform="translate(452.45625 334.998438)scale(0.1 -0.1)">
       <use xlink:href="#DejaVuSans-31"/>
       <use xlink:href="#DejaVuSans-32" x="63.623047"/>
       <use xlink:href="#DejaVuSans-30" x="127.246094"/>
      </g>
     </g>
    </g>
    <g id="xtick_8">
     <g id="line2d_15">
      <path d="M 524 320.4 
L 524 43.2 
" clip-path="url(#p3cceb8854f)" style="fill: none; stroke-dasharray: 2.96,1.28; stroke-dashoffset: 0; stroke: #b0b0b0; stroke-width: 0.8"/>
     </g>
     <g id="line2d_16">
      <g>
       <use xlink:href="#m75d525f63d" x="524" y="320.4" style="stroke: #000000; stroke-width: 0.8"/>
      </g>
     </g>
     <g id="text_8">
      <!-- 140 -->
      <g transform="translate(514.45625 334.998438)scale(0.1 -0.1)">
       <use xlink:href="#DejaVuSans-31"/>
       <use xlink:href="#DejaVuSans-34" x="63.623047"/>
       <use xlink:href="#DejaVuSans-30" x="127.246094"/>
      </g>
     </g>
    </g>
    <g id="xtick_9">
     <g id="line2d_17">
      <path d="M 586 320.4 
L 586 43.2 
" clip-path="url(#p3cceb8854f)" style="fill: none; stroke-dasharray: 2.96,1.28; stroke-dashoffset: 0; stroke: #b0b0b0; stroke-width: 0.8"/>
     </g>
     <g id="line2d_18">
      <g>
       <use xlink:href="#m75d525f63d" x="586" y="320.4" style="stroke: #000000; stroke-width: 0.8"/>
      </g>
     </g>
     <g id="text_9">
      <!-- 160 -->
      <g transform="translate(576.45625 334.998438)scale(0.1 -0.1)">
       <use xlink:href="#DejaVuSans-31"/>
       <use xlink:href="#DejaVuSans-36" x="63.623047"/>
       <use xlink:href="#DejaVuSans-30" x="127.246094"/>
      </g>
     </g>
    </g>
    <g id="xtick_10">
     <g id="line2d_19">
      <path d="M 648 320.4 
L 648 43.2 
" clip-path="url(#p3cceb8854f)" style="fill: none; stroke-dasharray: 2.96,1.28; stroke-dashoffset: 0; stroke: #b0b0b0; stroke-width: 0.8"/>
     </g>
     <g id="line2d_20">
      <g>
       <use xlink:href="#m75d525f63d" x="648" y="320.4" style="stroke: #000000; stroke-width: 0.8"/>
      </g>
     </g>
     <g id="text_10">
      <!-- 180 -->
      <g transform="translate(638.45625 334.998438)scale(0.1 -0.1)">
       <use xlink:href="#DejaVuSans-31"/>
       <use xlink:href="#DejaVuSans-38" x="63.623047"/>
       <use xlink:href="#DejaVuSans-30" x="127.246094"/>
      </g>
     </g>
    </g>
    <g id="text_11">
     <!-- Angle [deg] -->
     <g transform="translate(339.855469 348.676562)scale(0.1 -0.1)">
      <defs>
       <path id="DejaVuSans-41" d="M 2188 4044 
L 1331 1722 
L 3047 1722 
L 2188 4044 
z
M 1831 4666 
L 2547 4666 
L 4325 0 
L 3669 0 
L 3244 1197 
L 1141 1197 
L 716 0 
L 50 0 
L 1831 4666 
z
" transform="scale(0.015625)"/>
       <path id="DejaVuSans-6e" d="M 3513 2113 
L 3513 0 
L 2938 0 
L 2938 2094 
Q 2938 2591 2744 2837 
Q 2550 3084 2163 3084 
Q 1697 3084 1428 2787 
Q 1159 2491 1159 1978 
L 1159 0 
L 581 0 
L 581 3500 
L 1159 3500 
L 1159 2956 
Q 1366 3272 1645 3428 
Q 1925 3584 2291 3584 
Q 2894 3584 3203 3211 
Q 3513 2838 3513 2113 
z
" transform="scale(0.015625)"/>
       <path id="DejaVuSans-67" d="M 2906 1791 
Q 2906 2416 2648 2759 
Q 2391 3103 1925 3103 
Q 1463 3103 1205 2759 
Q 947 2416 947 1791 
Q 947 1169 1205 825 
Q 1463 481 1925 481 
Q 2391 481 2648 825 
Q 2906 1169 2906 1791 
z
M 3481 434 
Q 3481 -459 3084 -895 
Q 2688 -1331 1869 -1331 
Q 1566 -1331 1297 -1286 
Q 1028 -1241 775 -1147 
L 775 -588 
Q 1028 -725 1275 -790 
Q 1522 -856 1778 -856 
Q 2344 -856 2625 -561 
Q 2906 -266 2906 331 
L 2906 616 
Q 2728 306 2450 153 
Q 2172 0 1784 0 
Q 1141 0 747 490 
Q 353 981 353 1791 
Q 353 2603 747 3093 
Q 1141 3584 1784 3584 
Q 2172 3584 2450 3431 
Q 2728 3278 2906 2969 
L 2906 3500 
L 3481 3500 
L 3481 434 
z
" transform="scale(0.015625)"/>
       <path id="DejaVuSans-6c" d="M 603 4863 
L 1178 4863 
L 1178 0 
L 603 0 
L 603 4863 
z
" transform="scale(0.015625)"/>
       <path id="DejaVuSans-65" d="M 3597 1894 
L 3597 1613 
L 953 1613 
Q 991 1019 1311 708 
Q 1631 397 2203 397 
Q 2534 397 2845 478 
Q 3156 559 3463 722 
L 3463 178 
Q 3153 47 2828 -22 
Q 2503 -91 2169 -91 
Q 1331 -91 842 396 
Q 353 884 353 1716 
Q 353 2575 817 3079 
Q 1281 3584 2069 3584 
Q 2775 3584 3186 3129 
Q 3597 2675 3597 1894 
z
M 3022 2063 
Q 3016 2534 2758 2815 
Q 2500 3097 2075 3097 
Q 1594 3097 1305 2825 
Q 1016 2553 972 2059 
L 3022 2063 
z
" transform="scale(0.015625)"/>
       <path id="DejaVuSans-20" transform="scale(0.015625)"/>
       <path id="DejaVuSans-5b" d="M 550 4863 
L 1875 4863 
L 1875 4416 
L 1125 4416 
L 1125 -397 
L 1875 -397 
L 1875 -844 
L 550 -844 
L 550 4863 
z
" transform="scale(0.015625)"/>
       <path id="DejaVuSans-64" d="M 2906 2969 
L 2906 4863 
L 3481 4863 
L 3481 0 
L 2906 0 
L 2906 525 
Q 2725 213 2448 61 
Q 2172 -91 1784 -91 
Q 1150 -91 751 415 
Q 353 922 353 1747 
Q 353 2572 751 3078 
Q 1150 3584 1784 3584 
Q 2172 3584 2448 3432 
Q 2725 3281 2906 2969 
z
M 947 1747 
Q 947 1113 1208 752 
Q 1469 391 1925 391 
Q 2381 391 2643 752 
Q 2906 1113 2906 1747 
Q 2906 2381 2643 2742 
Q 2381 3103 1925 3103 
Q 1469 3103 1208 2742 
Q 947 2381 947 1747 
z
" transform="scale(0.015625)"/>
       <path id="DejaVuSans-5d" d="M 1947 4863 
L 1947 -844 
L 622 -844 
L 622 -397 
L 1369 -397 
L 1369 4416 
L 622 4416 
L 622 4863 
L 1947 4863 
z
" transform="scale(0.015625)"/>
      </defs>
      <use xlink:href="#DejaVuSans-41"/>
      <use xlink:href="#DejaVuSans-6e" x="68.408203"/>
      <use xlink:href="#DejaVuSans-67" x="131.787109"/>
      <use xlink:href="#DejaVuSans-6c" x="195.263672"/>
      <use xlink:href="#DejaVuSans-65" x="223.046875"/>
      <use xlink:href="#DejaVuSans-20" x="284.570312"/>
      <use xlink:href="#DejaVuSans-5b" x="316.357422"/>
      <use xlink:href="#DejaVuSans-64" x="355.371094"/>
      <use xlink:href="#DejaVuSans-65" x="418.847656"/>
      <use xlink:href="#DejaVuSans-67" x="480.371094"/>
      <use xlink:href="#DejaVuSans-5d" x="543.847656"/>
     </g>
    </g>
   </g>
   <g id="matplotlib.axis_2">
    <g id="ytick_1">
     <g id="line2d_21">
      <path d="M 90 273.696645 
L 648 273.696645 
" clip-path="url(#p3cceb8854f)" style="fill: none; stroke-dasharray: 2.96,1.28; stroke-dashoffset: 0; stroke: #b0b0b0; stroke-width: 0.8"/>
     </g>
     <g id="line2d_22">
      <defs>
       <path id="mf2636c4b74" d="M 0 0 
L -3.5 0 
" style="stroke: #000000; stroke-width: 0.8"/>
      </defs>
      <g>
       <use xlink:href="#mf2636c4b74" x="90" y="273.696645" style="stroke: #000000; stroke-width: 0.8"/>
      </g>
     </g>
     <g id="text_12">
      <!-- −80 -->
      <g transform="translate(61.895313 277.495864)scale(0.1 -0.1)">
       <defs>
        <path id="DejaVuSans-2212" d="M 678 2272 
L 4684 2272 
L 4684 1741 
L 678 1741 
L 678 2272 
z
" transform="scale(0.015625)"/>
       </defs>
       <use xlink:href="#DejaVuSans-2212"/>
       <use xlink:href="#DejaVuSans-38" x="83.789062"/>
       <use xlink:href="#DejaVuSans-30" x="147.412109"/>
      </g>
     </g>
    </g>
    <g id="ytick_2">
     <g id="line2d_23">
      <path d="M 90 219.222484 
L 648 219.222484 
" clip-path="url(#p3cceb8854f)" style="fill: none; stroke-dasharray: 2.96,1.28; stroke-dashoffset: 0; stroke: #b0b0b0; stroke-width: 0.8"/>
     </g>
     <g id="line2d_24">
      <g>
       <use xlink:href="#mf2636c4b74" x="90" y="219.222484" style="stroke: #000000; stroke-width: 0.8"/>
      </g>
     </g>
     <g id="text_13">
      <!-- −60 -->
      <g transform="translate(61.895313 223.021702)scale(0.1 -0.1)">
       <use xlink:href="#DejaVuSans-2212"/>
       <use xlink:href="#DejaVuSans-36" x="83.789062"/>
       <use xlink:href="#DejaVuSans-30" x="147.412109"/>
      </g>
     </g>
    </g>
    <g id="ytick_3">
     <g id="line2d_25">
      <path d="M 90 164.748322 
L 648 164.748322 
" clip-path="url(#p3cceb8854f)" style="fill: none; stroke-dasharray: 2.96,1.28; stroke-dashoffset: 0; stroke: #b0b0b0; stroke-width: 0.8"/>
     </g>
     <g id="line2d_26">
      <g>
       <use xlink:href="#mf2636c4b74" x="90" y="164.748322" style="stroke: #000000; stroke-width: 0.8"/>
      </g>
     </g>
     <g id="text_14">
      <!-- −40 -->
      <g transform="translate(61.895313 168.547541)scale(0.1 -0.1)">
       <use xlink:href="#DejaVuSans-2212"/>
       <use xlink:href="#DejaVuSans-34" x="83.789062"/>
       <use xlink:href="#DejaVuSans-30" x="147.412109"/>
      </g>
     </g>
    </g>
    <g id="ytick_4">
     <g id="line2d_27">
      <path d="M 90 110.274161 
L 648 110.274161 
" clip-path="url(#p3cceb8854f)" style="fill: none; stroke-dasharray: 2.96,1.28; stroke-dashoffset: 0; stroke: #b0b0b0; stroke-width: 0.8"/>
     </g>
     <g id="line2d_28">
      <g>
       <use xlink:href="#mf2636c4b74" x="90" y="110.274161" style="stroke: #000000; stroke-width: 0.8"/>
      </g>
     </g>
     <g id="text_15">
      <!-- −20 -->
      <g transform="translate(61.895313 114.07338)scale(0.1 -0.1)">
       <use xlink:href="#DejaVuSans-2212"/>
       <use xlink:href="#DejaVuSans-32" x="83.789062"/>
       <use xlink:href="#DejaVuSans-30" x="147.412109"/>
      </g>
     </g>
    </g>
    <g id="ytick_5">
     <g id="line2d_29">
      <path d="M 90 55.8 
L 648 55.8 
" clip-path="url(#p3cceb8854f)" style="fill: none; stroke-dasharray: 2.96,1.28; stroke-dashoffset: 0; stroke: #b0b0b0; stroke-width: 0.8"/>
     </g>
     <g id="line2d_30">
      <g>
       <use xlink:href="#mf2636c4b74" x="90" y="55.8" style="stroke: #000000; stroke-width: 0.8"/>
      </g>
     </g>
     <g id="text_16">
      <!-- 0 -->
      <g transform="translate(76.6375 59.599219)scale(0.1 -0.1)">
       <use xlink:href="#DejaVuSans-30"/>
      </g>
     </g>
    </g>
    <g id="text_17">
     <!-- Amplitude [dB] -->
     <g transform="translate(55.815625 219.517969)rotate(-90)scale(0.1 -0.1)">
      <defs>
       <path id="DejaVuSans-6d" d="M 3328 2828 
Q 3544 3216 3844 3400 
Q 4144 3584 4550 3584 
Q 5097 3584 5394 3201 
Q 5691 2819 5691 2113 
L 5691 0 
L 5113 0 
L 5113 2094 
Q 5113 2597 4934 2840 
Q 4756 3084 4391 3084 
Q 3944 3084 3684 2787 
Q 3425 2491 3425 1978 
L 3425 0 
L 2847 0 
L 2847 2094 
Q 2847 2600 2669 2842 
Q 2491 3084 2119 3084 
Q 1678 3084 1418 2786 
Q 1159 2488 1159 1978 
L 1159 0 
L 581 0 
L 581 3500 
L 1159 3500 
L 1159 2956 
Q 1356 3278 1631 3431 
Q 1906 3584 2284 3584 
Q 2666 3584 2933 3390 
Q 3200 3197 3328 2828 
z
" transform="scale(0.015625)"/>
       <path id="DejaVuSans-70" d="M 1159 525 
L 1159 -1331 
L 581 -1331 
L 581 3500 
L 1159 3500 
L 1159 2969 
Q 1341 3281 1617 3432 
Q 1894 3584 2278 3584 
Q 2916 3584 3314 3078 
Q 3713 2572 3713 1747 
Q 3713 922 3314 415 
Q 2916 -91 2278 -91 
Q 1894 -91 1617 61 
Q 1341 213 1159 525 
z
M 3116 1747 
Q 3116 2381 2855 2742 
Q 2594 3103 2138 3103 
Q 1681 3103 1420 2742 
Q 1159 2381 1159 1747 
Q 1159 1113 1420 752 
Q 1681 391 2138 391 
Q 2594 391 2855 752 
Q 3116 1113 3116 1747 
z
" transform="scale(0.015625)"/>
       <path id="DejaVuSans-69" d="M 603 3500 
L 1178 3500 
L 1178 0 
L 603 0 
L 603 3500 
z
M 603 4863 
L 1178 4863 
L 1178 4134 
L 603 4134 
L 603 4863 
z
" transform="scale(0.015625)"/>
       <path id="DejaVuSans-74" d="M 1172 4494 
L 1172 3500 
L 2356 3500 
L 2356 3053 
L 1172 3053 
L 1172 1153 
Q 1172 725 1289 603 
Q 1406 481 1766 481 
L 2356 481 
L 2356 0 
L 1766 0 
Q 1100 0 847 248 
Q 594 497 594 1153 
L 594 3053 
L 172 3053 
L 172 3500 
L 594 3500 
L 594 4494 
L 1172 4494 
z
" transform="scale(0.015625)"/>
       <path id="DejaVuSans-75" d="M 544 1381 
L 544 3500 
L 1119 3500 
L 1119 1403 
Q 1119 906 1312 657 
Q 1506 409 1894 409 
Q 2359 409 2629 706 
Q 2900 1003 2900 1516 
L 2900 3500 
L 3475 3500 
L 3475 0 
L 2900 0 
L 2900 538 
Q 2691 219 2414 64 
Q 2138 -91 1772 -91 
Q 1169 -91 856 284 
Q 544 659 544 1381 
z
M 1991 3584 
L 1991 3584 
z
" transform="scale(0.015625)"/>
       <path id="DejaVuSans-42" d="M 1259 2228 
L 1259 519 
L 2272 519 
Q 2781 519 3026 730 
Q 3272 941 3272 1375 
Q 3272 1813 3026 2020 
Q 2781 2228 2272 2228 
L 1259 2228 
z
M 1259 4147 
L 1259 2741 
L 2194 2741 
Q 2656 2741 2882 2914 
Q 3109 3088 3109 3444 
Q 3109 3797 2882 3972 
Q 2656 4147 2194 4147 
L 1259 4147 
z
M 628 4666 
L 2241 4666 
Q 2963 4666 3353 4366 
Q 3744 4066 3744 3513 
Q 3744 3084 3544 2831 
Q 3344 2578 2956 2516 
Q 3422 2416 3680 2098 
Q 3938 1781 3938 1306 
Q 3938 681 3513 340 
Q 3088 0 2303 0 
L 628 0 
L 628 4666 
z
" transform="scale(0.015625)"/>
      </defs>
      <use xlink:href="#DejaVuSans-41"/>
      <use xlink:href="#DejaVuSans-6d" x="68.408203"/>
      <use xlink:href="#DejaVuSans-70" x="165.820312"/>
      <use xlink:href="#DejaVuSans-6c" x="229.296875"/>
      <use xlink:href="#DejaVuSans-69" x="257.080078"/>
      <use xlink:href="#DejaVuSans-74" x="284.863281"/>
      <use xlink:href="#DejaVuSans-75" x="324.072266"/>
      <use xlink:href="#DejaVuSans-64" x="387.451172"/>
      <use xlink:href="#DejaVuSans-65" x="450.927734"/>
      <use xlink:href="#DejaVuSans-20" x="512.451172"/>
      <use xlink:href="#DejaVuSans-5b" x="544.238281"/>
      <use xlink:href="#DejaVuSans-64" x="583.251953"/>
      <use xlink:href="#DejaVuSans-42" x="646.728516"/>
      <use xlink:href="#DejaVuSans-5d" x="715.332031"/>
     </g>
    </g>
   </g>
   <g id="line2d_31">
    <path d="M 90 91.705094 
L 101.793103 91.596927 
L 116.689655 91.213996 
L 137.172414 90.681546 
L 145.862069 90.692731 
L 152.689655 90.917469 
L 158.275862 91.303872 
L 163.241379 91.848754 
L 167.586207 92.521588 
L 171.931034 93.421728 
L 175.655172 94.415516 
L 179.37931 95.661875 
L 182.482759 96.936353 
L 185.586207 98.474335 
L 188.068966 99.936003 
L 190.551724 101.649487 
L 193.034483 103.673316 
L 194.896552 105.442917 
L 196.758621 107.480042 
L 198.62069 109.84997 
L 200.482759 112.645736 
L 202.344828 116.006642 
L 203.586207 118.665757 
L 204.827586 121.772874 
L 206.068966 125.48139 
L 207.310345 130.040946 
L 208.551724 135.899917 
L 209.172414 139.572779 
L 209.793103 143.995717 
L 210.413793 149.532784 
L 211.034483 156.901599 
L 211.655172 167.862749 
L 212.275862 189.415631 
L 212.896552 205.431973 
L 213.517241 172.577166 
L 214.137931 159.188888 
L 214.758621 150.593685 
L 215.37931 144.228003 
L 216.62069 134.933115 
L 217.862069 128.126724 
L 219.103448 122.728089 
L 220.344828 118.237408 
L 221.586207 114.382102 
L 223.448276 109.445756 
L 225.310345 105.240848 
L 227.172414 101.568925 
L 229.034483 98.304006 
L 231.517241 94.440861 
L 234 91.016604 
L 236.482759 87.940305 
L 239.586207 84.489194 
L 242.689655 81.396336 
L 245.793103 78.600664 
L 249.517241 75.57675 
L 253.241379 72.862164 
L 256.965517 70.416755 
L 260.689655 68.210817 
L 265.034483 65.910365 
L 269.37931 63.879109 
L 273.724138 62.097609 
L 278.068966 60.551668 
L 282.413793 59.231092 
L 286.758621 58.128863 
L 291.103448 57.240569 
L 295.448276 56.56404 
L 299.793103 56.099111 
L 304.137931 55.847515 
L 308.482759 55.812864 
L 312.827586 56.000739 
L 317.172414 56.418884 
L 321.517241 57.077529 
L 325.862069 57.989881 
L 329.586207 58.986528 
L 333.310345 60.195298 
L 337.034483 61.632833 
L 340.758621 63.320035 
L 344.482759 65.283517 
L 347.586207 67.155382 
L 350.689655 69.268588 
L 353.793103 71.65627 
L 356.896552 74.362125 
L 359.37931 76.795022 
L 361.862069 79.509903 
L 364.344828 82.561846 
L 366.827586 86.027671 
L 368.689655 88.964009 
L 370.551724 92.262423 
L 372.413793 96.019675 
L 374.275862 100.381566 
L 375.517241 103.735615 
L 376.758621 107.566902 
L 378 112.0402 
L 379.241379 117.427223 
L 380.482759 124.225554 
L 381.103448 128.444987 
L 381.724138 133.509218 
L 382.344828 139.861462 
L 382.965517 148.425303 
L 383.586207 161.719154 
L 384.206897 193.843864 
L 384.827586 179.373256 
L 385.448276 157.526894 
L 386.068966 146.512153 
L 386.689655 139.134903 
L 387.310345 133.607102 
L 388.551724 125.555701 
L 389.793103 119.761853 
L 391.034483 115.282669 
L 392.275862 111.667958 
L 393.517241 108.66743 
L 394.758621 106.127517 
L 396 103.947224 
L 397.862069 101.203619 
L 399.724138 98.955696 
L 401.586207 97.098823 
L 403.448276 95.561221 
L 405.310345 94.291683 
L 407.172414 93.252583 
L 409.034483 92.415634 
L 411.517241 91.577538 
L 414 91.022763 
L 416.482759 90.724066 
L 418.965517 90.662218 
L 421.448276 90.824165 
L 423.931034 91.201906 
L 426.413793 91.791845 
L 428.896552 92.594516 
L 431.37931 93.614631 
L 433.862069 94.861454 
L 436.344828 96.349577 
L 438.827586 98.100226 
L 441.310345 100.143364 
L 443.793103 102.521083 
L 446.275862 105.293203 
L 448.137931 107.682116 
L 450 110.393169 
L 451.862069 113.499607 
L 453.724138 117.108499 
L 455.586207 121.384801 
L 456.827586 124.73414 
L 458.068966 128.625483 
L 459.310345 133.261407 
L 460.551724 138.990144 
L 461.793103 146.490408 
L 462.413793 151.334021 
L 463.034483 157.392893 
L 463.655172 165.499948 
L 464.275862 177.825906 
L 464.896552 204.709266 
L 465.517241 202.458575 
L 466.137931 177.315785 
L 466.758621 165.48129 
L 467.37931 157.68737 
L 468 151.88209 
L 469.241379 143.439085 
L 470.482759 137.34363 
L 471.724138 132.600668 
L 472.965517 128.740789 
L 474.206897 125.504838 
L 475.448276 122.734494 
L 477.310345 119.233937 
L 479.172414 116.32673 
L 481.034483 113.870787 
L 482.896552 111.771512 
L 484.758621 109.962734 
L 487.241379 107.921572 
L 489.724138 106.230186 
L 492.206897 104.829989 
L 494.689655 103.677905 
L 497.172414 102.741378 
L 500.275862 101.836044 
L 503.37931 101.190858 
L 506.482759 100.777291 
L 509.586207 100.573455 
L 512.689655 100.562419 
L 516.413793 100.785454 
L 520.137931 101.25052 
L 523.862069 101.945849 
L 527.586207 102.864053 
L 531.310345 104.001733 
L 535.034483 105.359389 
L 538.758621 106.941631 
L 542.482759 108.7577 
L 546.206897 110.822414 
L 549.931034 113.157697 
L 553.655172 115.795014 
L 556.758621 118.255374 
L 559.862069 120.992511 
L 562.965517 124.056396 
L 565.448276 126.789388 
L 567.931034 129.826935 
L 570.413793 133.240049 
L 572.275862 136.106783 
L 574.137931 139.3041 
L 576 142.920686 
L 577.862069 147.088959 
L 579.724138 152.019357 
L 580.965517 155.899055 
L 582.206897 160.452542 
L 583.448276 165.980781 
L 584.689655 173.048868 
L 585.310345 177.501213 
L 585.931034 182.928713 
L 586.551724 189.9007 
L 587.172414 199.701674 
L 587.793103 216.476433 
L 588.413793 307.8 
L 589.034483 215.752756 
L 589.655172 199.726517 
L 590.275862 190.346814 
L 590.896552 183.714258 
L 591.517241 178.593401 
L 592.758621 170.93198 
L 594 165.277034 
L 595.241379 160.818737 
L 596.482759 157.156812 
L 597.724138 154.063811 
L 599.586207 150.1946 
L 601.448276 146.999219 
L 603.310345 144.299491 
L 605.172414 141.980422 
L 607.034483 139.963471 
L 609.517241 137.649547 
L 612 135.680356 
L 614.482759 133.990001 
L 616.965517 132.530738 
L 620.068966 130.978228 
L 623.172414 129.68008 
L 626.275862 128.598458 
L 630 127.547113 
L 633.724138 126.73143 
L 637.448276 126.125899 
L 641.793103 125.661759 
L 646.137931 125.442136 
L 648 125.420549 
L 648 125.420549 
" clip-path="url(#p3cceb8854f)" style="fill: none; stroke: #1f77b4; stroke-width: 1.5; stroke-linecap: square"/>
   </g>
   <g id="line2d_32">
    <path d="M 90 91.738349 
L 90.62069 88.756695 
L 106.137931 88.756695 
L 106.758621 92.423143 
L 120.413793 92.423143 
L 121.034483 90.748301 
L 127.241379 90.748301 
L 127.862069 88.15437 
L 131.586207 88.15437 
L 132.206897 88.997739 
L 137.172414 88.997739 
L 137.793103 92.563036 
L 140.275862 92.563036 
L 140.896552 95.114369 
L 142.758621 95.114369 
L 143.37931 92.614715 
L 155.172414 92.614715 
L 155.793103 89.996119 
L 165.103448 89.996119 
L 165.724138 88.722909 
L 166.965517 88.722909 
L 167.586207 90.838348 
L 168.827586 90.838348 
L 169.448276 94.817342 
L 171.931034 94.817342 
L 172.551724 95.548977 
L 174.413793 95.548977 
L 175.034483 94.847626 
L 180.62069 94.867428 
L 181.241379 99.064729 
L 182.482759 99.064729 
L 183.103448 99.184713 
L 186.206897 99.184713 
L 186.827586 98.878995 
L 189.931034 98.878995 
L 190.551724 99.868718 
L 191.793103 99.868718 
L 192.413793 104.974838 
L 194.896552 104.974838 
L 195.517241 105.610657 
L 197.37931 105.610657 
L 198 108.756954 
L 199.241379 108.756954 
L 199.862069 107.499653 
L 201.103448 107.499653 
L 201.724138 110.453783 
L 202.965517 110.453783 
L 203.586207 118.696307 
L 204.206897 118.696307 
L 204.827586 135.229449 
L 210.413793 135.229449 
L 211.034483 120.526081 
L 216.62069 120.526081 
L 217.241379 133.918218 
L 217.862069 133.918218 
L 218.482759 123.84773 
L 219.103448 123.84773 
L 219.724138 112.321 
L 220.965517 112.321 
L 221.586207 106.754332 
L 222.206897 106.754332 
L 222.827586 105.741801 
L 224.689655 105.741801 
L 225.310345 101.493096 
L 227.172414 101.493096 
L 227.793103 96.452222 
L 228.413793 96.452222 
L 229.034483 94.414391 
L 230.896552 94.414391 
L 231.517241 91.465452 
L 234 91.465452 
L 234.62069 89.233512 
L 235.241379 86.430458 
L 237.103448 86.430458 
L 237.724138 84.388083 
L 238.965517 84.388083 
L 239.586207 82.324588 
L 240.206897 82.324588 
L 240.827586 81.585736 
L 242.068966 81.585736 
L 242.689655 79.634172 
L 243.310345 79.634172 
L 243.931034 77.430615 
L 244.551724 77.430615 
L 245.172414 75.675365 
L 249.517241 75.675365 
L 250.137931 73.800649 
L 254.482759 73.800649 
L 255.724138 70.572114 
L 256.344828 70.572114 
L 256.965517 69.593478 
L 258.206897 69.593478 
L 258.827586 69.333841 
L 259.448276 69.333841 
L 260.068966 67.886742 
L 260.689655 67.886742 
L 261.310345 67.100382 
L 263.172414 67.100382 
L 263.793103 66.353394 
L 264.413793 65.076998 
L 266.275862 65.076998 
L 266.896552 64.460216 
L 268.758621 64.460216 
L 269.37931 63.308895 
L 270 63.308895 
L 270.62069 62.762489 
L 271.862069 62.762489 
L 272.482759 62.255506 
L 273.103448 62.255506 
L 273.724138 61.254817 
L 276.206897 61.185395 
L 276.827586 60.782831 
L 277.448276 60.782831 
L 278.068966 60.1096 
L 278.689655 59.258757 
L 282.413793 59.258757 
L 283.034483 58.647236 
L 286.758621 58.647236 
L 287.37931 58.016606 
L 288 57.589846 
L 288.62069 57.589846 
L 289.241379 57.379577 
L 291.103448 57.391337 
L 291.724138 56.893388 
L 292.965517 56.893388 
L 293.586207 56.769947 
L 294.827586 56.769947 
L 295.448276 56.658836 
L 296.068966 56.283723 
L 299.793103 56.175814 
L 300.413793 55.920927 
L 304.137931 55.934903 
L 304.758621 55.8 
L 306.62069 55.875434 
L 308.482759 55.93613 
L 312.206897 55.920927 
L 312.827586 56.175814 
L 316.551724 56.175814 
L 317.793103 56.600709 
L 318.413793 56.600709 
L 319.034483 56.769947 
L 319.655172 56.769947 
L 320.275862 56.908563 
L 320.896552 56.908563 
L 321.517241 57.261304 
L 322.137931 57.261304 
L 322.758621 57.63548 
L 324 57.63548 
L 324.62069 57.904105 
L 325.241379 58.388607 
L 327.103448 58.388607 
L 327.724138 58.647236 
L 328.965517 58.647236 
L 329.586207 59.258757 
L 330.206897 59.611921 
L 331.448276 59.611921 
L 332.068966 60.19796 
L 332.689655 60.19796 
L 333.310345 60.956495 
L 333.931034 60.956495 
L 334.551724 61.185395 
L 335.172414 61.185395 
L 335.793103 61.662204 
L 336.413793 61.662204 
L 337.034483 62.37657 
L 337.655172 63.308895 
L 340.758621 63.308895 
L 341.37931 64.460216 
L 345.103448 64.460216 
L 346.344828 66.684283 
L 346.965517 67.453687 
L 348.206897 67.453687 
L 348.827586 67.818283 
L 349.448276 69.233721 
L 350.068966 69.233721 
L 350.689655 70.376871 
L 351.931034 70.376871 
L 352.551724 71.368746 
L 353.172414 71.368746 
L 353.793103 73.051699 
L 355.034483 73.051699 
L 355.655172 73.800649 
L 356.896552 73.800649 
L 357.517241 75.675365 
L 358.137931 77.038326 
L 359.37931 77.038326 
L 360 78.62478 
L 360.62069 78.62478 
L 361.241379 80.913518 
L 361.862069 80.913518 
L 362.482759 81.585736 
L 363.103448 81.585736 
L 363.724138 83.370895 
L 364.344828 83.370895 
L 365.586207 89.233512 
L 372.413793 89.233512 
L 373.034483 91.465452 
L 373.655172 95.196611 
L 374.275862 95.196611 
L 374.896552 100.108069 
L 375.517241 100.108069 
L 376.137931 102.863268 
L 376.758621 102.863268 
L 377.37931 105.107254 
L 378 105.107254 
L 378.62069 110.965407 
L 379.862069 110.965407 
L 380.482759 121.682614 
L 381.103448 118.171807 
L 382.344828 118.171807 
L 382.965517 133.918218 
L 384.206897 133.918218 
L 384.827586 120.526081 
L 385.448276 120.526081 
L 386.068966 121.117889 
L 387.310345 121.117889 
L 387.931034 121.325808 
L 388.551724 121.325808 
L 389.172414 112.037389 
L 389.793103 115.431076 
L 391.034483 115.431076 
L 391.655172 107.615648 
L 392.275862 101.505371 
L 392.896552 98.950247 
L 396.62069 98.950247 
L 397.241379 99.868718 
L 400.344828 99.868718 
L 400.965517 98.878995 
L 401.586207 94.476502 
L 402.206897 94.476502 
L 402.827586 90.903715 
L 403.448276 90.903715 
L 404.068966 90.623029 
L 404.689655 90.623029 
L 405.310345 90.877231 
L 407.793103 90.859973 
L 408.413793 87.441238 
L 409.034483 88.184363 
L 410.275862 88.184363 
L 410.896552 88.722909 
L 412.758621 88.722909 
L 413.37931 89.996119 
L 414 86.681821 
L 415.241379 86.681821 
L 415.862069 87.358693 
L 416.482759 87.358693 
L 417.103448 89.011895 
L 417.724138 89.011895 
L 418.344828 88.170551 
L 418.965517 88.170551 
L 419.586207 85.107871 
L 420.206897 85.107871 
L 420.827586 84.168453 
L 421.448276 86.047901 
L 425.172414 86.047901 
L 425.793103 88.756695 
L 428.896552 88.756695 
L 429.517241 91.738349 
L 430.137931 90.654219 
L 430.758621 90.654219 
L 431.37931 87.23872 
L 432 87.23872 
L 432.62069 86.417233 
L 433.241379 86.417233 
L 433.862069 89.405962 
L 434.482759 89.405962 
L 435.103448 92.11284 
L 436.344828 92.11284 
L 436.965517 88.668668 
L 437.586207 88.668668 
L 438.206897 92.150546 
L 439.448276 92.150546 
L 440.068966 94.256025 
L 441.931034 94.256025 
L 442.551724 98.914812 
L 443.172414 94.473316 
L 444.413793 94.473316 
L 445.034483 99.121285 
L 446.275862 99.121285 
L 446.896552 105.062366 
L 447.517241 102.085425 
L 448.758621 102.085425 
L 449.37931 97.809164 
L 450 97.809164 
L 450.62069 99.593643 
L 451.241379 105.639404 
L 454.965517 105.639404 
L 455.586207 112.712095 
L 459.310345 112.712095 
L 459.931034 123.809365 
L 460.551724 127.596095 
L 461.172414 127.596095 
L 461.793103 114.474305 
L 463.034483 114.474305 
L 463.655172 113.58944 
L 464.275862 113.58944 
L 464.896552 123.788001 
L 465.517241 123.788001 
L 466.137931 194.001132 
L 467.37931 194.001132 
L 468 133.321863 
L 468.62069 133.321863 
L 469.241379 195.468337 
L 471.103448 195.468337 
L 471.724138 136.021511 
L 473.586207 136.021511 
L 474.206897 129.515318 
L 474.827586 135.846835 
L 476.689655 135.846835 
L 477.310345 114.118003 
L 477.931034 114.118003 
L 478.551724 111.241974 
L 479.172414 111.241974 
L 479.793103 115.736945 
L 481.034483 115.736945 
L 481.655172 123.353485 
L 482.275862 123.353485 
L 482.896552 112.185434 
L 483.517241 110.203337 
L 487.862069 110.203337 
L 488.482759 107.446263 
L 492.827586 107.446263 
L 493.448276 107.715036 
L 494.068966 107.715036 
L 494.689655 101.297519 
L 495.310345 101.297519 
L 495.931034 102.578046 
L 497.172414 102.578046 
L 497.793103 108.259321 
L 498.413793 108.259321 
L 499.034483 109.382507 
L 500.275862 109.382507 
L 500.896552 97.47099 
L 502.758621 97.47099 
L 503.37931 98.731361 
L 504 100.358936 
L 506.482759 100.358936 
L 507.103448 97.658383 
L 508.965517 97.658383 
L 509.586207 99.814566 
L 510.206897 99.814566 
L 510.827586 100.47513 
L 512.689655 100.47513 
L 513.310345 92.263269 
L 515.172414 92.263269 
L 515.793103 94.57954 
L 516.413793 94.57954 
L 517.034483 97.74327 
L 518.275862 97.74327 
L 518.896552 98.149452 
L 519.517241 98.149452 
L 520.137931 93.914771 
L 520.758621 93.914771 
L 521.37931 96.901048 
L 526.965517 96.901048 
L 527.586207 100.04196 
L 533.172414 100.04196 
L 533.793103 105.334366 
L 534.413793 105.334366 
L 535.034483 99.958231 
L 536.275862 99.958231 
L 536.896552 99.294134 
L 538.137931 99.294134 
L 538.758621 104.3699 
L 540 104.3699 
L 540.62069 111.412822 
L 542.482759 111.412822 
L 543.103448 99.21276 
L 545.586207 99.21276 
L 546.206897 98.461667 
L 547.448276 98.461667 
L 548.068966 104.089712 
L 551.172414 104.089712 
L 551.793103 106.253536 
L 554.896552 106.253536 
L 555.517241 114.711349 
L 556.758621 114.711349 
L 557.37931 109.826032 
L 560.482759 109.826032 
L 561.103448 101.609903 
L 562.965517 101.609903 
L 563.586207 108.258262 
L 565.448276 108.258262 
L 566.068966 116.357623 
L 568.551724 116.357623 
L 569.172414 110.931758 
L 570.413793 110.931758 
L 571.034483 108.648303 
L 572.275862 108.648303 
L 572.896552 117.626139 
L 582.206897 117.626139 
L 582.827586 132.962131 
L 594.62069 132.962131 
L 595.241379 139.386358 
L 597.103448 139.386358 
L 597.724138 156.738175 
L 600.206897 156.738175 
L 600.827586 131.464992 
L 605.793103 131.464992 
L 606.413793 164.075284 
L 610.137931 164.075284 
L 610.758621 130.166696 
L 616.965517 130.166696 
L 617.586207 150.561078 
L 631.241379 150.561078 
L 631.862069 136.809764 
L 647.37931 136.809764 
L 648 133.32075 
L 648 133.32075 
" clip-path="url(#p3cceb8854f)" style="fill: none; stroke: #ff7f0e; stroke-width: 1.5; stroke-linecap: square"/>
   </g>
   <g id="line2d_33">
    <path d="M 90 97.9907 
L 105.942857 99.887803 
L 121.885714 99.5518 
L 137.828571 102.074776 
L 153.771429 98.33871 
L 169.714286 96.764417 
L 185.657143 93.005805 
L 201.6 91.683543 
L 217.542857 86.866039 
L 233.485714 79.756291 
L 249.428571 72.333659 
L 265.371429 65.25589 
L 281.314286 59.965736 
L 297.257143 56.510224 
L 313.2 55.8 
L 329.142857 56.896668 
L 345.085714 60.884899 
L 361.028571 68.66125 
L 376.971429 82.346261 
L 392.914286 106.49715 
L 408.857143 129.52142 
L 424.8 105.500719 
L 440.742857 111.328911 
L 456.685714 128.293252 
L 472.628571 122.476291 
L 488.571429 106.680086 
L 504.514286 101.770465 
L 520.457143 102.434704 
L 536.4 109.369033 
L 552.342857 128.372128 
L 568.285714 132.702484 
L 584.228571 141.195629 
L 600.171429 100.6377 
L 616.114286 106.227171 
L 632.057143 103.898605 
L 648 115.542259 
" clip-path="url(#p3cceb8854f)" style="fill: none; stroke: #2ca02c; stroke-width: 1.5; stroke-linecap: square"/>
   </g>
   <g id="patch_3">
    <path d="M 90 320.4 
L 90 43.2 
" style="fill: none; stroke: #000000; stroke-width: 0.8; stroke-linejoin: miter; stroke-linecap: square"/>
   </g>
   <g id="patch_4">
    <path d="M 648 320.4 
L 648 43.2 
" style="fill: none; stroke: #000000; stroke-width: 0.8; stroke-linejoin: miter; stroke-linecap: square"/>
   </g>
   <g id="patch_5">
    <path d="M 90 320.4 
L 648 320.4 
" style="fill: none; stroke: #000000; stroke-width: 0.8; stroke-linejoin: miter; stroke-linecap: square"/>
   </g>
   <g id="patch_6">
    <path d="M 90 43.2 
L 648 43.2 
" style="fill: none; stroke: #000000; stroke-width: 0.8; stroke-linejoin: miter; stroke-linecap: square"/>
   </g>
   <g id="legend_1">
    <g id="patch_7">
     <path d="M 540.353125 95.234375 
L 641 95.234375 
Q 643 95.234375 643 93.234375 
L 643 50.2 
Q 643 48.2 641 48.2 
L 540.353125 48.2 
Q 538.353125 48.2 538.353125 50.2 
L 538.353125 93.234375 
Q 538.353125 95.234375 540.353125 95.234375 
z
" style="fill: #ffffff; opacity: 0.8; stroke: #cccccc; stroke-linejoin: miter"/>
    </g>
    <g id="line2d_34">
     <path d="M 542.353125 56.298437 
L 552.353125 56.298437 
L 562.353125 56.298437 
" style="fill: none; stroke: #1f77b4; stroke-width: 1.5; stroke-linecap: square"/>
    </g>
    <g id="text_18">
     <!-- Theoretical -->
     <g transform="translate(570.353125 59.798437)scale(0.1 -0.1)">
      <defs>
       <path id="DejaVuSans-54" d="M -19 4666 
L 3928 4666 
L 3928 4134 
L 2272 4134 
L 2272 0 
L 1638 0 
L 1638 4134 
L -19 4134 
L -19 4666 
z
" transform="scale(0.015625)"/>
       <path id="DejaVuSans-68" d="M 3513 2113 
L 3513 0 
L 2938 0 
L 2938 2094 
Q 2938 2591 2744 2837 
Q 2550 3084 2163 3084 
Q 1697 3084 1428 2787 
Q 1159 2491 1159 1978 
L 1159 0 
L 581 0 
L 581 4863 
L 1159 4863 
L 1159 2956 
Q 1366 3272 1645 3428 
Q 1925 3584 2291 3584 
Q 2894 3584 3203 3211 
Q 3513 2838 3513 2113 
z
" transform="scale(0.015625)"/>
       <path id="DejaVuSans-6f" d="M 1959 3097 
Q 1497 3097 1228 2736 
Q 959 2375 959 1747 
Q 959 1119 1226 758 
Q 1494 397 1959 397 
Q 2419 397 2687 759 
Q 2956 1122 2956 1747 
Q 2956 2369 2687 2733 
Q 2419 3097 1959 3097 
z
M 1959 3584 
Q 2709 3584 3137 3096 
Q 3566 2609 3566 1747 
Q 3566 888 3137 398 
Q 2709 -91 1959 -91 
Q 1206 -91 779 398 
Q 353 888 353 1747 
Q 353 2609 779 3096 
Q 1206 3584 1959 3584 
z
" transform="scale(0.015625)"/>
       <path id="DejaVuSans-72" d="M 2631 2963 
Q 2534 3019 2420 3045 
Q 2306 3072 2169 3072 
Q 1681 3072 1420 2755 
Q 1159 2438 1159 1844 
L 1159 0 
L 581 0 
L 581 3500 
L 1159 3500 
L 1159 2956 
Q 1341 3275 1631 3429 
Q 1922 3584 2338 3584 
Q 2397 3584 2469 3576 
Q 2541 3569 2628 3553 
L 2631 2963 
z
" transform="scale(0.015625)"/>
       <path id="DejaVuSans-63" d="M 3122 3366 
L 3122 2828 
Q 2878 2963 2633 3030 
Q 2388 3097 2138 3097 
Q 1578 3097 1268 2742 
Q 959 2388 959 1747 
Q 959 1106 1268 751 
Q 1578 397 2138 397 
Q 2388 397 2633 464 
Q 2878 531 3122 666 
L 3122 134 
Q 2881 22 2623 -34 
Q 2366 -91 2075 -91 
Q 1284 -91 818 406 
Q 353 903 353 1747 
Q 353 2603 823 3093 
Q 1294 3584 2113 3584 
Q 2378 3584 2631 3529 
Q 2884 3475 3122 3366 
z
" transform="scale(0.015625)"/>
       <path id="DejaVuSans-61" d="M 2194 1759 
Q 1497 1759 1228 1600 
Q 959 1441 959 1056 
Q 959 750 1161 570 
Q 1363 391 1709 391 
Q 2188 391 2477 730 
Q 2766 1069 2766 1631 
L 2766 1759 
L 2194 1759 
z
M 3341 1997 
L 3341 0 
L 2766 0 
L 2766 531 
Q 2569 213 2275 61 
Q 1981 -91 1556 -91 
Q 1019 -91 701 211 
Q 384 513 384 1019 
Q 384 1609 779 1909 
Q 1175 2209 1959 2209 
L 2766 2209 
L 2766 2266 
Q 2766 2663 2505 2880 
Q 2244 3097 1772 3097 
Q 1472 3097 1187 3025 
Q 903 2953 641 2809 
L 641 3341 
Q 956 3463 1253 3523 
Q 1550 3584 1831 3584 
Q 2591 3584 2966 3190 
Q 3341 2797 3341 1997 
z
" transform="scale(0.015625)"/>
      </defs>
      <use xlink:href="#DejaVuSans-54"/>
      <use xlink:href="#DejaVuSans-68" x="61.083984"/>
      <use xlink:href="#DejaVuSans-65" x="124.462891"/>
      <use xlink:href="#DejaVuSans-6f" x="185.986328"/>
      <use xlink:href="#DejaVuSans-72" x="247.167969"/>
      <use xlink:href="#DejaVuSans-65" x="286.03125"/>
      <use xlink:href="#DejaVuSans-74" x="347.554688"/>
      <use xlink:href="#DejaVuSans-69" x="386.763672"/>
      <use xlink:href="#DejaVuSans-63" x="414.546875"/>
      <use xlink:href="#DejaVuSans-61" x="469.527344"/>
      <use xlink:href="#DejaVuSans-6c" x="530.806641"/>
     </g>
    </g>
    <g id="line2d_35">
     <path d="M 542.353125 70.976562 
L 552.353125 70.976562 
L 562.353125 70.976562 
" style="fill: none; stroke: #ff7f0e; stroke-width: 1.5; stroke-linecap: square"/>
    </g>
    <g id="text_19">
     <!-- Simulation -->
     <g transform="translate(570.353125 74.476562)scale(0.1 -0.1)">
      <defs>
       <path id="DejaVuSans-53" d="M 3425 4513 
L 3425 3897 
Q 3066 4069 2747 4153 
Q 2428 4238 2131 4238 
Q 1616 4238 1336 4038 
Q 1056 3838 1056 3469 
Q 1056 3159 1242 3001 
Q 1428 2844 1947 2747 
L 2328 2669 
Q 3034 2534 3370 2195 
Q 3706 1856 3706 1288 
Q 3706 609 3251 259 
Q 2797 -91 1919 -91 
Q 1588 -91 1214 -16 
Q 841 59 441 206 
L 441 856 
Q 825 641 1194 531 
Q 1563 422 1919 422 
Q 2459 422 2753 634 
Q 3047 847 3047 1241 
Q 3047 1584 2836 1778 
Q 2625 1972 2144 2069 
L 1759 2144 
Q 1053 2284 737 2584 
Q 422 2884 422 3419 
Q 422 4038 858 4394 
Q 1294 4750 2059 4750 
Q 2388 4750 2728 4690 
Q 3069 4631 3425 4513 
z
" transform="scale(0.015625)"/>
      </defs>
      <use xlink:href="#DejaVuSans-53"/>
      <use xlink:href="#DejaVuSans-69" x="63.476562"/>
      <use xlink:href="#DejaVuSans-6d" x="91.259766"/>
      <use xlink:href="#DejaVuSans-75" x="188.671875"/>
      <use xlink:href="#DejaVuSans-6c" x="252.050781"/>
      <use xlink:href="#DejaVuSans-61" x="279.833984"/>
      <use xlink:href="#DejaVuSans-74" x="341.113281"/>
      <use xlink:href="#DejaVuSans-69" x="380.322266"/>
      <use xlink:href="#DejaVuSans-6f" x="408.105469"/>
      <use xlink:href="#DejaVuSans-6e" x="469.287109"/>
     </g>
    </g>
    <g id="line2d_36">
     <path d="M 542.353125 85.654687 
L 552.353125 85.654687 
L 562.353125 85.654687 
" style="fill: none; stroke: #2ca02c; stroke-width: 1.5; stroke-linecap: square"/>
    </g>
    <g id="text_20">
     <!-- Measurement -->
     <g transform="translate(570.353125 89.154687)scale(0.1 -0.1)">
      <defs>
       <path id="DejaVuSans-4d" d="M 628 4666 
L 1569 4666 
L 2759 1491 
L 3956 4666 
L 4897 4666 
L 4897 0 
L 4281 0 
L 4281 4097 
L 3078 897 
L 2444 897 
L 1241 4097 
L 1241 0 
L 628 0 
L 628 4666 
z
" transform="scale(0.015625)"/>
       <path id="DejaVuSans-73" d="M 2834 3397 
L 2834 2853 
Q 2591 2978 2328 3040 
Q 2066 3103 1784 3103 
Q 1356 3103 1142 2972 
Q 928 2841 928 2578 
Q 928 2378 1081 2264 
Q 1234 2150 1697 2047 
L 1894 2003 
Q 2506 1872 2764 1633 
Q 3022 1394 3022 966 
Q 3022 478 2636 193 
Q 2250 -91 1575 -91 
Q 1294 -91 989 -36 
Q 684 19 347 128 
L 347 722 
Q 666 556 975 473 
Q 1284 391 1588 391 
Q 1994 391 2212 530 
Q 2431 669 2431 922 
Q 2431 1156 2273 1281 
Q 2116 1406 1581 1522 
L 1381 1569 
Q 847 1681 609 1914 
Q 372 2147 372 2553 
Q 372 3047 722 3315 
Q 1072 3584 1716 3584 
Q 2034 3584 2315 3537 
Q 2597 3491 2834 3397 
z
" transform="scale(0.015625)"/>
      </defs>
      <use xlink:href="#DejaVuSans-4d"/>
      <use xlink:href="#DejaVuSans-65" x="86.279297"/>
      <use xlink:href="#DejaVuSans-61" x="147.802734"/>
      <use xlink:href="#DejaVuSans-73" x="209.082031"/>
      <use xlink:href="#DejaVuSans-75" x="261.181641"/>
      <use xlink:href="#DejaVuSans-72" x="324.560547"/>
      <use xlink:href="#DejaVuSans-65" x="363.423828"/>
      <use xlink:href="#DejaVuSans-6d" x="424.947266"/>
      <use xlink:href="#DejaVuSans-65" x="522.359375"/>
      <use xlink:href="#DejaVuSans-6e" x="583.882812"/>
      <use xlink:href="#DejaVuSans-74" x="647.261719"/>
     </g>
    </g>
   </g>
  </g>
 </g>
 <defs>
  <clipPath id="p3cceb8854f">
   <rect x="90" y="43.2" width="558" height="277.2"/>
  </clipPath>
 </defs>
</svg>
