<?xml version="1.0" encoding="utf-8" standalone="no"?>
<!DOCTYPE svg PUBLIC "-//W3C//DTD SVG 1.1//EN"
  "http://www.w3.org/Graphics/SVG/1.1/DTD/svg11.dtd">
<svg xmlns:xlink="http://www.w3.org/1999/xlink" width="720pt" height="720pt" viewBox="0 0 720 720" xmlns="http://www.w3.org/2000/svg" version="1.1">
 <metadata>
  <rdf:RDF xmlns:dc="http://purl.org/dc/elements/1.1/" xmlns:cc="http://creativecommons.org/ns#" xmlns:rdf="http://www.w3.org/1999/02/22-rdf-syntax-ns#">
   <cc:Work>
    <dc:type rdf:resource="http://purl.org/dc/dcmitype/StillImage"/>
    <dc:date>2023-10-24T23:02:02.951002</dc:date>
    <dc:format>image/svg+xml</dc:format>
    <dc:creator>
     <cc:Agent>
      <dc:title>Matplotlib v3.5.2, https://matplotlib.org/</dc:title>
     </cc:Agent>
    </dc:creator>
   </cc:Work>
  </rdf:RDF>
 </metadata>
 <defs>
  <style type="text/css">*{stroke-linejoin: round; stroke-linecap: butt}</style>
 </defs>
 <g id="figure_1">
  <g id="patch_1">
   <path d="M 0 720 
L 720 720 
L 720 0 
L 0 0 
z
" style="fill: #ffffff"/>
  </g>
  <g id="axes_1">
   <g id="patch_2">
    <path d="M 646.2 502.2 
C 646.2 428.710185 616.975146 358.155147 565.01 306.19 
C 513.044853 254.224854 442.489815 225 369 225 
C 295.510185 225 224.955147 254.224854 172.99 306.19 
C 121.024854 358.155147 91.8 428.710185 91.8 502.2 
L 369 502.2 
C 369 502.2 369 502.2 369 502.2 
C 369 502.2 369 502.2 369 502.2 
C 369 502.2 369 502.2 369 502.2 
C 369 502.2 369 502.2 369 502.2 
L 646.2 502.2 
z
" style="fill: #ffffff"/>
   </g>
   <g id="matplotlib.axis_1">
    <g id="xtick_1">
     <g id="line2d_1">
      <path d="M 369 502.2 
L 646.2 502.2 
" clip-path="url(#p5cec37b139)" style="fill: none; stroke-dasharray: 2.96,1.28; stroke-dashoffset: 0; stroke: #b0b0b0; stroke-width: 0.8"/>
     </g>
     <g id="text_1">
      <!-- 0° -->
      <g transform="translate(654.51875 504.959375)scale(0.1 -0.1)">
       <defs>
        <path id="DejaVuSans-30" d="M 2034 4250 
Q 1547 4250 1301 3770 
Q 1056 3291 1056 2328 
Q 1056 1369 1301 889 
Q 1547 409 2034 409 
Q 2525 409 2770 889 
Q 3016 1369 3016 2328 
Q 3016 3291 2770 3770 
Q 2525 4250 2034 4250 
z
M 2034 4750 
Q 2819 4750 3233 4129 
Q 3647 3509 3647 2328 
Q 3647 1150 3233 529 
Q 2819 -91 2034 -91 
Q 1250 -91 836 529 
Q 422 1150 422 2328 
Q 422 3509 836 4129 
Q 1250 4750 2034 4750 
z
" transform="scale(0.015625)"/>
        <path id="DejaVuSans-b0" d="M 1600 4347 
Q 1350 4347 1178 4173 
Q 1006 4000 1006 3750 
Q 1006 3503 1178 3333 
Q 1350 3163 1600 3163 
Q 1850 3163 2022 3333 
Q 2194 3503 2194 3750 
Q 2194 3997 2020 4172 
Q 1847 4347 1600 4347 
z
M 1600 4750 
Q 1800 4750 1984 4673 
Q 2169 4597 2303 4453 
Q 2447 4313 2519 4134 
Q 2591 3956 2591 3750 
Q 2591 3338 2302 3052 
Q 2013 2766 1594 2766 
Q 1172 2766 890 3047 
Q 609 3328 609 3750 
Q 609 4169 896 4459 
Q 1184 4750 1600 4750 
z
" transform="scale(0.015625)"/>
       </defs>
       <use xlink:href="#DejaVuSans-30"/>
       <use xlink:href="#DejaVuSans-b0" x="63.623047"/>
      </g>
     </g>
    </g>
    <g id="xtick_2">
     <g id="line2d_2">
      <path d="M 369 502.2 
L 609.062242 363.6 
" clip-path="url(#p5cec37b139)" style="fill: none; stroke-dasharray: 2.96,1.28; stroke-dashoffset: 0; stroke: #b0b0b0; stroke-width: 0.8"/>
     </g>
     <g id="text_2">
      <!-- 30° -->
      <g transform="translate(612.324098 359.359375)scale(0.1 -0.1)">
       <defs>
        <path id="DejaVuSans-33" d="M 2597 2516 
Q 3050 2419 3304 2112 
Q 3559 1806 3559 1356 
Q 3559 666 3084 287 
Q 2609 -91 1734 -91 
Q 1441 -91 1130 -33 
Q 819 25 488 141 
L 488 750 
Q 750 597 1062 519 
Q 1375 441 1716 441 
Q 2309 441 2620 675 
Q 2931 909 2931 1356 
Q 2931 1769 2642 2001 
Q 2353 2234 1838 2234 
L 1294 2234 
L 1294 2753 
L 1863 2753 
Q 2328 2753 2575 2939 
Q 2822 3125 2822 3475 
Q 2822 3834 2567 4026 
Q 2313 4219 1838 4219 
Q 1578 4219 1281 4162 
Q 984 4106 628 3988 
L 628 4550 
Q 988 4650 1302 4700 
Q 1616 4750 1894 4750 
Q 2613 4750 3031 4423 
Q 3450 4097 3450 3541 
Q 3450 3153 3228 2886 
Q 3006 2619 2597 2516 
z
" transform="scale(0.015625)"/>
       </defs>
       <use xlink:href="#DejaVuSans-33"/>
       <use xlink:href="#DejaVuSans-30" x="63.623047"/>
       <use xlink:href="#DejaVuSans-b0" x="127.246094"/>
      </g>
     </g>
    </g>
    <g id="xtick_3">
     <g id="line2d_3">
      <path d="M 369 502.2 
L 507.6 262.137758 
" clip-path="url(#p5cec37b139)" style="fill: none; stroke-dasharray: 2.96,1.28; stroke-dashoffset: 0; stroke: #b0b0b0; stroke-width: 0.8"/>
     </g>
     <g id="text_3">
      <!-- 60° -->
      <g transform="translate(505.7375 252.772777)scale(0.1 -0.1)">
       <defs>
        <path id="DejaVuSans-36" d="M 2113 2584 
Q 1688 2584 1439 2293 
Q 1191 2003 1191 1497 
Q 1191 994 1439 701 
Q 1688 409 2113 409 
Q 2538 409 2786 701 
Q 3034 994 3034 1497 
Q 3034 2003 2786 2293 
Q 2538 2584 2113 2584 
z
M 3366 4563 
L 3366 3988 
Q 3128 4100 2886 4159 
Q 2644 4219 2406 4219 
Q 1781 4219 1451 3797 
Q 1122 3375 1075 2522 
Q 1259 2794 1537 2939 
Q 1816 3084 2150 3084 
Q 2853 3084 3261 2657 
Q 3669 2231 3669 1497 
Q 3669 778 3244 343 
Q 2819 -91 2113 -91 
Q 1303 -91 875 529 
Q 447 1150 447 2328 
Q 447 3434 972 4092 
Q 1497 4750 2381 4750 
Q 2619 4750 2861 4703 
Q 3103 4656 3366 4563 
z
" transform="scale(0.015625)"/>
       </defs>
       <use xlink:href="#DejaVuSans-36"/>
       <use xlink:href="#DejaVuSans-30" x="63.623047"/>
       <use xlink:href="#DejaVuSans-b0" x="127.246094"/>
      </g>
     </g>
    </g>
    <g id="xtick_4">
     <g id="line2d_4">
      <path d="M 369 502.2 
L 369 225 
" clip-path="url(#p5cec37b139)" style="fill: none; stroke-dasharray: 2.96,1.28; stroke-dashoffset: 0; stroke: #b0b0b0; stroke-width: 0.8"/>
     </g>
     <g id="text_4">
      <!-- 90° -->
      <g transform="translate(360.1375 213.759375)scale(0.1 -0.1)">
       <defs>
        <path id="DejaVuSans-39" d="M 703 97 
L 703 672 
Q 941 559 1184 500 
Q 1428 441 1663 441 
Q 2288 441 2617 861 
Q 2947 1281 2994 2138 
Q 2813 1869 2534 1725 
Q 2256 1581 1919 1581 
Q 1219 1581 811 2004 
Q 403 2428 403 3163 
Q 403 3881 828 4315 
Q 1253 4750 1959 4750 
Q 2769 4750 3195 4129 
Q 3622 3509 3622 2328 
Q 3622 1225 3098 567 
Q 2575 -91 1691 -91 
Q 1453 -91 1209 -44 
Q 966 3 703 97 
z
M 1959 2075 
Q 2384 2075 2632 2365 
Q 2881 2656 2881 3163 
Q 2881 3666 2632 3958 
Q 2384 4250 1959 4250 
Q 1534 4250 1286 3958 
Q 1038 3666 1038 3163 
Q 1038 2656 1286 2365 
Q 1534 2075 1959 2075 
z
" transform="scale(0.015625)"/>
       </defs>
       <use xlink:href="#DejaVuSans-39"/>
       <use xlink:href="#DejaVuSans-30" x="63.623047"/>
       <use xlink:href="#DejaVuSans-b0" x="127.246094"/>
      </g>
     </g>
    </g>
    <g id="xtick_5">
     <g id="line2d_5">
      <path d="M 369 502.2 
L 230.4 262.137758 
" clip-path="url(#p5cec37b139)" style="fill: none; stroke-dasharray: 2.96,1.28; stroke-dashoffset: 0; stroke: #b0b0b0; stroke-width: 0.8"/>
     </g>
     <g id="text_5">
      <!-- 120° -->
      <g transform="translate(211.35625 252.772777)scale(0.1 -0.1)">
       <defs>
        <path id="DejaVuSans-31" d="M 794 531 
L 1825 531 
L 1825 4091 
L 703 3866 
L 703 4441 
L 1819 4666 
L 2450 4666 
L 2450 531 
L 3481 531 
L 3481 0 
L 794 0 
L 794 531 
z
" transform="scale(0.015625)"/>
        <path id="DejaVuSans-32" d="M 1228 531 
L 3431 531 
L 3431 0 
L 469 0 
L 469 531 
Q 828 903 1448 1529 
Q 2069 2156 2228 2338 
Q 2531 2678 2651 2914 
Q 2772 3150 2772 3378 
Q 2772 3750 2511 3984 
Q 2250 4219 1831 4219 
Q 1534 4219 1204 4116 
Q 875 4013 500 3803 
L 500 4441 
Q 881 4594 1212 4672 
Q 1544 4750 1819 4750 
Q 2544 4750 2975 4387 
Q 3406 4025 3406 3419 
Q 3406 3131 3298 2873 
Q 3191 2616 2906 2266 
Q 2828 2175 2409 1742 
Q 1991 1309 1228 531 
z
" transform="scale(0.015625)"/>
       </defs>
       <use xlink:href="#DejaVuSans-31"/>
       <use xlink:href="#DejaVuSans-32" x="63.623047"/>
       <use xlink:href="#DejaVuSans-30" x="127.246094"/>
       <use xlink:href="#DejaVuSans-b0" x="190.869141"/>
      </g>
     </g>
    </g>
    <g id="xtick_6">
     <g id="line2d_6">
      <path d="M 369 502.2 
L 128.937758 363.6 
" clip-path="url(#p5cec37b139)" style="fill: none; stroke-dasharray: 2.96,1.28; stroke-dashoffset: 0; stroke: #b0b0b0; stroke-width: 0.8"/>
     </g>
     <g id="text_6">
      <!-- 150° -->
      <g transform="translate(104.769652 359.359375)scale(0.1 -0.1)">
       <defs>
        <path id="DejaVuSans-35" d="M 691 4666 
L 3169 4666 
L 3169 4134 
L 1269 4134 
L 1269 2991 
Q 1406 3038 1543 3061 
Q 1681 3084 1819 3084 
Q 2600 3084 3056 2656 
Q 3513 2228 3513 1497 
Q 3513 744 3044 326 
Q 2575 -91 1722 -91 
Q 1428 -91 1123 -41 
Q 819 9 494 109 
L 494 744 
Q 775 591 1075 516 
Q 1375 441 1709 441 
Q 2250 441 2565 725 
Q 2881 1009 2881 1497 
Q 2881 1984 2565 2268 
Q 2250 2553 1709 2553 
Q 1456 2553 1204 2497 
Q 953 2441 691 2322 
L 691 4666 
z
" transform="scale(0.015625)"/>
       </defs>
       <use xlink:href="#DejaVuSans-31"/>
       <use xlink:href="#DejaVuSans-35" x="63.623047"/>
       <use xlink:href="#DejaVuSans-30" x="127.246094"/>
       <use xlink:href="#DejaVuSans-b0" x="190.869141"/>
      </g>
     </g>
    </g>
    <g id="xtick_7">
     <g id="line2d_7">
      <path d="M 369 502.2 
L 91.8 502.2 
" clip-path="url(#p5cec37b139)" style="fill: none; stroke-dasharray: 2.96,1.28; stroke-dashoffset: 0; stroke: #b0b0b0; stroke-width: 0.8"/>
     </g>
     <g id="text_7">
      <!-- 180° -->
      <g transform="translate(65.75625 504.959375)scale(0.1 -0.1)">
       <defs>
        <path id="DejaVuSans-38" d="M 2034 2216 
Q 1584 2216 1326 1975 
Q 1069 1734 1069 1313 
Q 1069 891 1326 650 
Q 1584 409 2034 409 
Q 2484 409 2743 651 
Q 3003 894 3003 1313 
Q 3003 1734 2745 1975 
Q 2488 2216 2034 2216 
z
M 1403 2484 
Q 997 2584 770 2862 
Q 544 3141 544 3541 
Q 544 4100 942 4425 
Q 1341 4750 2034 4750 
Q 2731 4750 3128 4425 
Q 3525 4100 3525 3541 
Q 3525 3141 3298 2862 
Q 3072 2584 2669 2484 
Q 3125 2378 3379 2068 
Q 3634 1759 3634 1313 
Q 3634 634 3220 271 
Q 2806 -91 2034 -91 
Q 1263 -91 848 271 
Q 434 634 434 1313 
Q 434 1759 690 2068 
Q 947 2378 1403 2484 
z
M 1172 3481 
Q 1172 3119 1398 2916 
Q 1625 2713 2034 2713 
Q 2441 2713 2670 2916 
Q 2900 3119 2900 3481 
Q 2900 3844 2670 4047 
Q 2441 4250 2034 4250 
Q 1625 4250 1398 4047 
Q 1172 3844 1172 3481 
z
" transform="scale(0.015625)"/>
       </defs>
       <use xlink:href="#DejaVuSans-31"/>
       <use xlink:href="#DejaVuSans-38" x="63.623047"/>
       <use xlink:href="#DejaVuSans-30" x="127.246094"/>
       <use xlink:href="#DejaVuSans-b0" x="190.869141"/>
      </g>
     </g>
    </g>
    <g id="text_8">
     <!-- Angle [deg] -->
     <g transform="translate(339.855469 652.398438)scale(0.1 -0.1)">
      <defs>
       <path id="DejaVuSans-41" d="M 2188 4044 
L 1331 1722 
L 3047 1722 
L 2188 4044 
z
M 1831 4666 
L 2547 4666 
L 4325 0 
L 3669 0 
L 3244 1197 
L 1141 1197 
L 716 0 
L 50 0 
L 1831 4666 
z
" transform="scale(0.015625)"/>
       <path id="DejaVuSans-6e" d="M 3513 2113 
L 3513 0 
L 2938 0 
L 2938 2094 
Q 2938 2591 2744 2837 
Q 2550 3084 2163 3084 
Q 1697 3084 1428 2787 
Q 1159 2491 1159 1978 
L 1159 0 
L 581 0 
L 581 3500 
L 1159 3500 
L 1159 2956 
Q 1366 3272 1645 3428 
Q 1925 3584 2291 3584 
Q 2894 3584 3203 3211 
Q 3513 2838 3513 2113 
z
" transform="scale(0.015625)"/>
       <path id="DejaVuSans-67" d="M 2906 1791 
Q 2906 2416 2648 2759 
Q 2391 3103 1925 3103 
Q 1463 3103 1205 2759 
Q 947 2416 947 1791 
Q 947 1169 1205 825 
Q 1463 481 1925 481 
Q 2391 481 2648 825 
Q 2906 1169 2906 1791 
z
M 3481 434 
Q 3481 -459 3084 -895 
Q 2688 -1331 1869 -1331 
Q 1566 -1331 1297 -1286 
Q 1028 -1241 775 -1147 
L 775 -588 
Q 1028 -725 1275 -790 
Q 1522 -856 1778 -856 
Q 2344 -856 2625 -561 
Q 2906 -266 2906 331 
L 2906 616 
Q 2728 306 2450 153 
Q 2172 0 1784 0 
Q 1141 0 747 490 
Q 353 981 353 1791 
Q 353 2603 747 3093 
Q 1141 3584 1784 3584 
Q 2172 3584 2450 3431 
Q 2728 3278 2906 2969 
L 2906 3500 
L 3481 3500 
L 3481 434 
z
" transform="scale(0.015625)"/>
       <path id="DejaVuSans-6c" d="M 603 4863 
L 1178 4863 
L 1178 0 
L 603 0 
L 603 4863 
z
" transform="scale(0.015625)"/>
       <path id="DejaVuSans-65" d="M 3597 1894 
L 3597 1613 
L 953 1613 
Q 991 1019 1311 708 
Q 1631 397 2203 397 
Q 2534 397 2845 478 
Q 3156 559 3463 722 
L 3463 178 
Q 3153 47 2828 -22 
Q 2503 -91 2169 -91 
Q 1331 -91 842 396 
Q 353 884 353 1716 
Q 353 2575 817 3079 
Q 1281 3584 2069 3584 
Q 2775 3584 3186 3129 
Q 3597 2675 3597 1894 
z
M 3022 2063 
Q 3016 2534 2758 2815 
Q 2500 3097 2075 3097 
Q 1594 3097 1305 2825 
Q 1016 2553 972 2059 
L 3022 2063 
z
" transform="scale(0.015625)"/>
       <path id="DejaVuSans-20" transform="scale(0.015625)"/>
       <path id="DejaVuSans-5b" d="M 550 4863 
L 1875 4863 
L 1875 4416 
L 1125 4416 
L 1125 -397 
L 1875 -397 
L 1875 -844 
L 550 -844 
L 550 4863 
z
" transform="scale(0.015625)"/>
       <path id="DejaVuSans-64" d="M 2906 2969 
L 2906 4863 
L 3481 4863 
L 3481 0 
L 2906 0 
L 2906 525 
Q 2725 213 2448 61 
Q 2172 -91 1784 -91 
Q 1150 -91 751 415 
Q 353 922 353 1747 
Q 353 2572 751 3078 
Q 1150 3584 1784 3584 
Q 2172 3584 2448 3432 
Q 2725 3281 2906 2969 
z
M 947 1747 
Q 947 1113 1208 752 
Q 1469 391 1925 391 
Q 2381 391 2643 752 
Q 2906 1113 2906 1747 
Q 2906 2381 2643 2742 
Q 2381 3103 1925 3103 
Q 1469 3103 1208 2742 
Q 947 2381 947 1747 
z
" transform="scale(0.015625)"/>
       <path id="DejaVuSans-5d" d="M 1947 4863 
L 1947 -844 
L 622 -844 
L 622 -397 
L 1369 -397 
L 1369 4416 
L 622 4416 
L 622 4863 
L 1947 4863 
z
" transform="scale(0.015625)"/>
      </defs>
      <use xlink:href="#DejaVuSans-41"/>
      <use xlink:href="#DejaVuSans-6e" x="68.408203"/>
      <use xlink:href="#DejaVuSans-67" x="131.787109"/>
      <use xlink:href="#DejaVuSans-6c" x="195.263672"/>
      <use xlink:href="#DejaVuSans-65" x="223.046875"/>
      <use xlink:href="#DejaVuSans-20" x="284.570312"/>
      <use xlink:href="#DejaVuSans-5b" x="316.357422"/>
      <use xlink:href="#DejaVuSans-64" x="355.371094"/>
      <use xlink:href="#DejaVuSans-65" x="418.847656"/>
      <use xlink:href="#DejaVuSans-67" x="480.371094"/>
      <use xlink:href="#DejaVuSans-5d" x="543.847656"/>
     </g>
    </g>
   </g>
   <g id="matplotlib.axis_2">
    <g id="ytick_1">
     <g id="line2d_8">
      <path d="M 646.2 502.2 
C 646.2 428.710185 616.975146 358.155147 565.01 306.19 
C 513.044853 254.224854 442.489815 225 369 225 
C 295.510185 225 224.955147 254.224854 172.99 306.19 
C 121.024854 358.155147 91.8 428.710185 91.8 502.2 
" clip-path="url(#p5cec37b139)" style="fill: none; stroke-dasharray: 2.96,1.28; stroke-dashoffset: 0; stroke: #b0b0b0; stroke-width: 0.8"/>
     </g>
     <g id="text_9">
      <!-- 0 -->
      <g transform="translate(643.01875 516.798437)scale(0.1 -0.1)">
       <use xlink:href="#DejaVuSans-30"/>
      </g>
     </g>
    </g>
    <g id="ytick_2">
     <g id="line2d_9">
      <path d="M 590.76 502.2 
C 590.76 443.408148 567.380117 386.964118 525.808 345.392 
C 484.235882 303.819883 427.791852 280.44 369 280.44 
C 310.208148 280.44 253.764118 303.819883 212.192 345.392 
C 170.619883 386.964118 147.24 443.408148 147.24 502.2 
" clip-path="url(#p5cec37b139)" style="fill: none; stroke-dasharray: 2.96,1.28; stroke-dashoffset: 0; stroke: #b0b0b0; stroke-width: 0.8"/>
     </g>
     <g id="text_10">
      <!-- −10 -->
      <g transform="translate(580.207656 516.798437)scale(0.1 -0.1)">
       <defs>
        <path id="DejaVuSans-2212" d="M 678 2272 
L 4684 2272 
L 4684 1741 
L 678 1741 
L 678 2272 
z
" transform="scale(0.015625)"/>
       </defs>
       <use xlink:href="#DejaVuSans-2212"/>
       <use xlink:href="#DejaVuSans-31" x="83.789062"/>
       <use xlink:href="#DejaVuSans-30" x="147.412109"/>
      </g>
     </g>
    </g>
    <g id="ytick_3">
     <g id="line2d_10">
      <path d="M 535.32 502.2 
C 535.32 458.106111 517.785088 415.773088 486.606 384.594 
C 455.426912 353.414912 413.093889 335.88 369 335.88 
C 324.906111 335.88 282.573088 353.414912 251.394 384.594 
C 220.214912 415.773088 202.68 458.106111 202.68 502.2 
" clip-path="url(#p5cec37b139)" style="fill: none; stroke-dasharray: 2.96,1.28; stroke-dashoffset: 0; stroke: #b0b0b0; stroke-width: 0.8"/>
     </g>
     <g id="text_11">
      <!-- −20 -->
      <g transform="translate(524.767656 516.798437)scale(0.1 -0.1)">
       <use xlink:href="#DejaVuSans-2212"/>
       <use xlink:href="#DejaVuSans-32" x="83.789062"/>
       <use xlink:href="#DejaVuSans-30" x="147.412109"/>
      </g>
     </g>
    </g>
    <g id="ytick_4">
     <g id="line2d_11">
      <path d="M 479.88 502.2 
C 479.88 472.804074 468.190059 444.582059 447.404 423.796 
C 426.617941 403.009941 398.395926 391.32 369 391.32 
C 339.604074 391.32 311.382059 403.009941 290.596 423.796 
C 269.809941 444.582059 258.12 472.804074 258.12 502.2 
" clip-path="url(#p5cec37b139)" style="fill: none; stroke-dasharray: 2.96,1.28; stroke-dashoffset: 0; stroke: #b0b0b0; stroke-width: 0.8"/>
     </g>
     <g id="text_12">
      <!-- −30 -->
      <g transform="translate(469.327656 516.798437)scale(0.1 -0.1)">
       <use xlink:href="#DejaVuSans-2212"/>
       <use xlink:href="#DejaVuSans-33" x="83.789062"/>
       <use xlink:href="#DejaVuSans-30" x="147.412109"/>
      </g>
     </g>
    </g>
    <g id="ytick_5">
     <g id="line2d_12">
      <path d="M 424.44 502.2 
C 424.44 487.502037 418.595029 473.391029 408.202 462.998 
C 397.808971 452.604971 383.697963 446.76 369 446.76 
C 354.302037 446.76 340.191029 452.604971 329.798 462.998 
C 319.404971 473.391029 313.56 487.502037 313.56 502.2 
" clip-path="url(#p5cec37b139)" style="fill: none; stroke-dasharray: 2.96,1.28; stroke-dashoffset: 0; stroke: #b0b0b0; stroke-width: 0.8"/>
     </g>
     <g id="text_13">
      <!-- −40 -->
      <g transform="translate(413.887656 516.798437)scale(0.1 -0.1)">
       <defs>
        <path id="DejaVuSans-34" d="M 2419 4116 
L 825 1625 
L 2419 1625 
L 2419 4116 
z
M 2253 4666 
L 3047 4666 
L 3047 1625 
L 3713 1625 
L 3713 1100 
L 3047 1100 
L 3047 0 
L 2419 0 
L 2419 1100 
L 313 1100 
L 313 1709 
L 2253 4666 
z
" transform="scale(0.015625)"/>
       </defs>
       <use xlink:href="#DejaVuSans-2212"/>
       <use xlink:href="#DejaVuSans-34" x="83.789062"/>
       <use xlink:href="#DejaVuSans-30" x="147.412109"/>
      </g>
     </g>
    </g>
    <g id="ytick_6">
     <g id="line2d_13">
      <path d="M 369 502.2 
C 369 502.2 369 502.2 369 502.2 
C 369 502.2 369 502.2 369 502.2 
C 369 502.2 369 502.2 369 502.2 
C 369 502.2 369 502.2 369 502.2 
" clip-path="url(#p5cec37b139)" style="fill: none; stroke-dasharray: 2.96,1.28; stroke-dashoffset: 0; stroke: #b0b0b0; stroke-width: 0.8"/>
     </g>
     <g id="text_14">
      <!-- −50 -->
      <g transform="translate(358.447656 516.798437)scale(0.1 -0.1)">
       <use xlink:href="#DejaVuSans-2212"/>
       <use xlink:href="#DejaVuSans-35" x="83.789062"/>
       <use xlink:href="#DejaVuSans-30" x="147.412109"/>
      </g>
     </g>
    </g>
    <g id="text_15">
     <!-- Amplitude [dB] -->
     <g transform="translate(85.720312 401.317969)rotate(-90)scale(0.1 -0.1)">
      <defs>
       <path id="DejaVuSans-6d" d="M 3328 2828 
Q 3544 3216 3844 3400 
Q 4144 3584 4550 3584 
Q 5097 3584 5394 3201 
Q 5691 2819 5691 2113 
L 5691 0 
L 5113 0 
L 5113 2094 
Q 5113 2597 4934 2840 
Q 4756 3084 4391 3084 
Q 3944 3084 3684 2787 
Q 3425 2491 3425 1978 
L 3425 0 
L 2847 0 
L 2847 2094 
Q 2847 2600 2669 2842 
Q 2491 3084 2119 3084 
Q 1678 3084 1418 2786 
Q 1159 2488 1159 1978 
L 1159 0 
L 581 0 
L 581 3500 
L 1159 3500 
L 1159 2956 
Q 1356 3278 1631 3431 
Q 1906 3584 2284 3584 
Q 2666 3584 2933 3390 
Q 3200 3197 3328 2828 
z
" transform="scale(0.015625)"/>
       <path id="DejaVuSans-70" d="M 1159 525 
L 1159 -1331 
L 581 -1331 
L 581 3500 
L 1159 3500 
L 1159 2969 
Q 1341 3281 1617 3432 
Q 1894 3584 2278 3584 
Q 2916 3584 3314 3078 
Q 3713 2572 3713 1747 
Q 3713 922 3314 415 
Q 2916 -91 2278 -91 
Q 1894 -91 1617 61 
Q 1341 213 1159 525 
z
M 3116 1747 
Q 3116 2381 2855 2742 
Q 2594 3103 2138 3103 
Q 1681 3103 1420 2742 
Q 1159 2381 1159 1747 
Q 1159 1113 1420 752 
Q 1681 391 2138 391 
Q 2594 391 2855 752 
Q 3116 1113 3116 1747 
z
" transform="scale(0.015625)"/>
       <path id="DejaVuSans-69" d="M 603 3500 
L 1178 3500 
L 1178 0 
L 603 0 
L 603 3500 
z
M 603 4863 
L 1178 4863 
L 1178 4134 
L 603 4134 
L 603 4863 
z
" transform="scale(0.015625)"/>
       <path id="DejaVuSans-74" d="M 1172 4494 
L 1172 3500 
L 2356 3500 
L 2356 3053 
L 1172 3053 
L 1172 1153 
Q 1172 725 1289 603 
Q 1406 481 1766 481 
L 2356 481 
L 2356 0 
L 1766 0 
Q 1100 0 847 248 
Q 594 497 594 1153 
L 594 3053 
L 172 3053 
L 172 3500 
L 594 3500 
L 594 4494 
L 1172 4494 
z
" transform="scale(0.015625)"/>
       <path id="DejaVuSans-75" d="M 544 1381 
L 544 3500 
L 1119 3500 
L 1119 1403 
Q 1119 906 1312 657 
Q 1506 409 1894 409 
Q 2359 409 2629 706 
Q 2900 1003 2900 1516 
L 2900 3500 
L 3475 3500 
L 3475 0 
L 2900 0 
L 2900 538 
Q 2691 219 2414 64 
Q 2138 -91 1772 -91 
Q 1169 -91 856 284 
Q 544 659 544 1381 
z
M 1991 3584 
L 1991 3584 
z
" transform="scale(0.015625)"/>
       <path id="DejaVuSans-42" d="M 1259 2228 
L 1259 519 
L 2272 519 
Q 2781 519 3026 730 
Q 3272 941 3272 1375 
Q 3272 1813 3026 2020 
Q 2781 2228 2272 2228 
L 1259 2228 
z
M 1259 4147 
L 1259 2741 
L 2194 2741 
Q 2656 2741 2882 2914 
Q 3109 3088 3109 3444 
Q 3109 3797 2882 3972 
Q 2656 4147 2194 4147 
L 1259 4147 
z
M 628 4666 
L 2241 4666 
Q 2963 4666 3353 4366 
Q 3744 4066 3744 3513 
Q 3744 3084 3544 2831 
Q 3344 2578 2956 2516 
Q 3422 2416 3680 2098 
Q 3938 1781 3938 1306 
Q 3938 681 3513 340 
Q 3088 0 2303 0 
L 628 0 
L 628 4666 
z
" transform="scale(0.015625)"/>
      </defs>
      <use xlink:href="#DejaVuSans-41"/>
      <use xlink:href="#DejaVuSans-6d" x="68.408203"/>
      <use xlink:href="#DejaVuSans-70" x="165.820312"/>
      <use xlink:href="#DejaVuSans-6c" x="229.296875"/>
      <use xlink:href="#DejaVuSans-69" x="257.080078"/>
      <use xlink:href="#DejaVuSans-74" x="284.863281"/>
      <use xlink:href="#DejaVuSans-75" x="324.072266"/>
      <use xlink:href="#DejaVuSans-64" x="387.451172"/>
      <use xlink:href="#DejaVuSans-65" x="450.927734"/>
      <use xlink:href="#DejaVuSans-20" x="512.451172"/>
      <use xlink:href="#DejaVuSans-5b" x="544.238281"/>
      <use xlink:href="#DejaVuSans-64" x="583.251953"/>
      <use xlink:href="#DejaVuSans-42" x="646.728516"/>
      <use xlink:href="#DejaVuSans-5d" x="715.332031"/>
     </g>
    </g>
   </g>
   <g id="line2d_14">
    <path d="M 573.116603 502.2 
L 573.010496 492.925619 
L 572.710179 484.357743 
L 572.231572 476.49702 
L 571.588507 469.350687 
L 570.802476 462.928846 
L 569.906491 457.240475 
L 568.792543 451.586105 
L 567.611956 446.681699 
L 566.212645 441.834865 
L 564.818132 437.741596 
L 563.223385 433.720916 
L 561.407426 429.790969 
L 559.70844 426.600663 
L 557.824723 423.502632 
L 555.739483 420.513616 
L 553.433626 417.653123 
L 551.415382 415.472548 
L 549.228815 413.40253 
L 546.858813 411.458942 
L 544.287653 409.660367 
L 541.494214 408.028817 
L 539.238074 406.930466 
L 536.829696 405.954041 
L 534.253765 405.115044 
L 531.491908 404.431863 
L 528.521779 403.926592 
L 525.315776 403.626178 
L 521.839209 403.564047 
L 518.047595 403.782492 
L 513.882555 404.336277 
L 510.860628 404.926778 
L 507.607963 405.72601 
L 504.086013 406.768981 
L 500.244876 408.100628 
L 496.018367 409.780051 
L 491.316111 411.887295 
L 486.010178 414.534752 
L 479.911029 417.887627 
L 472.720553 422.203738 
L 463.92974 427.919912 
L 458.660874 431.536116 
L 452.557989 435.87127 
L 445.294095 441.201559 
L 436.302277 448.00406 
L 424.463267 457.217157 
L 407.026695 471.137965 
L 373.039373 498.876844 
M 399.331261 476.889215 
L 420.104732 459.250365 
L 433.308275 447.769206 
L 442.978405 439.139325 
L 450.589449 432.157756 
L 462.147898 421.097506 
L 470.759374 412.341582 
L 477.559534 404.977935 
L 483.126356 398.546036 
L 487.794714 392.781199 
L 491.776252 387.517522 
L 495.213382 382.644334 
L 498.206593 378.084253 
L 500.829481 373.781147 
L 503.137593 369.693078 
L 506.101031 363.895943 
L 508.560296 358.431451 
L 510.595101 353.242039 
L 512.265364 348.285376 
L 513.617325 343.529599 
L 514.687459 338.95026 
L 515.505098 334.528317 
L 516.094217 330.248755 
L 516.474704 326.099616 
L 516.663271 322.071311 
L 516.674131 318.156103 
L 516.433053 313.101116 
L 515.922226 308.224552 
L 515.162387 303.517638 
L 514.17125 298.973828 
L 512.964157 294.588324 
L 511.55457 290.357721 
L 509.954448 286.279738 
L 508.174533 282.353006 
L 506.224583 278.576916 
L 504.113552 274.951485 
L 501.849732 271.477264 
L 499.440875 268.155254 
L 496.894287 264.986849 
L 494.216907 261.973785 
L 491.415376 259.118101 
L 488.49609 256.422111 
L 485.465248 253.88838 
L 482.328892 251.519712 
L 479.092941 249.319136 
L 475.763223 247.289906 
L 472.3455 245.435498 
L 468.845492 243.75962 
L 465.268901 242.26622 
L 461.621427 240.959506 
L 457.90879 239.843969 
L 454.136747 238.924409 
L 450.31111 238.205981 
L 446.437767 237.694237 
L 442.522694 237.395189 
L 438.571983 237.315378 
L 434.59186 237.46197 
L 430.588711 237.842863 
L 426.569107 238.466825 
L 422.539842 239.343672 
L 418.507971 240.484477 
L 414.480854 241.901852 
L 410.466218 243.610295 
L 406.472228 245.626649 
L 403.495494 247.352754 
L 400.539153 249.272799 
L 397.607351 251.397893 
L 394.704516 253.740879 
L 391.835419 256.316738 
L 389.005242 259.143105 
L 386.219676 262.24096 
L 383.485036 265.635555 
L 380.808426 269.357676 
L 378.197964 273.445414 
L 375.66309 277.9467 
L 373.215017 282.923036 
L 371.637805 286.54336 
L 370.110013 290.440534 
L 368.637357 294.652166 
L 367.226699 299.225565 
L 365.886443 304.221394 
L 364.62714 309.719215 
L 363.4624 315.826263 
L 362.41041 322.691955 
L 361.496526 330.53339 
L 360.758099 339.683559 
L 360.254364 350.691981 
L 360.120117 357.17691 
L 360.089657 364.56563 
L 360.19354 373.166165 
L 360.480498 383.47933 
L 361.036209 396.403092 
L 362.035713 413.809072 
L 363.946514 440.801865 
M 366.715416 476.630332 
L 362.51404 432.361601 
L 360.118775 410.06807 
L 358.303822 395.157979 
L 356.771961 384.004124 
L 355.405374 375.134298 
L 354.145834 367.803356 
L 351.829456 356.198023 
L 349.681317 347.27446 
L 347.637589 340.118747 
L 345.664956 334.222643 
L 343.744397 329.274213 
L 341.86441 325.068226 
L 340.017788 321.462475 
L 338.19994 318.354403 
L 336.407948 315.667644 
L 334.640006 313.34384 
L 332.895077 311.337427 
L 331.172671 309.612183 
L 329.472695 308.138869 
L 327.795355 306.893581 
L 326.141089 305.856555 
L 324.510517 305.011303 
L 322.110803 304.073259 
L 319.769267 303.497794 
L 317.489536 303.254866 
L 315.275699 303.320717 
L 313.132278 303.676548 
L 311.064226 304.307593 
L 309.076961 305.202454 
L 307.176403 306.35264 
L 305.369046 307.752261 
L 303.662047 309.397846 
L 302.063345 311.288266 
L 300.581821 313.42477 
L 299.22749 315.811119 
L 298.011769 318.453844 
L 296.947819 321.362661 
L 296.051001 324.55107 
L 295.3395 328.037224 
L 294.835184 331.845183 
L 294.564814 336.006715 
L 294.56181 340.563979 
L 294.868884 345.573572 
L 295.272842 349.201684 
L 295.860324 353.094629 
L 296.657692 357.290525 
L 297.698408 361.838607 
L 299.02592 366.803825 
L 300.698213 372.274081 
L 302.795282 378.372212 
L 305.43217 385.276945 
L 308.783428 393.262375 
L 313.133627 402.779851 
L 318.996707 414.652228 
L 322.791817 421.949342 
L 327.46103 430.637931 
L 333.439604 441.427772 
L 341.611058 455.765699 
L 354.270826 477.42689 
M 353.471956 476.69578 
L 340.784084 456.218952 
L 332.279073 442.825516 
L 325.821352 432.926267 
L 316.146083 418.709331 
L 308.854435 408.644352 
L 302.924717 400.982957 
L 297.878297 394.898519 
L 293.452832 389.933629 
L 289.489261 385.808182 
L 285.884078 382.337972 
L 282.566296 379.395248 
L 279.485222 376.887683 
L 276.603473 374.746317 
L 272.594494 372.108331 
L 268.901513 370.044033 
L 265.474926 368.45663 
L 262.278618 367.273681 
L 259.285641 366.439425 
L 256.475477 365.909915 
L 253.832258 365.64981 
L 251.343557 365.63019 
L 248.999543 365.827027 
L 246.792393 366.220086 
L 244.715848 366.792122 
L 242.764901 367.528278 
L 240.935551 368.415632 
L 239.224625 369.442847 
L 237.629637 370.599897 
L 235.68011 372.329297 
L 233.930186 374.255076 
L 232.378004 376.360942 
L 231.022841 378.632554 
L 229.864982 381.057202 
L 228.90565 383.623555 
L 228.146973 386.321471 
L 227.591979 389.141857 
L 227.244635 392.076554 
L 227.109915 395.118266 
L 227.193906 398.260505 
L 227.503962 401.497572 
L 228.048908 404.824551 
L 228.839307 408.237345 
L 229.887824 411.732733 
L 231.209696 415.308471 
L 232.823366 418.963441 
L 234.751331 422.697874 
L 237.021316 426.513662 
L 239.667895 430.414826 
L 241.925861 433.400695 
L 244.44292 436.442565 
L 247.247059 439.546191 
L 250.372938 442.71935 
L 253.864142 445.972531 
L 257.776489 449.319966 
L 262.183006 452.781196 
L 267.181745 456.383551 
L 272.908615 460.166266 
L 279.559664 464.187688 
L 284.647911 467.044183 
L 290.404161 470.08611 
L 297.012342 473.371644 
L 304.749052 476.98953 
L 314.058658 481.084291 
L 325.724404 485.914017 
L 341.335346 492.00907 
L 351.679654 495.888292 
L 365.008084 500.761088 
M 365.839308 501.135039 
L 343.107826 493.676948 
L 328.202538 489.085815 
L 317.129338 485.925475 
L 308.33957 483.632352 
L 301.068916 481.925024 
L 294.883723 480.641951 
L 287.076927 479.299919 
L 280.559398 478.474806 
L 274.99337 478.035184 
L 270.161392 477.89483 
L 265.915307 477.993832 
L 262.149699 478.288683 
L 258.786946 478.746655 
L 255.768291 479.342402 
L 253.048236 480.05582 
L 249.824994 481.162374 
L 247.003372 482.418496 
L 244.532974 483.799568 
L 242.374746 485.285568 
L 240.498009 486.859859 
L 238.878434 488.508348 
L 237.496637 490.218871 
L 236.337162 491.980751 
L 235.387767 493.784456 
L 234.638889 495.621324 
L 234.083267 497.483359 
L 233.71567 499.363044 
L 233.532705 501.253192 
L 233.509873 502.2 
L 233.509873 502.2 
" clip-path="url(#p5cec37b139)" style="fill: none; stroke: #1f77b4; stroke-width: 1.5; stroke-linecap: square"/>
   </g>
   <g id="line2d_15">
    <path d="M 573.048913 502.2 
L 579.116668 501.465736 
L 578.989668 494.858836 
L 578.654973 488.259197 
L 578.251266 483.135343 
L 570.75365 483.107325 
L 570.053493 476.772485 
L 569.154479 470.462794 
L 568.691311 467.668193 
L 571.926589 466.377945 
L 570.699785 460.014494 
L 570.551135 459.309905 
L 575.560361 457.488855 
L 574.577557 453.167998 
L 572.736554 452.853995 
L 571.27759 447.178293 
L 564.088195 448.401001 
L 563.31715 445.67937 
L 558.137068 446.468492 
L 557.542416 444.488749 
L 562.199495 442.324063 
L 560.22111 436.278383 
L 558.053594 430.297905 
L 557.801175 429.63769 
L 562.514988 427.048839 
L 560.056108 421.000792 
L 558.311714 417.013013 
L 560.372459 415.280271 
L 559.760301 413.944887 
L 555.549147 415.100449 
L 554.93585 413.79878 
L 547.323514 416.65269 
L 546.110338 414.168493 
L 544.470385 414.217609 
L 543.538385 412.382912 
L 544.490522 411.115887 
L 541.84066 406.265607 
L 541.504359 405.662196 
L 533.725183 409.258217 
L 533.071587 408.109218 
L 532.530351 407.658673 
L 530.85358 404.815932 
L 531.044357 403.928246 
L 529.302636 401.112037 
L 527.248147 401.632986 
L 526.541417 400.529442 
L 517.472233 405.645712 
L 516.10812 403.579843 
L 514.690141 403.790777 
L 513.650469 402.268852 
L 508.04407 405.422471 
L 507.364294 404.453052 
L 509.106913 402.486208 
L 508.406589 401.509433 
L 503.191712 404.560647 
L 502.50603 403.625162 
L 488.698717 413.171854 
L 488.386874 412.754106 
L 461.212002 432.609365 
L 458.978075 429.744111 
L 481.968579 410.578138 
L 479.031599 407.071074 
L 458.139985 424.587137 
L 457.86822 424.276108 
L 472.960306 410.398054 
L 472.638866 410.035321 
L 489.793974 394.021206 
L 489.034959 393.179615 
L 497.014198 385.11359 
L 496.604254 384.666955 
L 497.703781 382.820193 
L 496.445198 381.477496 
L 502.28019 375.063694 
L 500.940041 373.673447 
L 507.814751 366.027951 
L 507.338045 365.543689 
L 509.800354 362.135768 
L 508.324262 360.667394 
L 512.024715 355.889083 
L 509.965651 353.904219 
L 512.565035 350.108845 
L 515.934577 345.4454 
L 514.283176 343.913635 
L 516.529506 340.334429 
L 515.39462 339.307294 
L 517.621107 335.662968 
L 517.03823 335.144623 
L 517.447029 333.499286 
L 516.26435 332.465906 
L 518.26304 328.942809 
L 517.656675 328.422262 
L 519.952185 324.485349 
L 519.330234 323.958926 
L 521.000304 320.695572 
L 516.515349 317.032045 
L 518.234619 313.524802 
L 513.575099 309.931067 
L 516.140449 303.645506 
L 515.445695 303.132531 
L 515.923945 301.013313 
L 514.514258 299.991372 
L 514.11393 299.05407 
L 513.403144 298.548205 
L 514.385922 295.63611 
L 513.663189 295.129315 
L 513.850768 293.309736 
L 511.652922 291.802681 
L 511.765672 290.044015 
L 512.466343 287.385893 
L 510.20647 285.893678 
L 510.132311 284.347896 
L 507.840718 282.880317 
L 508.320003 280.412045 
L 507.544106 279.926541 
L 507.351524 278.497849 
L 505.784685 277.53637 
L 505.532322 276.176445 
L 504.741641 275.700708 
L 504.990252 273.476957 
L 504.190141 273.00313 
L 503.459744 272.410142 
L 501.850453 271.476012 
L 501.449759 270.301646 
L 500.638574 269.840211 
L 500.497079 268.186968 
L 500.521628 266.216104 
L 495.545148 263.51053 
L 495.28946 261.96801 
L 490.225067 259.373066 
L 489.945083 257.800464 
L 489.472832 256.599428 
L 488.613837 256.179931 
L 487.939177 255.377876 
L 485.334933 254.166221 
L 484.894648 252.842065 
L 483.149049 252.038164 
L 482.377657 251.411845 
L 480.622123 250.625571 
L 479.833307 250.029992 
L 479.256189 248.94416 
L 476.595139 247.802214 
L 475.790332 247.225179 
L 474.005698 246.485046 
L 473.306849 245.63905 
L 467.894779 243.535149 
L 467.087426 242.934312 
L 466.180815 242.593126 
L 465.21969 242.399095 
L 462.459549 241.491826 
L 458.806316 240.210944 
L 456.054836 239.283863 
L 454.974179 239.474336 
L 449.447051 237.729574 
L 447.350797 238.00295 
L 446.427073 237.730764 
L 445.406771 237.792744 
L 444.482325 237.527352 
L 443.480525 237.536789 
L 442.555195 237.27813 
L 441.439303 237.715195 
L 440.514609 237.463668 
L 439.392993 237.951328 
L 437.544433 237.465803 
L 436.483691 237.757686 
L 435.318665 238.479883 
L 432.550329 237.799128 
L 431.504745 238.090944 
L 429.657354 237.660547 
L 428.458594 238.664398 
L 427.381538 239.160002 
L 425.541719 238.758396 
L 424.374526 239.729584 
L 423.456976 239.537678 
L 422.230605 240.861885 
L 421.317025 240.677464 
L 420.313009 240.953418 
L 419.39976 240.775698 
L 418.305504 241.554785 
L 417.394369 241.384076 
L 416.222368 242.647134 
L 414.981901 244.351935 
L 410.469808 243.587906 
L 409.202867 245.759757 
L 403.817578 244.973243 
L 401.443106 249.226409 
L 400.365097 250.668636 
L 398.606372 250.455568 
L 397.642358 251.090984 
L 396.448172 253.856056 
L 395.580158 253.761654 
L 394.472373 255.984768 
L 392.750946 255.812755 
L 391.703097 257.741532 
L 390.84869 257.663688 
L 389.701088 261.001867 
L 388.014843 260.863077 
L 387.056937 262.31826 
L 385.379957 262.197919 
L 384.294638 265.950082 
L 383.299409 268.667146 
L 381.666893 268.572911 
L 380.686843 271.755092 
L 379.881474 271.715659 
L 378.872539 276.333232 
L 378.08318 276.300111 
L 377.243515 277.637101 
L 376.458722 277.609664 
L 375.565922 281.216988 
L 374.79365 281.195393 
L 373.894952 286.73826 
L 373.019561 293.09122 
L 366.442004 293.068234 
L 364.980439 293.09122 
L 364.35291 297.648398 
L 363.837151 305.257904 
L 363.148961 305.277148 
L 362.792667 315.290367 
L 362.139543 315.3132 
L 361.711815 320.941887 
L 361.078447 320.968462 
L 360.660576 325.559714 
L 360.043351 325.589935 
L 360.07179 337.528863 
L 358.921118 337.595285 
L 359.755263 359.400391 
L 358.769717 352.304045 
L 357.72234 352.379205 
L 359.716354 384.371704 
L 358.893076 384.439466 
L 356.055747 357.324496 
L 355.549554 357.370614 
L 355.159108 358.617545 
L 354.155945 358.717786 
L 353.699654 359.191345 
L 353.199999 359.245686 
L 350.557922 340.517365 
L 350.79985 347.443235 
L 349.718696 347.574216 
L 347.154889 331.863774 
L 344.934597 319.610563 
L 343.599066 314.541921 
L 339.670264 315.115718 
L 339.312675 317.065284 
L 336.082567 317.612235 
L 335.077119 315.746388 
L 332.79093 307.055358 
L 332.109212 307.183083 
L 330.05128 300.172415 
L 329.345526 300.309757 
L 328.528183 299.889337 
L 327.821449 300.032002 
L 327.220259 300.683782 
L 324.399993 301.253159 
L 322.166533 294.622169 
L 321.779489 296.261438 
L 320.341332 296.596493 
L 319.87932 297.833622 
L 317.739559 298.359806 
L 317.668357 301.051273 
L 315.274817 294.701117 
L 313.825914 295.081671 
L 313.461767 296.605813 
L 312.743651 296.801149 
L 312.926461 300.241366 
L 312.221052 300.43855 
L 311.046667 298.991339 
L 310.336901 299.1951 
L 307.876292 293.418501 
L 307.147071 293.633375 
L 305.868536 292.019476 
L 306.247733 295.90134 
L 301.936328 297.262331 
L 302.953678 302.732116 
L 299.478693 303.916513 
L 300.814261 309.880828 
L 299.397948 308.043018 
L 298.719884 308.28743 
L 295.650971 302.006454 
L 294.951836 302.263998 
L 293.667398 300.958001 
L 292.964611 301.222482 
L 294.435252 307.171713 
L 293.754174 307.433473 
L 295.077559 312.830162 
L 293.755854 313.351433 
L 290.478789 307.112069 
L 289.797527 307.387656 
L 291.809362 314.221625 
L 290.497461 314.765703 
L 291.512337 318.988285 
L 289.595907 319.81069 
L 292.774602 328.770553 
L 288.5025 320.774383 
L 287.236478 321.341413 
L 290.532367 330.235298 
L 289.332418 330.78791 
L 293.869008 342.015751 
L 290.717455 336.802309 
L 289.563398 337.353468 
L 285.181892 329.804087 
L 284.579961 330.098045 
L 285.590062 333.649533 
L 290.498099 344.952193 
L 287.218542 346.632605 
L 293.4187 359.638545 
L 290.446411 361.254496 
L 301.019751 381.221921 
L 304.396719 388.166519 
L 303.998619 388.392974 
L 290.273824 365.474706 
L 289.32017 366.028265 
L 287.92975 364.756194 
L 287.449943 365.040336 
L 297.642299 383.132125 
L 297.226648 383.382214 
M 305.837828 400.865669 
L 305.484098 401.08701 
M 306.730968 406.81354 
L 305.734412 407.471575 
L 298.01026 396.706164 
L 304.87437 407.621771 
L 303.886389 408.299225 
L 278.229105 372.27067 
L 277.775617 372.588665 
L 273.937166 368.132859 
L 273.469245 368.465878 
L 278.346652 376.226852 
L 277.468436 376.863507 
L 286.217884 389.672101 
L 285.825157 389.962073 
L 271.835174 372.037036 
L 268.956213 369.1528 
L 265.731896 371.639611 
L 261.779497 367.611963 
L 258.519639 370.274772 
L 258.412007 371.079851 
L 257.954479 371.467106 
L 249.007018 361.92975 
L 248.517571 362.349926 
L 249.737718 364.740558 
L 248.779923 365.577442 
L 255.972745 374.653145 
L 255.527718 375.048901 
L 256.612259 377.146612 
L 255.741003 377.935148 
L 238.912735 360.469616 
L 237.434063 361.841166 
L 238.705368 364.167358 
L 240.506259 367.024661 
L 238.62937 368.833915 
L 234.307921 365.372999 
L 232.880907 366.792554 
L 235.53084 370.353385 
L 235.070913 370.820603 
L 235.575739 372.227626 
L 234.220515 373.633513 
L 221.637102 362.610449 
L 220.181823 364.162988 
L 223.168177 367.878003 
L 222.699675 368.388438 
L 226.999932 373.230056 
L 226.102026 374.225648 
L 226.273501 375.275203 
L 225.830829 375.774741 
L 218.908989 370.593045 
L 218.45 371.118347 
L 222.591059 375.620678 
L 218.68309 380.287206 
L 223.237425 384.822994 
L 219.618509 389.464645 
L 227.846717 396.446485 
L 227.478019 396.940396 
L 218.307762 390.935641 
L 217.533813 391.99155 
L 216.053809 391.730052 
L 215.285467 392.801694 
L 223.342389 399.300714 
L 222.62678 400.321232 
L 234.066329 408.98166 
L 233.096496 410.40135 
L 212.149977 397.048946 
L 210.695529 399.251622 
L 209.052191 398.976458 
L 208.334665 400.096859 
L 217.66873 406.769443 
L 216.024484 409.428042 
L 219.475146 412.233881 
L 217.926099 414.860084 
L 232.55591 423.952869 
L 232.012372 424.908391 
L 223.065639 420.531439 
L 221.661017 423.093643 
L 206.623679 415.749724 
L 205.726306 417.456736 
L 217.463899 424.219839 
L 216.654726 425.812742 
L 231.1516 433.683376 
L 230.207361 435.616874 
L 220.001313 431.360161 
L 219.509851 432.403247 
L 215.048554 430.974476 
L 214.554517 432.052187 
L 230.974914 440.091106 
L 228.690001 445.441358 
L 227.910353 447.408116 
L 256.857645 459.100118 
L 255.14939 463.839263 
L 254.245172 466.635451 
L 266.625216 470.863938 
L 266.302333 471.938899 
L 300.110663 482.1623 
L 299.837312 483.127173 
L 250.132144 469.866649 
L 249.274787 473.201959 
L 313.740084 489.020038 
L 313.475903 490.181499 
L 245.926243 476.009896 
L 245.086345 480.325874 
L 285.915528 487.83254 
L 285.276875 492.205412 
L 285.057462 494.256215 
L 257.155412 492.00996 
L 256.80804 497.099718 
L 256.692856 501.807536 
L 249.590419 502.2 
L 249.590419 502.2 
" clip-path="url(#p5cec37b139)" style="fill: none; stroke: #ff7f0e; stroke-width: 1.5; stroke-linecap: square"/>
   </g>
   <g id="line2d_16">
    <path d="M 560.3225 502.2 
L 555.706358 485.396124 
L 554.121375 468.605423 
L 545.414384 453.512724 
L 547.459603 435.222991 
L 543.62448 418.105283 
L 541.950868 398.866667 
L 534.169288 382.197488 
L 530.13192 361.423281 
L 526.864912 337.086247 
L 520.848691 311.787764 
L 511.10548 286.9194 
L 496.33837 265.565657 
L 477.378369 248.636201 
L 454.659511 238.567134 
L 430.186086 234.12624 
L 404.820132 237.765166 
L 380.262034 251.431328 
L 358.987689 279.258577 
L 345.642344 329.766857 
L 340.708028 378.244774 
L 314.601837 334.779669 
L 304.475863 351.238277 
L 307.566314 388.037082 
L 291.057417 384.122033 
L 260.739975 366.446222 
L 242.1009 369.473947 
L 231.732464 382.272966 
L 232.953799 403.356649 
L 257.846071 435.788619 
L 260.281855 449.844101 
L 272.2115 465.874668 
L 189.765917 452.734536 
L 197.247722 471.031557 
L 190.424605 486.127924 
L 213.403005 502.2 
" clip-path="url(#p5cec37b139)" style="fill: none; stroke: #2ca02c; stroke-width: 1.5; stroke-linecap: square"/>
   </g>
   <g id="patch_3">
    <path d="M 646.2 502.2 
C 646.2 428.710185 616.975146 358.155147 565.01 306.19 
C 513.044853 254.224854 442.489815 225 369 225 
C 295.510185 225 224.955147 254.224854 172.99 306.19 
C 121.024854 358.155147 91.8 428.710185 91.8 502.2 
" style="fill: none; stroke: #000000; stroke-width: 0.8; stroke-linejoin: miter; stroke-linecap: square"/>
   </g>
   <g id="patch_4">
    <path d="M 369 502.2 
L 646.2 502.2 
" style="fill: none; stroke: #000000; stroke-width: 0.8; stroke-linejoin: miter; stroke-linecap: square"/>
   </g>
   <g id="patch_5">
    <path d="M 369 502.2 
L 91.8 502.2 
" style="fill: none; stroke: #000000; stroke-width: 0.8; stroke-linejoin: miter; stroke-linecap: square"/>
   </g>
   <g id="legend_1">
    <g id="patch_6">
     <path d="M 538.553125 138.434375 
L 639.2 138.434375 
Q 641.2 138.434375 641.2 136.434375 
L 641.2 93.4 
Q 641.2 91.4 639.2 91.4 
L 538.553125 91.4 
Q 536.553125 91.4 536.553125 93.4 
L 536.553125 136.434375 
Q 536.553125 138.434375 538.553125 138.434375 
z
" style="fill: #ffffff; opacity: 0.8; stroke: #cccccc; stroke-linejoin: miter"/>
    </g>
    <g id="line2d_17">
     <path d="M 540.553125 99.498437 
L 550.553125 99.498437 
L 560.553125 99.498437 
" style="fill: none; stroke: #1f77b4; stroke-width: 1.5; stroke-linecap: square"/>
    </g>
    <g id="text_16">
     <!-- Theoretical -->
     <g transform="translate(568.553125 102.998437)scale(0.1 -0.1)">
      <defs>
       <path id="DejaVuSans-54" d="M -19 4666 
L 3928 4666 
L 3928 4134 
L 2272 4134 
L 2272 0 
L 1638 0 
L 1638 4134 
L -19 4134 
L -19 4666 
z
" transform="scale(0.015625)"/>
       <path id="DejaVuSans-68" d="M 3513 2113 
L 3513 0 
L 2938 0 
L 2938 2094 
Q 2938 2591 2744 2837 
Q 2550 3084 2163 3084 
Q 1697 3084 1428 2787 
Q 1159 2491 1159 1978 
L 1159 0 
L 581 0 
L 581 4863 
L 1159 4863 
L 1159 2956 
Q 1366 3272 1645 3428 
Q 1925 3584 2291 3584 
Q 2894 3584 3203 3211 
Q 3513 2838 3513 2113 
z
" transform="scale(0.015625)"/>
       <path id="DejaVuSans-6f" d="M 1959 3097 
Q 1497 3097 1228 2736 
Q 959 2375 959 1747 
Q 959 1119 1226 758 
Q 1494 397 1959 397 
Q 2419 397 2687 759 
Q 2956 1122 2956 1747 
Q 2956 2369 2687 2733 
Q 2419 3097 1959 3097 
z
M 1959 3584 
Q 2709 3584 3137 3096 
Q 3566 2609 3566 1747 
Q 3566 888 3137 398 
Q 2709 -91 1959 -91 
Q 1206 -91 779 398 
Q 353 888 353 1747 
Q 353 2609 779 3096 
Q 1206 3584 1959 3584 
z
" transform="scale(0.015625)"/>
       <path id="DejaVuSans-72" d="M 2631 2963 
Q 2534 3019 2420 3045 
Q 2306 3072 2169 3072 
Q 1681 3072 1420 2755 
Q 1159 2438 1159 1844 
L 1159 0 
L 581 0 
L 581 3500 
L 1159 3500 
L 1159 2956 
Q 1341 3275 1631 3429 
Q 1922 3584 2338 3584 
Q 2397 3584 2469 3576 
Q 2541 3569 2628 3553 
L 2631 2963 
z
" transform="scale(0.015625)"/>
       <path id="DejaVuSans-63" d="M 3122 3366 
L 3122 2828 
Q 2878 2963 2633 3030 
Q 2388 3097 2138 3097 
Q 1578 3097 1268 2742 
Q 959 2388 959 1747 
Q 959 1106 1268 751 
Q 1578 397 2138 397 
Q 2388 397 2633 464 
Q 2878 531 3122 666 
L 3122 134 
Q 2881 22 2623 -34 
Q 2366 -91 2075 -91 
Q 1284 -91 818 406 
Q 353 903 353 1747 
Q 353 2603 823 3093 
Q 1294 3584 2113 3584 
Q 2378 3584 2631 3529 
Q 2884 3475 3122 3366 
z
" transform="scale(0.015625)"/>
       <path id="DejaVuSans-61" d="M 2194 1759 
Q 1497 1759 1228 1600 
Q 959 1441 959 1056 
Q 959 750 1161 570 
Q 1363 391 1709 391 
Q 2188 391 2477 730 
Q 2766 1069 2766 1631 
L 2766 1759 
L 2194 1759 
z
M 3341 1997 
L 3341 0 
L 2766 0 
L 2766 531 
Q 2569 213 2275 61 
Q 1981 -91 1556 -91 
Q 1019 -91 701 211 
Q 384 513 384 1019 
Q 384 1609 779 1909 
Q 1175 2209 1959 2209 
L 2766 2209 
L 2766 2266 
Q 2766 2663 2505 2880 
Q 2244 3097 1772 3097 
Q 1472 3097 1187 3025 
Q 903 2953 641 2809 
L 641 3341 
Q 956 3463 1253 3523 
Q 1550 3584 1831 3584 
Q 2591 3584 2966 3190 
Q 3341 2797 3341 1997 
z
" transform="scale(0.015625)"/>
      </defs>
      <use xlink:href="#DejaVuSans-54"/>
      <use xlink:href="#DejaVuSans-68" x="61.083984"/>
      <use xlink:href="#DejaVuSans-65" x="124.462891"/>
      <use xlink:href="#DejaVuSans-6f" x="185.986328"/>
      <use xlink:href="#DejaVuSans-72" x="247.167969"/>
      <use xlink:href="#DejaVuSans-65" x="286.03125"/>
      <use xlink:href="#DejaVuSans-74" x="347.554688"/>
      <use xlink:href="#DejaVuSans-69" x="386.763672"/>
      <use xlink:href="#DejaVuSans-63" x="414.546875"/>
      <use xlink:href="#DejaVuSans-61" x="469.527344"/>
      <use xlink:href="#DejaVuSans-6c" x="530.806641"/>
     </g>
    </g>
    <g id="line2d_18">
     <path d="M 540.553125 114.176562 
L 550.553125 114.176562 
L 560.553125 114.176562 
" style="fill: none; stroke: #ff7f0e; stroke-width: 1.5; stroke-linecap: square"/>
    </g>
    <g id="text_17">
     <!-- Simulation -->
     <g transform="translate(568.553125 117.676562)scale(0.1 -0.1)">
      <defs>
       <path id="DejaVuSans-53" d="M 3425 4513 
L 3425 3897 
Q 3066 4069 2747 4153 
Q 2428 4238 2131 4238 
Q 1616 4238 1336 4038 
Q 1056 3838 1056 3469 
Q 1056 3159 1242 3001 
Q 1428 2844 1947 2747 
L 2328 2669 
Q 3034 2534 3370 2195 
Q 3706 1856 3706 1288 
Q 3706 609 3251 259 
Q 2797 -91 1919 -91 
Q 1588 -91 1214 -16 
Q 841 59 441 206 
L 441 856 
Q 825 641 1194 531 
Q 1563 422 1919 422 
Q 2459 422 2753 634 
Q 3047 847 3047 1241 
Q 3047 1584 2836 1778 
Q 2625 1972 2144 2069 
L 1759 2144 
Q 1053 2284 737 2584 
Q 422 2884 422 3419 
Q 422 4038 858 4394 
Q 1294 4750 2059 4750 
Q 2388 4750 2728 4690 
Q 3069 4631 3425 4513 
z
" transform="scale(0.015625)"/>
      </defs>
      <use xlink:href="#DejaVuSans-53"/>
      <use xlink:href="#DejaVuSans-69" x="63.476562"/>
      <use xlink:href="#DejaVuSans-6d" x="91.259766"/>
      <use xlink:href="#DejaVuSans-75" x="188.671875"/>
      <use xlink:href="#DejaVuSans-6c" x="252.050781"/>
      <use xlink:href="#DejaVuSans-61" x="279.833984"/>
      <use xlink:href="#DejaVuSans-74" x="341.113281"/>
      <use xlink:href="#DejaVuSans-69" x="380.322266"/>
      <use xlink:href="#DejaVuSans-6f" x="408.105469"/>
      <use xlink:href="#DejaVuSans-6e" x="469.287109"/>
     </g>
    </g>
    <g id="line2d_19">
     <path d="M 540.553125 128.854687 
L 550.553125 128.854687 
L 560.553125 128.854687 
" style="fill: none; stroke: #2ca02c; stroke-width: 1.5; stroke-linecap: square"/>
    </g>
    <g id="text_18">
     <!-- Measurement -->
     <g transform="translate(568.553125 132.354687)scale(0.1 -0.1)">
      <defs>
       <path id="DejaVuSans-4d" d="M 628 4666 
L 1569 4666 
L 2759 1491 
L 3956 4666 
L 4897 4666 
L 4897 0 
L 4281 0 
L 4281 4097 
L 3078 897 
L 2444 897 
L 1241 4097 
L 1241 0 
L 628 0 
L 628 4666 
z
" transform="scale(0.015625)"/>
       <path id="DejaVuSans-73" d="M 2834 3397 
L 2834 2853 
Q 2591 2978 2328 3040 
Q 2066 3103 1784 3103 
Q 1356 3103 1142 2972 
Q 928 2841 928 2578 
Q 928 2378 1081 2264 
Q 1234 2150 1697 2047 
L 1894 2003 
Q 2506 1872 2764 1633 
Q 3022 1394 3022 966 
Q 3022 478 2636 193 
Q 2250 -91 1575 -91 
Q 1294 -91 989 -36 
Q 684 19 347 128 
L 347 722 
Q 666 556 975 473 
Q 1284 391 1588 391 
Q 1994 391 2212 530 
Q 2431 669 2431 922 
Q 2431 1156 2273 1281 
Q 2116 1406 1581 1522 
L 1381 1569 
Q 847 1681 609 1914 
Q 372 2147 372 2553 
Q 372 3047 722 3315 
Q 1072 3584 1716 3584 
Q 2034 3584 2315 3537 
Q 2597 3491 2834 3397 
z
" transform="scale(0.015625)"/>
      </defs>
      <use xlink:href="#DejaVuSans-4d"/>
      <use xlink:href="#DejaVuSans-65" x="86.279297"/>
      <use xlink:href="#DejaVuSans-61" x="147.802734"/>
      <use xlink:href="#DejaVuSans-73" x="209.082031"/>
      <use xlink:href="#DejaVuSans-75" x="261.181641"/>
      <use xlink:href="#DejaVuSans-72" x="324.560547"/>
      <use xlink:href="#DejaVuSans-65" x="363.423828"/>
      <use xlink:href="#DejaVuSans-6d" x="424.947266"/>
      <use xlink:href="#DejaVuSans-65" x="522.359375"/>
      <use xlink:href="#DejaVuSans-6e" x="583.882812"/>
      <use xlink:href="#DejaVuSans-74" x="647.261719"/>
     </g>
    </g>
   </g>
  </g>
 </g>
 <defs>
  <clipPath id="p5cec37b139">
   <path d="M 646.2 502.2 
C 646.2 428.710185 616.975146 358.155147 565.01 306.19 
C 513.044853 254.224854 442.489815 225 369 225 
C 295.510185 225 224.955147 254.224854 172.99 306.19 
C 121.024854 358.155147 91.8 428.710185 91.8 502.2 
L 369 502.2 
C 369 502.2 369 502.2 369 502.2 
C 369 502.2 369 502.2 369 502.2 
C 369 502.2 369 502.2 369 502.2 
C 369 502.2 369 502.2 369 502.2 
L 646.2 502.2 
z
"/>
  </clipPath>
 </defs>
</svg>
