<?xml version="1.0" encoding="utf-8" standalone="no"?>
<!DOCTYPE svg PUBLIC "-//W3C//DTD SVG 1.1//EN"
  "http://www.w3.org/Graphics/SVG/1.1/DTD/svg11.dtd">
<svg xmlns:xlink="http://www.w3.org/1999/xlink" width="817.553608pt" height="302.4pt" viewBox="0 0 817.553608 302.4" xmlns="http://www.w3.org/2000/svg" version="1.1">
 <metadata>
  <rdf:RDF xmlns:dc="http://purl.org/dc/elements/1.1/" xmlns:cc="http://creativecommons.org/ns#" xmlns:rdf="http://www.w3.org/1999/02/22-rdf-syntax-ns#">
   <cc:Work>
    <dc:type rdf:resource="http://purl.org/dc/dcmitype/StillImage"/>
    <dc:date>2023-10-24T23:01:45.738693</dc:date>
    <dc:format>image/svg+xml</dc:format>
    <dc:creator>
     <cc:Agent>
      <dc:title>Matplotlib v3.5.2, https://matplotlib.org/</dc:title>
     </cc:Agent>
    </dc:creator>
   </cc:Work>
  </rdf:RDF>
 </metadata>
 <defs>
  <style type="text/css">*{stroke-linejoin: round; stroke-linecap: butt}</style>
 </defs>
 <g id="figure_1">
  <g id="patch_1">
   <path d="M 0 302.4 
L 817.553608 302.4 
L 817.553608 0 
L 0 0 
z
" style="fill: #ffffff"/>
  </g>
  <g id="axes_1">
   <g id="patch_2">
    <path d="M 41.782813 233.651747 
L 432.343722 233.651747 
L 432.343722 68.748253 
L 41.782813 68.748253 
z
" style="fill: #ffffff"/>
   </g>
   <g id="matplotlib.axis_1">
    <g id="xtick_1">
     <g id="line2d_1">
      <path d="M 41.782813 233.651747 
L 41.782813 68.748253 
" clip-path="url(#p7a4823b8cc)" style="fill: none; stroke-dasharray: 2.96,1.28; stroke-dashoffset: 0; stroke: #b0b0b0; stroke-width: 0.8"/>
     </g>
     <g id="line2d_2">
      <defs>
       <path id="md900a53174" d="M 0 0 
L 0 3.5 
" style="stroke: #000000; stroke-width: 0.8"/>
      </defs>
      <g>
       <use xlink:href="#md900a53174" x="41.782813" y="233.651747" style="stroke: #000000; stroke-width: 0.8"/>
      </g>
     </g>
     <g id="text_1">
      <!-- 0 -->
      <g transform="translate(38.601563 248.250185)scale(0.1 -0.1)">
       <defs>
        <path id="DejaVuSans-30" d="M 2034 4250 
Q 1547 4250 1301 3770 
Q 1056 3291 1056 2328 
Q 1056 1369 1301 889 
Q 1547 409 2034 409 
Q 2525 409 2770 889 
Q 3016 1369 3016 2328 
Q 3016 3291 2770 3770 
Q 2525 4250 2034 4250 
z
M 2034 4750 
Q 2819 4750 3233 4129 
Q 3647 3509 3647 2328 
Q 3647 1150 3233 529 
Q 2819 -91 2034 -91 
Q 1250 -91 836 529 
Q 422 1150 422 2328 
Q 422 3509 836 4129 
Q 1250 4750 2034 4750 
z
" transform="scale(0.015625)"/>
       </defs>
       <use xlink:href="#DejaVuSans-30"/>
      </g>
     </g>
    </g>
    <g id="xtick_2">
     <g id="line2d_3">
      <path d="M 85.178469 233.651747 
L 85.178469 68.748253 
" clip-path="url(#p7a4823b8cc)" style="fill: none; stroke-dasharray: 2.96,1.28; stroke-dashoffset: 0; stroke: #b0b0b0; stroke-width: 0.8"/>
     </g>
     <g id="line2d_4">
      <g>
       <use xlink:href="#md900a53174" x="85.178469" y="233.651747" style="stroke: #000000; stroke-width: 0.8"/>
      </g>
     </g>
     <g id="text_2">
      <!-- 20 -->
      <g transform="translate(78.815969 248.250185)scale(0.1 -0.1)">
       <defs>
        <path id="DejaVuSans-32" d="M 1228 531 
L 3431 531 
L 3431 0 
L 469 0 
L 469 531 
Q 828 903 1448 1529 
Q 2069 2156 2228 2338 
Q 2531 2678 2651 2914 
Q 2772 3150 2772 3378 
Q 2772 3750 2511 3984 
Q 2250 4219 1831 4219 
Q 1534 4219 1204 4116 
Q 875 4013 500 3803 
L 500 4441 
Q 881 4594 1212 4672 
Q 1544 4750 1819 4750 
Q 2544 4750 2975 4387 
Q 3406 4025 3406 3419 
Q 3406 3131 3298 2873 
Q 3191 2616 2906 2266 
Q 2828 2175 2409 1742 
Q 1991 1309 1228 531 
z
" transform="scale(0.015625)"/>
       </defs>
       <use xlink:href="#DejaVuSans-32"/>
       <use xlink:href="#DejaVuSans-30" x="63.623047"/>
      </g>
     </g>
    </g>
    <g id="xtick_3">
     <g id="line2d_5">
      <path d="M 128.574126 233.651747 
L 128.574126 68.748253 
" clip-path="url(#p7a4823b8cc)" style="fill: none; stroke-dasharray: 2.96,1.28; stroke-dashoffset: 0; stroke: #b0b0b0; stroke-width: 0.8"/>
     </g>
     <g id="line2d_6">
      <g>
       <use xlink:href="#md900a53174" x="128.574126" y="233.651747" style="stroke: #000000; stroke-width: 0.8"/>
      </g>
     </g>
     <g id="text_3">
      <!-- 40 -->
      <g transform="translate(122.211626 248.250185)scale(0.1 -0.1)">
       <defs>
        <path id="DejaVuSans-34" d="M 2419 4116 
L 825 1625 
L 2419 1625 
L 2419 4116 
z
M 2253 4666 
L 3047 4666 
L 3047 1625 
L 3713 1625 
L 3713 1100 
L 3047 1100 
L 3047 0 
L 2419 0 
L 2419 1100 
L 313 1100 
L 313 1709 
L 2253 4666 
z
" transform="scale(0.015625)"/>
       </defs>
       <use xlink:href="#DejaVuSans-34"/>
       <use xlink:href="#DejaVuSans-30" x="63.623047"/>
      </g>
     </g>
    </g>
    <g id="xtick_4">
     <g id="line2d_7">
      <path d="M 171.969782 233.651747 
L 171.969782 68.748253 
" clip-path="url(#p7a4823b8cc)" style="fill: none; stroke-dasharray: 2.96,1.28; stroke-dashoffset: 0; stroke: #b0b0b0; stroke-width: 0.8"/>
     </g>
     <g id="line2d_8">
      <g>
       <use xlink:href="#md900a53174" x="171.969782" y="233.651747" style="stroke: #000000; stroke-width: 0.8"/>
      </g>
     </g>
     <g id="text_4">
      <!-- 60 -->
      <g transform="translate(165.607282 248.250185)scale(0.1 -0.1)">
       <defs>
        <path id="DejaVuSans-36" d="M 2113 2584 
Q 1688 2584 1439 2293 
Q 1191 2003 1191 1497 
Q 1191 994 1439 701 
Q 1688 409 2113 409 
Q 2538 409 2786 701 
Q 3034 994 3034 1497 
Q 3034 2003 2786 2293 
Q 2538 2584 2113 2584 
z
M 3366 4563 
L 3366 3988 
Q 3128 4100 2886 4159 
Q 2644 4219 2406 4219 
Q 1781 4219 1451 3797 
Q 1122 3375 1075 2522 
Q 1259 2794 1537 2939 
Q 1816 3084 2150 3084 
Q 2853 3084 3261 2657 
Q 3669 2231 3669 1497 
Q 3669 778 3244 343 
Q 2819 -91 2113 -91 
Q 1303 -91 875 529 
Q 447 1150 447 2328 
Q 447 3434 972 4092 
Q 1497 4750 2381 4750 
Q 2619 4750 2861 4703 
Q 3103 4656 3366 4563 
z
" transform="scale(0.015625)"/>
       </defs>
       <use xlink:href="#DejaVuSans-36"/>
       <use xlink:href="#DejaVuSans-30" x="63.623047"/>
      </g>
     </g>
    </g>
    <g id="xtick_5">
     <g id="line2d_9">
      <path d="M 215.365439 233.651747 
L 215.365439 68.748253 
" clip-path="url(#p7a4823b8cc)" style="fill: none; stroke-dasharray: 2.96,1.28; stroke-dashoffset: 0; stroke: #b0b0b0; stroke-width: 0.8"/>
     </g>
     <g id="line2d_10">
      <g>
       <use xlink:href="#md900a53174" x="215.365439" y="233.651747" style="stroke: #000000; stroke-width: 0.8"/>
      </g>
     </g>
     <g id="text_5">
      <!-- 80 -->
      <g transform="translate(209.002939 248.250185)scale(0.1 -0.1)">
       <defs>
        <path id="DejaVuSans-38" d="M 2034 2216 
Q 1584 2216 1326 1975 
Q 1069 1734 1069 1313 
Q 1069 891 1326 650 
Q 1584 409 2034 409 
Q 2484 409 2743 651 
Q 3003 894 3003 1313 
Q 3003 1734 2745 1975 
Q 2488 2216 2034 2216 
z
M 1403 2484 
Q 997 2584 770 2862 
Q 544 3141 544 3541 
Q 544 4100 942 4425 
Q 1341 4750 2034 4750 
Q 2731 4750 3128 4425 
Q 3525 4100 3525 3541 
Q 3525 3141 3298 2862 
Q 3072 2584 2669 2484 
Q 3125 2378 3379 2068 
Q 3634 1759 3634 1313 
Q 3634 634 3220 271 
Q 2806 -91 2034 -91 
Q 1263 -91 848 271 
Q 434 634 434 1313 
Q 434 1759 690 2068 
Q 947 2378 1403 2484 
z
M 1172 3481 
Q 1172 3119 1398 2916 
Q 1625 2713 2034 2713 
Q 2441 2713 2670 2916 
Q 2900 3119 2900 3481 
Q 2900 3844 2670 4047 
Q 2441 4250 2034 4250 
Q 1625 4250 1398 4047 
Q 1172 3844 1172 3481 
z
" transform="scale(0.015625)"/>
       </defs>
       <use xlink:href="#DejaVuSans-38"/>
       <use xlink:href="#DejaVuSans-30" x="63.623047"/>
      </g>
     </g>
    </g>
    <g id="xtick_6">
     <g id="line2d_11">
      <path d="M 258.761095 233.651747 
L 258.761095 68.748253 
" clip-path="url(#p7a4823b8cc)" style="fill: none; stroke-dasharray: 2.96,1.28; stroke-dashoffset: 0; stroke: #b0b0b0; stroke-width: 0.8"/>
     </g>
     <g id="line2d_12">
      <g>
       <use xlink:href="#md900a53174" x="258.761095" y="233.651747" style="stroke: #000000; stroke-width: 0.8"/>
      </g>
     </g>
     <g id="text_6">
      <!-- 100 -->
      <g transform="translate(249.217345 248.250185)scale(0.1 -0.1)">
       <defs>
        <path id="DejaVuSans-31" d="M 794 531 
L 1825 531 
L 1825 4091 
L 703 3866 
L 703 4441 
L 1819 4666 
L 2450 4666 
L 2450 531 
L 3481 531 
L 3481 0 
L 794 0 
L 794 531 
z
" transform="scale(0.015625)"/>
       </defs>
       <use xlink:href="#DejaVuSans-31"/>
       <use xlink:href="#DejaVuSans-30" x="63.623047"/>
       <use xlink:href="#DejaVuSans-30" x="127.246094"/>
      </g>
     </g>
    </g>
    <g id="xtick_7">
     <g id="line2d_13">
      <path d="M 302.156752 233.651747 
L 302.156752 68.748253 
" clip-path="url(#p7a4823b8cc)" style="fill: none; stroke-dasharray: 2.96,1.28; stroke-dashoffset: 0; stroke: #b0b0b0; stroke-width: 0.8"/>
     </g>
     <g id="line2d_14">
      <g>
       <use xlink:href="#md900a53174" x="302.156752" y="233.651747" style="stroke: #000000; stroke-width: 0.8"/>
      </g>
     </g>
     <g id="text_7">
      <!-- 120 -->
      <g transform="translate(292.613002 248.250185)scale(0.1 -0.1)">
       <use xlink:href="#DejaVuSans-31"/>
       <use xlink:href="#DejaVuSans-32" x="63.623047"/>
       <use xlink:href="#DejaVuSans-30" x="127.246094"/>
      </g>
     </g>
    </g>
    <g id="xtick_8">
     <g id="line2d_15">
      <path d="M 345.552408 233.651747 
L 345.552408 68.748253 
" clip-path="url(#p7a4823b8cc)" style="fill: none; stroke-dasharray: 2.96,1.28; stroke-dashoffset: 0; stroke: #b0b0b0; stroke-width: 0.8"/>
     </g>
     <g id="line2d_16">
      <g>
       <use xlink:href="#md900a53174" x="345.552408" y="233.651747" style="stroke: #000000; stroke-width: 0.8"/>
      </g>
     </g>
     <g id="text_8">
      <!-- 140 -->
      <g transform="translate(336.008658 248.250185)scale(0.1 -0.1)">
       <use xlink:href="#DejaVuSans-31"/>
       <use xlink:href="#DejaVuSans-34" x="63.623047"/>
       <use xlink:href="#DejaVuSans-30" x="127.246094"/>
      </g>
     </g>
    </g>
    <g id="xtick_9">
     <g id="line2d_17">
      <path d="M 388.948065 233.651747 
L 388.948065 68.748253 
" clip-path="url(#p7a4823b8cc)" style="fill: none; stroke-dasharray: 2.96,1.28; stroke-dashoffset: 0; stroke: #b0b0b0; stroke-width: 0.8"/>
     </g>
     <g id="line2d_18">
      <g>
       <use xlink:href="#md900a53174" x="388.948065" y="233.651747" style="stroke: #000000; stroke-width: 0.8"/>
      </g>
     </g>
     <g id="text_9">
      <!-- 160 -->
      <g transform="translate(379.404315 248.250185)scale(0.1 -0.1)">
       <use xlink:href="#DejaVuSans-31"/>
       <use xlink:href="#DejaVuSans-36" x="63.623047"/>
       <use xlink:href="#DejaVuSans-30" x="127.246094"/>
      </g>
     </g>
    </g>
    <g id="xtick_10">
     <g id="line2d_19">
      <path d="M 432.343722 233.651747 
L 432.343722 68.748253 
" clip-path="url(#p7a4823b8cc)" style="fill: none; stroke-dasharray: 2.96,1.28; stroke-dashoffset: 0; stroke: #b0b0b0; stroke-width: 0.8"/>
     </g>
     <g id="line2d_20">
      <g>
       <use xlink:href="#md900a53174" x="432.343722" y="233.651747" style="stroke: #000000; stroke-width: 0.8"/>
      </g>
     </g>
     <g id="text_10">
      <!-- 180 -->
      <g transform="translate(422.799972 248.250185)scale(0.1 -0.1)">
       <use xlink:href="#DejaVuSans-31"/>
       <use xlink:href="#DejaVuSans-38" x="63.623047"/>
       <use xlink:href="#DejaVuSans-30" x="127.246094"/>
      </g>
     </g>
    </g>
    <g id="text_11">
     <!-- Angle [deg] -->
     <g transform="translate(207.918736 261.92831)scale(0.1 -0.1)">
      <defs>
       <path id="DejaVuSans-41" d="M 2188 4044 
L 1331 1722 
L 3047 1722 
L 2188 4044 
z
M 1831 4666 
L 2547 4666 
L 4325 0 
L 3669 0 
L 3244 1197 
L 1141 1197 
L 716 0 
L 50 0 
L 1831 4666 
z
" transform="scale(0.015625)"/>
       <path id="DejaVuSans-6e" d="M 3513 2113 
L 3513 0 
L 2938 0 
L 2938 2094 
Q 2938 2591 2744 2837 
Q 2550 3084 2163 3084 
Q 1697 3084 1428 2787 
Q 1159 2491 1159 1978 
L 1159 0 
L 581 0 
L 581 3500 
L 1159 3500 
L 1159 2956 
Q 1366 3272 1645 3428 
Q 1925 3584 2291 3584 
Q 2894 3584 3203 3211 
Q 3513 2838 3513 2113 
z
" transform="scale(0.015625)"/>
       <path id="DejaVuSans-67" d="M 2906 1791 
Q 2906 2416 2648 2759 
Q 2391 3103 1925 3103 
Q 1463 3103 1205 2759 
Q 947 2416 947 1791 
Q 947 1169 1205 825 
Q 1463 481 1925 481 
Q 2391 481 2648 825 
Q 2906 1169 2906 1791 
z
M 3481 434 
Q 3481 -459 3084 -895 
Q 2688 -1331 1869 -1331 
Q 1566 -1331 1297 -1286 
Q 1028 -1241 775 -1147 
L 775 -588 
Q 1028 -725 1275 -790 
Q 1522 -856 1778 -856 
Q 2344 -856 2625 -561 
Q 2906 -266 2906 331 
L 2906 616 
Q 2728 306 2450 153 
Q 2172 0 1784 0 
Q 1141 0 747 490 
Q 353 981 353 1791 
Q 353 2603 747 3093 
Q 1141 3584 1784 3584 
Q 2172 3584 2450 3431 
Q 2728 3278 2906 2969 
L 2906 3500 
L 3481 3500 
L 3481 434 
z
" transform="scale(0.015625)"/>
       <path id="DejaVuSans-6c" d="M 603 4863 
L 1178 4863 
L 1178 0 
L 603 0 
L 603 4863 
z
" transform="scale(0.015625)"/>
       <path id="DejaVuSans-65" d="M 3597 1894 
L 3597 1613 
L 953 1613 
Q 991 1019 1311 708 
Q 1631 397 2203 397 
Q 2534 397 2845 478 
Q 3156 559 3463 722 
L 3463 178 
Q 3153 47 2828 -22 
Q 2503 -91 2169 -91 
Q 1331 -91 842 396 
Q 353 884 353 1716 
Q 353 2575 817 3079 
Q 1281 3584 2069 3584 
Q 2775 3584 3186 3129 
Q 3597 2675 3597 1894 
z
M 3022 2063 
Q 3016 2534 2758 2815 
Q 2500 3097 2075 3097 
Q 1594 3097 1305 2825 
Q 1016 2553 972 2059 
L 3022 2063 
z
" transform="scale(0.015625)"/>
       <path id="DejaVuSans-20" transform="scale(0.015625)"/>
       <path id="DejaVuSans-5b" d="M 550 4863 
L 1875 4863 
L 1875 4416 
L 1125 4416 
L 1125 -397 
L 1875 -397 
L 1875 -844 
L 550 -844 
L 550 4863 
z
" transform="scale(0.015625)"/>
       <path id="DejaVuSans-64" d="M 2906 2969 
L 2906 4863 
L 3481 4863 
L 3481 0 
L 2906 0 
L 2906 525 
Q 2725 213 2448 61 
Q 2172 -91 1784 -91 
Q 1150 -91 751 415 
Q 353 922 353 1747 
Q 353 2572 751 3078 
Q 1150 3584 1784 3584 
Q 2172 3584 2448 3432 
Q 2725 3281 2906 2969 
z
M 947 1747 
Q 947 1113 1208 752 
Q 1469 391 1925 391 
Q 2381 391 2643 752 
Q 2906 1113 2906 1747 
Q 2906 2381 2643 2742 
Q 2381 3103 1925 3103 
Q 1469 3103 1208 2742 
Q 947 2381 947 1747 
z
" transform="scale(0.015625)"/>
       <path id="DejaVuSans-5d" d="M 1947 4863 
L 1947 -844 
L 622 -844 
L 622 -397 
L 1369 -397 
L 1369 4416 
L 622 4416 
L 622 4863 
L 1947 4863 
z
" transform="scale(0.015625)"/>
      </defs>
      <use xlink:href="#DejaVuSans-41"/>
      <use xlink:href="#DejaVuSans-6e" x="68.408203"/>
      <use xlink:href="#DejaVuSans-67" x="131.787109"/>
      <use xlink:href="#DejaVuSans-6c" x="195.263672"/>
      <use xlink:href="#DejaVuSans-65" x="223.046875"/>
      <use xlink:href="#DejaVuSans-20" x="284.570312"/>
      <use xlink:href="#DejaVuSans-5b" x="316.357422"/>
      <use xlink:href="#DejaVuSans-64" x="355.371094"/>
      <use xlink:href="#DejaVuSans-65" x="418.847656"/>
      <use xlink:href="#DejaVuSans-67" x="480.371094"/>
      <use xlink:href="#DejaVuSans-5d" x="543.847656"/>
     </g>
    </g>
   </g>
   <g id="matplotlib.axis_2">
    <g id="ytick_1">
     <g id="line2d_21">
      <path d="M 41.782813 233.651747 
L 432.343722 233.651747 
" clip-path="url(#p7a4823b8cc)" style="fill: none; stroke-dasharray: 2.96,1.28; stroke-dashoffset: 0; stroke: #b0b0b0; stroke-width: 0.8"/>
     </g>
     <g id="line2d_22">
      <defs>
       <path id="m904dd643ba" d="M 0 0 
L -3.5 0 
" style="stroke: #000000; stroke-width: 0.8"/>
      </defs>
      <g>
       <use xlink:href="#m904dd643ba" x="41.782813" y="233.651747" style="stroke: #000000; stroke-width: 0.8"/>
      </g>
     </g>
     <g id="text_12">
      <!-- −80 -->
      <g transform="translate(13.678125 237.450966)scale(0.1 -0.1)">
       <defs>
        <path id="DejaVuSans-2212" d="M 678 2272 
L 4684 2272 
L 4684 1741 
L 678 1741 
L 678 2272 
z
" transform="scale(0.015625)"/>
       </defs>
       <use xlink:href="#DejaVuSans-2212"/>
       <use xlink:href="#DejaVuSans-38" x="83.789062"/>
       <use xlink:href="#DejaVuSans-30" x="147.412109"/>
      </g>
     </g>
    </g>
    <g id="ytick_2">
     <g id="line2d_23">
      <path d="M 41.782813 213.038811 
L 432.343722 213.038811 
" clip-path="url(#p7a4823b8cc)" style="fill: none; stroke-dasharray: 2.96,1.28; stroke-dashoffset: 0; stroke: #b0b0b0; stroke-width: 0.8"/>
     </g>
     <g id="line2d_24">
      <g>
       <use xlink:href="#m904dd643ba" x="41.782813" y="213.038811" style="stroke: #000000; stroke-width: 0.8"/>
      </g>
     </g>
     <g id="text_13">
      <!-- −70 -->
      <g transform="translate(13.678125 216.838029)scale(0.1 -0.1)">
       <defs>
        <path id="DejaVuSans-37" d="M 525 4666 
L 3525 4666 
L 3525 4397 
L 1831 0 
L 1172 0 
L 2766 4134 
L 525 4134 
L 525 4666 
z
" transform="scale(0.015625)"/>
       </defs>
       <use xlink:href="#DejaVuSans-2212"/>
       <use xlink:href="#DejaVuSans-37" x="83.789062"/>
       <use xlink:href="#DejaVuSans-30" x="147.412109"/>
      </g>
     </g>
    </g>
    <g id="ytick_3">
     <g id="line2d_25">
      <path d="M 41.782813 192.425874 
L 432.343722 192.425874 
" clip-path="url(#p7a4823b8cc)" style="fill: none; stroke-dasharray: 2.96,1.28; stroke-dashoffset: 0; stroke: #b0b0b0; stroke-width: 0.8"/>
     </g>
     <g id="line2d_26">
      <g>
       <use xlink:href="#m904dd643ba" x="41.782813" y="192.425874" style="stroke: #000000; stroke-width: 0.8"/>
      </g>
     </g>
     <g id="text_14">
      <!-- −60 -->
      <g transform="translate(13.678125 196.225092)scale(0.1 -0.1)">
       <use xlink:href="#DejaVuSans-2212"/>
       <use xlink:href="#DejaVuSans-36" x="83.789062"/>
       <use xlink:href="#DejaVuSans-30" x="147.412109"/>
      </g>
     </g>
    </g>
    <g id="ytick_4">
     <g id="line2d_27">
      <path d="M 41.782813 171.812937 
L 432.343722 171.812937 
" clip-path="url(#p7a4823b8cc)" style="fill: none; stroke-dasharray: 2.96,1.28; stroke-dashoffset: 0; stroke: #b0b0b0; stroke-width: 0.8"/>
     </g>
     <g id="line2d_28">
      <g>
       <use xlink:href="#m904dd643ba" x="41.782813" y="171.812937" style="stroke: #000000; stroke-width: 0.8"/>
      </g>
     </g>
     <g id="text_15">
      <!-- −50 -->
      <g transform="translate(13.678125 175.612156)scale(0.1 -0.1)">
       <defs>
        <path id="DejaVuSans-35" d="M 691 4666 
L 3169 4666 
L 3169 4134 
L 1269 4134 
L 1269 2991 
Q 1406 3038 1543 3061 
Q 1681 3084 1819 3084 
Q 2600 3084 3056 2656 
Q 3513 2228 3513 1497 
Q 3513 744 3044 326 
Q 2575 -91 1722 -91 
Q 1428 -91 1123 -41 
Q 819 9 494 109 
L 494 744 
Q 775 591 1075 516 
Q 1375 441 1709 441 
Q 2250 441 2565 725 
Q 2881 1009 2881 1497 
Q 2881 1984 2565 2268 
Q 2250 2553 1709 2553 
Q 1456 2553 1204 2497 
Q 953 2441 691 2322 
L 691 4666 
z
" transform="scale(0.015625)"/>
       </defs>
       <use xlink:href="#DejaVuSans-2212"/>
       <use xlink:href="#DejaVuSans-35" x="83.789062"/>
       <use xlink:href="#DejaVuSans-30" x="147.412109"/>
      </g>
     </g>
    </g>
    <g id="ytick_5">
     <g id="line2d_29">
      <path d="M 41.782813 151.2 
L 432.343722 151.2 
" clip-path="url(#p7a4823b8cc)" style="fill: none; stroke-dasharray: 2.96,1.28; stroke-dashoffset: 0; stroke: #b0b0b0; stroke-width: 0.8"/>
     </g>
     <g id="line2d_30">
      <g>
       <use xlink:href="#m904dd643ba" x="41.782813" y="151.2" style="stroke: #000000; stroke-width: 0.8"/>
      </g>
     </g>
     <g id="text_16">
      <!-- −40 -->
      <g transform="translate(13.678125 154.999219)scale(0.1 -0.1)">
       <use xlink:href="#DejaVuSans-2212"/>
       <use xlink:href="#DejaVuSans-34" x="83.789062"/>
       <use xlink:href="#DejaVuSans-30" x="147.412109"/>
      </g>
     </g>
    </g>
    <g id="ytick_6">
     <g id="line2d_31">
      <path d="M 41.782813 130.587063 
L 432.343722 130.587063 
" clip-path="url(#p7a4823b8cc)" style="fill: none; stroke-dasharray: 2.96,1.28; stroke-dashoffset: 0; stroke: #b0b0b0; stroke-width: 0.8"/>
     </g>
     <g id="line2d_32">
      <g>
       <use xlink:href="#m904dd643ba" x="41.782813" y="130.587063" style="stroke: #000000; stroke-width: 0.8"/>
      </g>
     </g>
     <g id="text_17">
      <!-- −30 -->
      <g transform="translate(13.678125 134.386282)scale(0.1 -0.1)">
       <defs>
        <path id="DejaVuSans-33" d="M 2597 2516 
Q 3050 2419 3304 2112 
Q 3559 1806 3559 1356 
Q 3559 666 3084 287 
Q 2609 -91 1734 -91 
Q 1441 -91 1130 -33 
Q 819 25 488 141 
L 488 750 
Q 750 597 1062 519 
Q 1375 441 1716 441 
Q 2309 441 2620 675 
Q 2931 909 2931 1356 
Q 2931 1769 2642 2001 
Q 2353 2234 1838 2234 
L 1294 2234 
L 1294 2753 
L 1863 2753 
Q 2328 2753 2575 2939 
Q 2822 3125 2822 3475 
Q 2822 3834 2567 4026 
Q 2313 4219 1838 4219 
Q 1578 4219 1281 4162 
Q 984 4106 628 3988 
L 628 4550 
Q 988 4650 1302 4700 
Q 1616 4750 1894 4750 
Q 2613 4750 3031 4423 
Q 3450 4097 3450 3541 
Q 3450 3153 3228 2886 
Q 3006 2619 2597 2516 
z
" transform="scale(0.015625)"/>
       </defs>
       <use xlink:href="#DejaVuSans-2212"/>
       <use xlink:href="#DejaVuSans-33" x="83.789062"/>
       <use xlink:href="#DejaVuSans-30" x="147.412109"/>
      </g>
     </g>
    </g>
    <g id="ytick_7">
     <g id="line2d_33">
      <path d="M 41.782813 109.974126 
L 432.343722 109.974126 
" clip-path="url(#p7a4823b8cc)" style="fill: none; stroke-dasharray: 2.96,1.28; stroke-dashoffset: 0; stroke: #b0b0b0; stroke-width: 0.8"/>
     </g>
     <g id="line2d_34">
      <g>
       <use xlink:href="#m904dd643ba" x="41.782813" y="109.974126" style="stroke: #000000; stroke-width: 0.8"/>
      </g>
     </g>
     <g id="text_18">
      <!-- −20 -->
      <g transform="translate(13.678125 113.773345)scale(0.1 -0.1)">
       <use xlink:href="#DejaVuSans-2212"/>
       <use xlink:href="#DejaVuSans-32" x="83.789062"/>
       <use xlink:href="#DejaVuSans-30" x="147.412109"/>
      </g>
     </g>
    </g>
    <g id="ytick_8">
     <g id="line2d_35">
      <path d="M 41.782813 89.361189 
L 432.343722 89.361189 
" clip-path="url(#p7a4823b8cc)" style="fill: none; stroke-dasharray: 2.96,1.28; stroke-dashoffset: 0; stroke: #b0b0b0; stroke-width: 0.8"/>
     </g>
     <g id="line2d_36">
      <g>
       <use xlink:href="#m904dd643ba" x="41.782813" y="89.361189" style="stroke: #000000; stroke-width: 0.8"/>
      </g>
     </g>
     <g id="text_19">
      <!-- −10 -->
      <g transform="translate(13.678125 93.160408)scale(0.1 -0.1)">
       <use xlink:href="#DejaVuSans-2212"/>
       <use xlink:href="#DejaVuSans-31" x="83.789062"/>
       <use xlink:href="#DejaVuSans-30" x="147.412109"/>
      </g>
     </g>
    </g>
    <g id="ytick_9">
     <g id="line2d_37">
      <path d="M 41.782813 68.748253 
L 432.343722 68.748253 
" clip-path="url(#p7a4823b8cc)" style="fill: none; stroke-dasharray: 2.96,1.28; stroke-dashoffset: 0; stroke: #b0b0b0; stroke-width: 0.8"/>
     </g>
     <g id="line2d_38">
      <g>
       <use xlink:href="#m904dd643ba" x="41.782813" y="68.748253" style="stroke: #000000; stroke-width: 0.8"/>
      </g>
     </g>
     <g id="text_20">
      <!-- 0 -->
      <g transform="translate(28.420313 72.547471)scale(0.1 -0.1)">
       <use xlink:href="#DejaVuSans-30"/>
      </g>
     </g>
    </g>
    <g id="text_21">
     <!-- Amplitude [dB] -->
     <g transform="translate(7.598438 188.917969)rotate(-90)scale(0.1 -0.1)">
      <defs>
       <path id="DejaVuSans-6d" d="M 3328 2828 
Q 3544 3216 3844 3400 
Q 4144 3584 4550 3584 
Q 5097 3584 5394 3201 
Q 5691 2819 5691 2113 
L 5691 0 
L 5113 0 
L 5113 2094 
Q 5113 2597 4934 2840 
Q 4756 3084 4391 3084 
Q 3944 3084 3684 2787 
Q 3425 2491 3425 1978 
L 3425 0 
L 2847 0 
L 2847 2094 
Q 2847 2600 2669 2842 
Q 2491 3084 2119 3084 
Q 1678 3084 1418 2786 
Q 1159 2488 1159 1978 
L 1159 0 
L 581 0 
L 581 3500 
L 1159 3500 
L 1159 2956 
Q 1356 3278 1631 3431 
Q 1906 3584 2284 3584 
Q 2666 3584 2933 3390 
Q 3200 3197 3328 2828 
z
" transform="scale(0.015625)"/>
       <path id="DejaVuSans-70" d="M 1159 525 
L 1159 -1331 
L 581 -1331 
L 581 3500 
L 1159 3500 
L 1159 2969 
Q 1341 3281 1617 3432 
Q 1894 3584 2278 3584 
Q 2916 3584 3314 3078 
Q 3713 2572 3713 1747 
Q 3713 922 3314 415 
Q 2916 -91 2278 -91 
Q 1894 -91 1617 61 
Q 1341 213 1159 525 
z
M 3116 1747 
Q 3116 2381 2855 2742 
Q 2594 3103 2138 3103 
Q 1681 3103 1420 2742 
Q 1159 2381 1159 1747 
Q 1159 1113 1420 752 
Q 1681 391 2138 391 
Q 2594 391 2855 752 
Q 3116 1113 3116 1747 
z
" transform="scale(0.015625)"/>
       <path id="DejaVuSans-69" d="M 603 3500 
L 1178 3500 
L 1178 0 
L 603 0 
L 603 3500 
z
M 603 4863 
L 1178 4863 
L 1178 4134 
L 603 4134 
L 603 4863 
z
" transform="scale(0.015625)"/>
       <path id="DejaVuSans-74" d="M 1172 4494 
L 1172 3500 
L 2356 3500 
L 2356 3053 
L 1172 3053 
L 1172 1153 
Q 1172 725 1289 603 
Q 1406 481 1766 481 
L 2356 481 
L 2356 0 
L 1766 0 
Q 1100 0 847 248 
Q 594 497 594 1153 
L 594 3053 
L 172 3053 
L 172 3500 
L 594 3500 
L 594 4494 
L 1172 4494 
z
" transform="scale(0.015625)"/>
       <path id="DejaVuSans-75" d="M 544 1381 
L 544 3500 
L 1119 3500 
L 1119 1403 
Q 1119 906 1312 657 
Q 1506 409 1894 409 
Q 2359 409 2629 706 
Q 2900 1003 2900 1516 
L 2900 3500 
L 3475 3500 
L 3475 0 
L 2900 0 
L 2900 538 
Q 2691 219 2414 64 
Q 2138 -91 1772 -91 
Q 1169 -91 856 284 
Q 544 659 544 1381 
z
M 1991 3584 
L 1991 3584 
z
" transform="scale(0.015625)"/>
       <path id="DejaVuSans-42" d="M 1259 2228 
L 1259 519 
L 2272 519 
Q 2781 519 3026 730 
Q 3272 941 3272 1375 
Q 3272 1813 3026 2020 
Q 2781 2228 2272 2228 
L 1259 2228 
z
M 1259 4147 
L 1259 2741 
L 2194 2741 
Q 2656 2741 2882 2914 
Q 3109 3088 3109 3444 
Q 3109 3797 2882 3972 
Q 2656 4147 2194 4147 
L 1259 4147 
z
M 628 4666 
L 2241 4666 
Q 2963 4666 3353 4366 
Q 3744 4066 3744 3513 
Q 3744 3084 3544 2831 
Q 3344 2578 2956 2516 
Q 3422 2416 3680 2098 
Q 3938 1781 3938 1306 
Q 3938 681 3513 340 
Q 3088 0 2303 0 
L 628 0 
L 628 4666 
z
" transform="scale(0.015625)"/>
      </defs>
      <use xlink:href="#DejaVuSans-41"/>
      <use xlink:href="#DejaVuSans-6d" x="68.408203"/>
      <use xlink:href="#DejaVuSans-70" x="165.820312"/>
      <use xlink:href="#DejaVuSans-6c" x="229.296875"/>
      <use xlink:href="#DejaVuSans-69" x="257.080078"/>
      <use xlink:href="#DejaVuSans-74" x="284.863281"/>
      <use xlink:href="#DejaVuSans-75" x="324.072266"/>
      <use xlink:href="#DejaVuSans-64" x="387.451172"/>
      <use xlink:href="#DejaVuSans-65" x="450.927734"/>
      <use xlink:href="#DejaVuSans-20" x="512.451172"/>
      <use xlink:href="#DejaVuSans-5b" x="544.238281"/>
      <use xlink:href="#DejaVuSans-64" x="583.251953"/>
      <use xlink:href="#DejaVuSans-42" x="646.728516"/>
      <use xlink:href="#DejaVuSans-5d" x="715.332031"/>
     </g>
    </g>
   </g>
   <g id="line2d_39">
    <path d="M 41.782813 95.946282 
L 42.217252 93.689775 
L 53.078234 93.689775 
L 53.512673 96.464532 
L 63.070337 96.464532 
L 63.504776 95.197017 
L 67.849169 95.197017 
L 68.283608 93.233938 
L 70.890244 93.233938 
L 71.324683 93.872197 
L 74.800197 93.872197 
L 75.234637 96.570402 
L 76.972394 96.570402 
L 77.406833 98.501243 
L 78.710151 98.501243 
L 79.14459 96.609513 
L 87.398936 96.609513 
L 87.833376 94.627767 
L 94.349965 94.627767 
L 94.784404 93.664207 
L 95.653283 93.664207 
L 96.087722 95.265164 
L 96.956601 95.265164 
L 97.39104 98.276454 
L 99.128797 98.276454 
L 99.563236 98.830153 
L 100.866554 98.830153 
L 101.300993 98.299373 
L 105.210947 98.314359 
L 105.645386 101.490863 
L 109.1209 101.581667 
L 109.55534 101.3503 
L 111.727536 101.3503 
L 112.161975 102.09932 
L 113.030854 102.09932 
L 113.465293 105.963615 
L 115.20305 105.963615 
L 115.637489 106.444801 
L 116.940807 106.444801 
L 117.375247 108.825908 
L 118.244125 108.825908 
L 118.678564 107.874387 
L 119.547443 107.874387 
L 119.981882 110.110063 
L 120.850761 110.110063 
L 121.2852 116.34798 
L 121.719639 116.34798 
L 122.154079 128.86021 
L 126.064032 128.86021 
L 126.498471 117.732747 
L 130.408425 117.732747 
L 130.842864 127.867874 
L 131.277303 127.867874 
L 131.711743 120.246561 
L 132.146182 120.246561 
L 132.580621 111.523167 
L 133.4495 111.523167 
L 133.883939 107.310331 
L 134.318378 107.310331 
L 134.752818 106.54405 
L 136.056135 106.54405 
L 136.490575 103.328644 
L 137.793892 103.328644 
L 138.228332 99.513726 
L 138.662771 99.513726 
L 139.09721 97.971502 
L 140.400528 97.971502 
L 140.834967 95.739755 
L 142.572725 95.739755 
L 143.441603 91.929287 
L 144.744921 91.929287 
L 145.17936 90.383624 
L 146.048239 90.383624 
L 146.482678 88.821977 
L 146.917117 88.821977 
L 147.351557 88.262816 
L 148.220435 88.262816 
L 148.654874 86.785879 
L 149.089314 86.785879 
L 149.523753 85.118234 
L 149.958192 85.118234 
L 150.392631 83.789866 
L 153.433706 83.789866 
L 153.868146 82.371087 
L 156.909221 82.371087 
L 157.778099 79.927742 
L 158.212538 79.927742 
L 158.646978 79.187113 
L 159.515856 79.187113 
L 159.950296 78.990621 
L 160.384735 78.990621 
L 160.819174 77.895461 
L 161.253613 77.895461 
L 161.688053 77.300346 
L 162.99137 77.300346 
L 163.42581 76.735028 
L 163.860249 75.769055 
L 165.163567 75.769055 
L 165.598006 75.302277 
L 166.901324 75.302277 
L 167.335763 74.430961 
L 167.770203 74.430961 
L 168.204642 74.017442 
L 169.07352 74.017442 
L 169.50796 73.633759 
L 169.942399 73.633759 
L 170.376838 72.876441 
L 172.114595 72.823902 
L 172.549035 72.519243 
L 172.983474 72.519243 
L 173.852352 71.365829 
L 176.458988 71.365829 
L 176.893427 70.903032 
L 179.500063 70.903032 
L 180.368942 70.102802 
L 180.803381 70.102802 
L 181.23782 69.943672 
L 182.541138 69.952572 
L 182.975577 69.575725 
L 185.147774 69.482305 
L 185.582213 69.398217 
L 186.016652 69.114333 
L 188.623288 69.032668 
L 189.057727 68.83977 
L 197.312073 68.83977 
L 197.746513 69.032668 
L 200.353148 69.032668 
L 201.222027 69.354227 
L 201.656466 69.354227 
L 202.090905 69.482305 
L 203.394223 69.587209 
L 203.828662 69.854163 
L 204.263102 69.854163 
L 204.697541 70.137338 
L 205.56642 70.137338 
L 206.000859 70.340633 
L 206.435298 70.707302 
L 207.738616 70.707302 
L 208.173055 70.903032 
L 209.041934 70.903032 
L 209.476373 71.365829 
L 209.910812 71.633102 
L 210.779691 71.633102 
L 211.21413 72.076615 
L 211.648569 72.076615 
L 212.083009 72.650672 
L 212.517448 72.650672 
L 212.951887 72.823902 
L 213.386327 72.823902 
L 213.820766 73.18475 
L 214.255205 73.18475 
L 215.124084 74.430961 
L 217.29628 74.430961 
L 217.730719 75.302277 
L 220.337355 75.302277 
L 221.206233 76.985444 
L 221.640673 77.567726 
L 222.509551 77.567726 
L 222.943991 77.843652 
L 223.37843 78.91485 
L 223.812869 78.91485 
L 224.247308 79.779983 
L 225.116187 79.779983 
L 225.550626 80.53063 
L 225.985066 80.53063 
L 226.419505 81.804284 
L 227.288383 81.804284 
L 227.722823 82.371087 
L 228.591701 82.371087 
L 229.02614 83.789866 
L 229.46058 84.821351 
L 230.329458 84.821351 
L 230.763898 86.021974 
L 231.198337 86.021974 
L 231.632776 87.754084 
L 232.067215 87.754084 
L 232.501655 88.262816 
L 232.936094 88.262816 
L 233.370533 89.613819 
L 233.804972 89.613819 
L 234.673851 94.050629 
L 239.452683 94.050629 
L 239.887122 95.739755 
L 240.321562 98.563484 
L 240.756001 98.563484 
L 241.19044 102.28046 
L 241.624879 102.28046 
L 242.059319 104.365586 
L 242.493758 104.365586 
L 242.928197 106.063828 
L 243.362637 106.063828 
L 243.797076 110.497259 
L 244.665954 110.497259 
L 245.100394 118.608008 
L 245.534833 115.95104 
L 246.403711 115.95104 
L 246.838151 127.867874 
L 247.707029 127.867874 
L 248.141469 117.732747 
L 248.575908 117.732747 
L 249.010347 118.180625 
L 249.879226 118.180625 
L 250.313665 118.337978 
L 250.748104 118.337978 
L 251.182544 111.308532 
L 251.616983 113.876863 
L 252.485861 113.876863 
L 253.35474 103.337933 
L 253.789179 101.404223 
L 256.395815 101.404223 
L 256.830254 102.09932 
L 259.00245 102.09932 
L 259.43689 101.3503 
L 259.871329 98.018508 
L 260.305768 98.018508 
L 260.740208 95.314634 
L 261.174647 95.314634 
L 261.609086 95.102211 
L 262.043525 95.102211 
L 262.477965 95.294591 
L 264.215722 95.28153 
L 264.650161 92.694242 
L 265.0846 93.256637 
L 265.953479 93.256637 
L 266.387918 93.664207 
L 267.691236 93.664207 
L 268.125675 94.627767 
L 268.560115 92.119518 
L 269.428993 92.119518 
L 269.863432 92.631772 
L 270.297872 92.631772 
L 270.732311 93.88291 
L 271.16675 93.88291 
L 271.601189 93.246184 
L 272.035629 93.246184 
L 272.470068 90.928357 
L 272.904507 90.928357 
L 273.338947 90.217409 
L 273.773386 91.639769 
L 276.380022 91.639769 
L 276.814461 93.689775 
L 278.986657 93.689775 
L 279.421096 95.946282 
L 279.855536 95.125816 
L 280.289975 95.125816 
L 280.724414 92.540977 
L 281.158854 92.540977 
L 281.593293 91.919278 
L 282.027732 91.919278 
L 282.462171 94.181138 
L 282.896611 94.181138 
L 283.33105 96.229695 
L 284.199928 96.229695 
L 284.634368 93.623157 
L 285.068807 93.623157 
L 285.503246 96.258231 
L 286.372125 96.258231 
L 286.806564 97.851651 
L 288.109882 97.851651 
L 288.544321 101.377406 
L 288.978761 98.016097 
L 289.847639 98.016097 
L 290.282078 101.533665 
L 291.150957 101.533665 
L 291.585396 106.029856 
L 292.019835 103.776916 
L 292.888714 103.776916 
L 293.323153 100.540656 
L 293.757593 100.540656 
L 294.192032 101.891144 
L 294.626471 106.466556 
L 297.233107 106.466556 
L 297.667546 111.819147 
L 300.274182 111.819147 
L 300.708621 120.217526 
L 301.14306 123.083311 
L 301.5775 123.083311 
L 302.011939 113.152782 
L 302.880817 113.152782 
L 303.315257 112.483119 
L 303.749696 112.483119 
L 304.184135 120.201358 
L 304.618574 120.201358 
L 305.053014 173.338434 
L 305.921892 173.338434 
L 306.356332 127.416555 
L 306.790771 127.416555 
L 307.22521 174.44881 
L 308.528528 174.44881 
L 308.962967 129.45964 
L 310.266285 129.45964 
L 310.700724 124.535773 
L 311.135164 129.327445 
L 312.438481 129.327445 
L 312.872921 112.883133 
L 313.30736 112.883133 
L 313.741799 110.706564 
L 314.176239 110.706564 
L 314.610678 114.108344 
L 315.479556 114.108344 
L 315.913996 119.872517 
L 316.348435 119.872517 
L 316.782874 111.420572 
L 317.217313 109.920527 
L 320.258388 109.920527 
L 320.692828 107.833982 
L 323.733903 107.833982 
L 324.168342 108.037388 
L 324.602781 108.037388 
L 325.03722 103.180632 
L 325.47166 103.180632 
L 325.906099 104.149731 
L 326.774978 104.149731 
L 327.209417 108.449302 
L 327.643856 108.449302 
L 328.078295 109.299325 
L 328.947174 109.299325 
L 329.381613 100.284727 
L 330.684931 100.284727 
L 331.11937 101.238571 
L 331.55381 102.470315 
L 333.291567 102.470315 
L 333.726006 100.426545 
L 335.029324 100.426545 
L 335.463763 102.058338 
L 335.898202 102.058338 
L 336.332642 102.558251 
L 337.635959 102.558251 
L 338.070399 96.34354 
L 339.373717 96.34354 
L 339.808156 98.096487 
L 340.242595 98.096487 
L 340.677034 100.490787 
L 341.545913 100.490787 
L 341.980352 100.798185 
L 342.414791 100.798185 
L 342.849231 97.593391 
L 343.28367 97.593391 
L 343.718109 99.853397 
L 347.628063 99.853397 
L 348.062502 102.230428 
L 351.972456 102.230428 
L 352.406895 106.235705 
L 352.841334 106.235705 
L 353.275773 102.167063 
L 354.144652 102.167063 
L 354.579091 101.664476 
L 355.44797 101.664476 
L 355.882409 105.5058 
L 356.751288 105.5058 
L 357.185727 110.835861 
L 358.489045 110.835861 
L 358.923484 101.602893 
L 360.661241 101.602893 
L 361.09568 101.034468 
L 361.964559 101.034468 
L 362.398998 105.293755 
L 364.571195 105.293755 
L 365.005634 106.93133 
L 367.17783 106.93133 
L 367.612269 113.332176 
L 368.481148 113.332176 
L 368.915587 109.634984 
L 371.087784 109.634984 
L 371.522223 103.417043 
L 372.825541 103.417043 
L 373.25998 108.4485 
L 374.563298 108.4485 
L 374.997737 114.578071 
L 376.735494 114.578071 
L 377.169934 110.471793 
L 378.038812 110.471793 
L 378.473251 108.743682 
L 379.34213 108.743682 
L 379.776569 115.53808 
L 386.293158 115.53808 
L 386.727598 127.144311 
L 394.981944 127.144311 
L 395.416383 132.006145 
L 396.719701 132.006145 
L 397.15414 145.137945 
L 398.891897 145.137945 
L 399.326337 126.01128 
L 402.801851 126.01128 
L 403.23629 150.690646 
L 405.842926 150.690646 
L 406.277365 125.028734 
L 410.621758 125.028734 
L 411.056197 140.463138 
L 420.613861 140.463138 
L 421.0483 130.056187 
L 431.909282 130.056187 
L 432.343722 127.415712 
L 432.343722 127.415712 
" clip-path="url(#p7a4823b8cc)" style="fill: none; stroke: #1f77b4; stroke-width: 1.5; stroke-linecap: square"/>
   </g>
   <g id="patch_3">
    <path d="M 41.782813 233.651747 
L 41.782813 68.748253 
" style="fill: none; stroke: #000000; stroke-width: 0.8; stroke-linejoin: miter; stroke-linecap: square"/>
   </g>
   <g id="patch_4">
    <path d="M 432.343722 233.651747 
L 432.343722 68.748253 
" style="fill: none; stroke: #000000; stroke-width: 0.8; stroke-linejoin: miter; stroke-linecap: square"/>
   </g>
   <g id="patch_5">
    <path d="M 41.782813 233.651747 
L 432.343722 233.651747 
" style="fill: none; stroke: #000000; stroke-width: 0.8; stroke-linejoin: miter; stroke-linecap: square"/>
   </g>
   <g id="patch_6">
    <path d="M 41.782813 68.748253 
L 432.343722 68.748253 
" style="fill: none; stroke: #000000; stroke-width: 0.8; stroke-linejoin: miter; stroke-linecap: square"/>
   </g>
  </g>
  <g id="axes_2">
   <g id="patch_7">
    <path d="M 797.872358 226.8 
C 797.872358 186.714646 781.931529 148.23008 753.586903 119.885455 
C 725.242278 91.540829 686.757712 75.6 646.672358 75.6 
C 606.587004 75.6 568.102438 91.540829 539.757813 119.885455 
C 511.413187 148.23008 495.472358 186.714646 495.472358 226.8 
L 646.672358 226.8 
C 646.672358 226.8 646.672358 226.8 646.672358 226.8 
C 646.672358 226.8 646.672358 226.8 646.672358 226.8 
C 646.672358 226.8 646.672358 226.8 646.672358 226.8 
C 646.672358 226.8 646.672358 226.8 646.672358 226.8 
L 797.872358 226.8 
z
" style="fill: #ffffff"/>
   </g>
   <g id="matplotlib.axis_3">
    <g id="xtick_11">
     <g id="line2d_40">
      <path d="M 646.672358 226.8 
L 797.872358 226.8 
" clip-path="url(#p112ca83ec9)" style="fill: none; stroke-dasharray: 2.96,1.28; stroke-dashoffset: 0; stroke: #b0b0b0; stroke-width: 0.8"/>
     </g>
     <g id="text_22">
      <!-- 0° -->
      <g transform="translate(806.191108 229.559375)scale(0.1 -0.1)">
       <defs>
        <path id="DejaVuSans-b0" d="M 1600 4347 
Q 1350 4347 1178 4173 
Q 1006 4000 1006 3750 
Q 1006 3503 1178 3333 
Q 1350 3163 1600 3163 
Q 1850 3163 2022 3333 
Q 2194 3503 2194 3750 
Q 2194 3997 2020 4172 
Q 1847 4347 1600 4347 
z
M 1600 4750 
Q 1800 4750 1984 4673 
Q 2169 4597 2303 4453 
Q 2447 4313 2519 4134 
Q 2591 3956 2591 3750 
Q 2591 3338 2302 3052 
Q 2013 2766 1594 2766 
Q 1172 2766 890 3047 
Q 609 3328 609 3750 
Q 609 4169 896 4459 
Q 1184 4750 1600 4750 
z
" transform="scale(0.015625)"/>
       </defs>
       <use xlink:href="#DejaVuSans-30"/>
       <use xlink:href="#DejaVuSans-b0" x="63.623047"/>
      </g>
     </g>
    </g>
    <g id="xtick_12">
     <g id="line2d_41">
      <path d="M 646.672358 226.8 
L 777.615399 151.2 
" clip-path="url(#p112ca83ec9)" style="fill: none; stroke-dasharray: 2.96,1.28; stroke-dashoffset: 0; stroke: #b0b0b0; stroke-width: 0.8"/>
     </g>
     <g id="text_23">
      <!-- 30° -->
      <g transform="translate(780.877255 146.959375)scale(0.1 -0.1)">
       <use xlink:href="#DejaVuSans-33"/>
       <use xlink:href="#DejaVuSans-30" x="63.623047"/>
       <use xlink:href="#DejaVuSans-b0" x="127.246094"/>
      </g>
     </g>
    </g>
    <g id="xtick_13">
     <g id="line2d_42">
      <path d="M 646.672358 226.8 
L 722.272358 95.856959 
" clip-path="url(#p112ca83ec9)" style="fill: none; stroke-dasharray: 2.96,1.28; stroke-dashoffset: 0; stroke: #b0b0b0; stroke-width: 0.8"/>
     </g>
     <g id="text_24">
      <!-- 60° -->
      <g transform="translate(720.409858 86.491978)scale(0.1 -0.1)">
       <use xlink:href="#DejaVuSans-36"/>
       <use xlink:href="#DejaVuSans-30" x="63.623047"/>
       <use xlink:href="#DejaVuSans-b0" x="127.246094"/>
      </g>
     </g>
    </g>
    <g id="xtick_14">
     <g id="line2d_43">
      <path d="M 646.672358 226.8 
L 646.672358 75.6 
" clip-path="url(#p112ca83ec9)" style="fill: none; stroke-dasharray: 2.96,1.28; stroke-dashoffset: 0; stroke: #b0b0b0; stroke-width: 0.8"/>
     </g>
     <g id="text_25">
      <!-- 90° -->
      <g transform="translate(637.809858 64.359375)scale(0.1 -0.1)">
       <defs>
        <path id="DejaVuSans-39" d="M 703 97 
L 703 672 
Q 941 559 1184 500 
Q 1428 441 1663 441 
Q 2288 441 2617 861 
Q 2947 1281 2994 2138 
Q 2813 1869 2534 1725 
Q 2256 1581 1919 1581 
Q 1219 1581 811 2004 
Q 403 2428 403 3163 
Q 403 3881 828 4315 
Q 1253 4750 1959 4750 
Q 2769 4750 3195 4129 
Q 3622 3509 3622 2328 
Q 3622 1225 3098 567 
Q 2575 -91 1691 -91 
Q 1453 -91 1209 -44 
Q 966 3 703 97 
z
M 1959 2075 
Q 2384 2075 2632 2365 
Q 2881 2656 2881 3163 
Q 2881 3666 2632 3958 
Q 2384 4250 1959 4250 
Q 1534 4250 1286 3958 
Q 1038 3666 1038 3163 
Q 1038 2656 1286 2365 
Q 1534 2075 1959 2075 
z
" transform="scale(0.015625)"/>
       </defs>
       <use xlink:href="#DejaVuSans-39"/>
       <use xlink:href="#DejaVuSans-30" x="63.623047"/>
       <use xlink:href="#DejaVuSans-b0" x="127.246094"/>
      </g>
     </g>
    </g>
    <g id="xtick_15">
     <g id="line2d_44">
      <path d="M 646.672358 226.8 
L 571.072358 95.856959 
" clip-path="url(#p112ca83ec9)" style="fill: none; stroke-dasharray: 2.96,1.28; stroke-dashoffset: 0; stroke: #b0b0b0; stroke-width: 0.8"/>
     </g>
     <g id="text_26">
      <!-- 120° -->
      <g transform="translate(552.028608 86.491978)scale(0.1 -0.1)">
       <use xlink:href="#DejaVuSans-31"/>
       <use xlink:href="#DejaVuSans-32" x="63.623047"/>
       <use xlink:href="#DejaVuSans-30" x="127.246094"/>
       <use xlink:href="#DejaVuSans-b0" x="190.869141"/>
      </g>
     </g>
    </g>
    <g id="xtick_16">
     <g id="line2d_45">
      <path d="M 646.672358 226.8 
L 515.729317 151.2 
" clip-path="url(#p112ca83ec9)" style="fill: none; stroke-dasharray: 2.96,1.28; stroke-dashoffset: 0; stroke: #b0b0b0; stroke-width: 0.8"/>
     </g>
     <g id="text_27">
      <!-- 150° -->
      <g transform="translate(491.561211 146.959375)scale(0.1 -0.1)">
       <use xlink:href="#DejaVuSans-31"/>
       <use xlink:href="#DejaVuSans-35" x="63.623047"/>
       <use xlink:href="#DejaVuSans-30" x="127.246094"/>
       <use xlink:href="#DejaVuSans-b0" x="190.869141"/>
      </g>
     </g>
    </g>
    <g id="xtick_17">
     <g id="line2d_46">
      <path d="M 646.672358 226.8 
L 495.472358 226.8 
" clip-path="url(#p112ca83ec9)" style="fill: none; stroke-dasharray: 2.96,1.28; stroke-dashoffset: 0; stroke: #b0b0b0; stroke-width: 0.8"/>
     </g>
     <g id="text_28">
      <!-- 180° -->
      <g transform="translate(469.428608 229.559375)scale(0.1 -0.1)">
       <use xlink:href="#DejaVuSans-31"/>
       <use xlink:href="#DejaVuSans-38" x="63.623047"/>
       <use xlink:href="#DejaVuSans-30" x="127.246094"/>
       <use xlink:href="#DejaVuSans-b0" x="190.869141"/>
      </g>
     </g>
    </g>
   </g>
   <g id="matplotlib.axis_4">
    <g id="ytick_10">
     <g id="line2d_47">
      <path d="M 767.632358 226.8 
C 767.632358 194.731717 754.879695 163.944064 732.203994 141.268364 
C 709.528294 118.592663 678.740641 105.84 646.672358 105.84 
C 614.604075 105.84 583.816422 118.592663 561.140722 141.268364 
C 538.465021 163.944064 525.712358 194.731717 525.712358 226.8 
" clip-path="url(#p112ca83ec9)" style="fill: none; stroke-dasharray: 2.96,1.28; stroke-dashoffset: 0; stroke: #b0b0b0; stroke-width: 0.8"/>
     </g>
     <g id="text_29">
      <!-- −10 -->
      <g transform="translate(757.080014 241.398438)scale(0.1 -0.1)">
       <use xlink:href="#DejaVuSans-2212"/>
       <use xlink:href="#DejaVuSans-31" x="83.789062"/>
       <use xlink:href="#DejaVuSans-30" x="147.412109"/>
      </g>
     </g>
    </g>
    <g id="ytick_11">
     <g id="line2d_48">
      <path d="M 737.392358 226.8 
C 737.392358 202.748788 727.82786 179.658048 710.821085 162.651273 
C 693.81431 145.644498 670.72357 136.08 646.672358 136.08 
C 622.621146 136.08 599.530406 145.644498 582.523631 162.651273 
C 565.516855 179.658048 555.952358 202.748788 555.952358 226.8 
" clip-path="url(#p112ca83ec9)" style="fill: none; stroke-dasharray: 2.96,1.28; stroke-dashoffset: 0; stroke: #b0b0b0; stroke-width: 0.8"/>
     </g>
     <g id="text_30">
      <!-- −20 -->
      <g transform="translate(726.840014 241.398438)scale(0.1 -0.1)">
       <use xlink:href="#DejaVuSans-2212"/>
       <use xlink:href="#DejaVuSans-32" x="83.789062"/>
       <use xlink:href="#DejaVuSans-30" x="147.412109"/>
      </g>
     </g>
    </g>
    <g id="ytick_12">
     <g id="line2d_49">
      <path d="M 707.152358 226.8 
C 707.152358 210.765858 700.776026 195.372032 689.438176 184.034182 
C 678.100326 172.696332 662.706499 166.32 646.672358 166.32 
C 630.638216 166.32 615.24439 172.696332 603.90654 184.034182 
C 592.56869 195.372032 586.192358 210.765858 586.192358 226.8 
" clip-path="url(#p112ca83ec9)" style="fill: none; stroke-dasharray: 2.96,1.28; stroke-dashoffset: 0; stroke: #b0b0b0; stroke-width: 0.8"/>
     </g>
     <g id="text_31">
      <!-- −30 -->
      <g transform="translate(696.600014 241.398438)scale(0.1 -0.1)">
       <use xlink:href="#DejaVuSans-2212"/>
       <use xlink:href="#DejaVuSans-33" x="83.789062"/>
       <use xlink:href="#DejaVuSans-30" x="147.412109"/>
      </g>
     </g>
    </g>
    <g id="ytick_13">
     <g id="line2d_50">
      <path d="M 676.912358 226.8 
C 676.912358 218.782929 673.724192 211.086016 668.055267 205.417091 
C 662.386342 199.748166 654.689429 196.56 646.672358 196.56 
C 638.655287 196.56 630.958374 199.748166 625.289449 205.417091 
C 619.620524 211.086016 616.432358 218.782929 616.432358 226.8 
" clip-path="url(#p112ca83ec9)" style="fill: none; stroke-dasharray: 2.96,1.28; stroke-dashoffset: 0; stroke: #b0b0b0; stroke-width: 0.8"/>
     </g>
     <g id="text_32">
      <!-- −40 -->
      <g transform="translate(666.360014 241.398438)scale(0.1 -0.1)">
       <use xlink:href="#DejaVuSans-2212"/>
       <use xlink:href="#DejaVuSans-34" x="83.789062"/>
       <use xlink:href="#DejaVuSans-30" x="147.412109"/>
      </g>
     </g>
    </g>
    <g id="ytick_14">
     <g id="line2d_51">
      <path d="M 646.672358 226.8 
C 646.672358 226.8 646.672358 226.8 646.672358 226.8 
C 646.672358 226.8 646.672358 226.8 646.672358 226.8 
C 646.672358 226.8 646.672358 226.8 646.672358 226.8 
C 646.672358 226.8 646.672358 226.8 646.672358 226.8 
" clip-path="url(#p112ca83ec9)" style="fill: none; stroke-dasharray: 2.96,1.28; stroke-dashoffset: 0; stroke: #b0b0b0; stroke-width: 0.8"/>
     </g>
     <g id="text_33">
      <!-- −50 -->
      <g transform="translate(636.120014 241.398438)scale(0.1 -0.1)">
       <use xlink:href="#DejaVuSans-2212"/>
       <use xlink:href="#DejaVuSans-35" x="83.789062"/>
       <use xlink:href="#DejaVuSans-30" x="147.412109"/>
      </g>
     </g>
    </g>
   </g>
   <g id="line2d_52">
    <path d="M 757.971765 226.8 
L 761.28145 226.399492 
L 761.145017 221.195115 
L 760.809412 216.401096 
L 756.719803 216.385813 
L 756.133321 211.398928 
L 755.594891 207.964469 
L 757.359588 207.260697 
L 756.60934 203.405403 
L 759.341646 202.412103 
L 758.805571 200.055272 
L 757.801387 199.883997 
L 757.005589 196.78816 
L 753.084101 197.455091 
L 752.66353 195.970566 
L 749.838031 196.400995 
L 749.513676 195.321136 
L 752.053901 194.140398 
L 750.461992 189.388358 
L 749.654817 187.220558 
L 752.225988 185.808457 
L 750.25552 181.057199 
L 749.933293 180.334371 
L 751.057336 179.389239 
L 750.723431 178.660847 
L 748.426438 179.291154 
L 748.091913 178.581153 
L 743.939729 180.137831 
L 743.277997 178.782814 
L 742.383477 178.809605 
L 741.875114 177.808861 
L 742.394461 177.117757 
L 740.765645 174.143016 
L 736.522458 176.104482 
L 736.165951 175.477755 
L 735.870731 175.232004 
L 734.956129 173.681417 
L 735.060189 173.197225 
L 734.110159 171.661111 
L 732.989529 171.945265 
L 732.60404 171.343332 
L 727.657212 174.134025 
L 726.913151 173.007187 
L 726.139708 173.122242 
L 725.572614 172.292101 
L 722.514578 174.012257 
L 722.143791 173.483483 
L 723.094311 172.410659 
L 722.712316 171.877873 
L 719.867837 173.542171 
L 719.493829 173.031907 
L 711.962567 178.239193 
L 711.792471 178.011331 
L 696.969814 188.841472 
L 695.751308 187.278606 
L 708.291583 176.824439 
L 706.689594 174.911495 
L 695.294168 184.465711 
L 695.145932 184.296059 
L 703.377979 176.726211 
L 703.202648 176.528357 
L 712.55998 167.793385 
L 712.145972 167.334336 
L 716.498284 162.934685 
L 716.274678 162.691066 
L 716.87442 161.683742 
L 716.187921 160.951361 
L 719.370643 157.452924 
L 718.639653 156.694607 
L 722.389495 152.524337 
L 722.129474 152.260194 
L 723.472551 150.401328 
L 722.66741 149.600397 
L 724.685839 146.994046 
L 723.562713 145.911392 
L 726.818491 141.297491 
L 725.917727 140.461983 
L 727.142997 138.509688 
L 726.523969 137.949433 
L 727.738416 135.961619 
L 727.420483 135.678885 
L 727.643465 134.781429 
L 726.998367 134.217767 
L 728.088561 132.296078 
L 727.757817 132.012143 
L 729.009914 129.864736 
L 728.670667 129.577596 
L 729.581615 127.797585 
L 727.135276 125.799297 
L 728.073059 123.886256 
L 725.531503 121.926037 
L 726.930784 118.497549 
L 726.551828 118.217744 
L 726.812692 117.061807 
L 726.043771 116.504385 
L 725.825411 115.993129 
L 725.437709 115.717203 
L 725.97377 114.128787 
L 725.579552 113.852354 
L 725.681868 112.859856 
L 724.483042 112.037826 
L 724.544543 111.078554 
L 724.926727 109.628669 
L 723.694069 108.814733 
L 723.653619 107.97158 
L 722.403659 107.171082 
L 722.665087 105.824752 
L 722.241871 105.559931 
L 722.136825 104.780645 
L 721.282186 104.256202 
L 721.144534 103.514424 
L 720.713253 103.254931 
L 720.848859 102.041976 
L 719.136241 100.950552 
L 718.917681 100.309989 
L 718.475216 100.058297 
L 718.411428 98.081511 
L 715.696984 96.605743 
L 715.557518 95.764369 
L 712.795122 94.348945 
L 712.642403 93.491162 
L 712.384812 92.836052 
L 711.916269 92.607235 
L 711.548273 92.16975 
L 710.127776 91.508848 
L 709.887621 90.786581 
L 708.935475 90.34809 
L 708.514716 90.006461 
L 707.557152 89.577584 
L 707.126889 89.252723 
L 706.812097 88.660451 
L 703.948193 87.319116 
L 703.567003 86.857664 
L 698.146921 84.774554 
L 694.156814 83.391198 
L 693.567365 83.495092 
L 690.552567 82.543404 
L 689.409156 82.692518 
L 688.905307 82.544053 
L 688.348779 82.57786 
L 687.844535 82.433101 
L 687.298099 82.438248 
L 686.793373 82.297162 
L 686.184705 82.535561 
L 685.680327 82.398364 
L 685.068536 82.664361 
L 684.06023 82.399529 
L 683.481644 82.558738 
L 682.846175 82.952664 
L 681.336174 82.581343 
L 680.765855 82.740515 
L 679.758187 82.505753 
L 679.104318 83.053308 
L 678.516833 83.323637 
L 677.513296 83.10458 
L 676.876645 83.634318 
L 676.376163 83.529643 
L 675.707234 84.251937 
L 675.208917 84.151344 
L 674.661272 84.301864 
L 674.163136 84.204926 
L 673.566269 84.629883 
L 673.069287 84.536769 
L 672.430013 85.225709 
L 671.753395 86.155601 
L 669.292253 85.738858 
L 668.601195 86.923504 
L 665.663764 86.494496 
L 664.368597 88.814405 
L 663.780593 89.601074 
L 662.821288 89.484855 
L 662.295462 89.831446 
L 661.644088 91.339667 
L 661.170626 91.288175 
L 660.56638 92.500783 
L 659.62742 92.406957 
L 659.055865 93.459018 
L 658.589825 93.416557 
L 657.963861 95.237382 
L 657.04409 95.161679 
L 656.521597 95.955415 
L 655.60688 95.889774 
L 654.472036 99.418443 
L 653.581572 99.367042 
L 653.047 101.102777 
L 652.607707 101.081269 
L 652.057379 103.599945 
L 651.62682 103.581879 
L 651.168821 104.311146 
L 650.740752 104.296181 
L 650.25377 106.263812 
L 649.83253 106.252032 
L 648.864846 112.740665 
L 644.47987 112.740665 
L 644.137581 115.226399 
L 643.856258 119.377039 
L 643.480882 119.387535 
L 643.28654 124.849291 
L 642.93029 124.861746 
L 642.696985 127.931938 
L 642.351511 127.946434 
L 642.123581 130.450753 
L 641.786913 130.467237 
L 641.802425 136.97938 
L 641.174786 137.01561 
L 641.629774 148.909304 
L 641.092203 145.03857 
L 640.520907 145.079567 
L 641.608551 162.530021 
L 641.15949 162.566981 
L 639.611856 147.776998 
L 639.335751 147.802153 
L 639.122781 148.482297 
L 638.575601 148.536974 
L 638.326715 148.795279 
L 638.054175 148.824919 
L 636.613043 138.609472 
L 636.745004 142.387219 
L 636.155283 142.458663 
L 634.756843 133.889331 
L 633.545775 127.205762 
L 632.817303 124.441048 
L 630.67432 124.754028 
L 630.479272 125.817428 
L 628.717394 126.115765 
L 628.168968 125.09803 
L 626.921956 120.357468 
L 626.55011 120.427136 
L 625.427602 116.603136 
L 625.042645 116.678049 
L 624.596822 116.448729 
L 624.21133 116.526547 
L 623.883408 116.882063 
L 622.345082 117.192632 
L 621.12683 113.575729 
L 620.915715 114.469875 
L 620.131266 114.652633 
L 619.87926 115.32743 
L 618.712117 115.61444 
L 618.67328 117.082513 
L 617.367713 113.618791 
L 616.577402 113.826366 
L 616.378777 114.657716 
L 615.987076 114.764263 
L 616.086791 116.640745 
L 615.702023 116.7483 
L 615.061449 115.958912 
L 614.674304 116.070054 
L 613.332154 112.919182 
L 612.934397 113.036386 
L 612.237014 112.156078 
L 612.443849 114.273458 
L 610.092173 115.015817 
L 610.647091 117.999336 
L 608.751645 118.645371 
L 609.480137 121.898633 
L 608.707602 120.896192 
L 608.337749 121.029507 
L 606.663797 117.603521 
L 606.28245 117.743999 
L 605.581848 117.031637 
L 605.198509 117.1759 
L 606.000677 120.420934 
L 605.62918 120.563712 
L 606.351026 123.507361 
L 605.630096 123.791691 
L 603.842606 120.388401 
L 603.471009 120.538721 
L 604.568373 124.266341 
L 603.852791 124.563111 
L 604.40636 126.866337 
L 603.361035 127.314922 
L 605.094868 132.20212 
L 602.764631 127.840572 
L 602.074073 128.149862 
L 603.871831 133.001072 
L 603.217313 133.302496 
L 605.691817 139.426773 
L 603.972788 136.583078 
L 603.343302 136.88371 
L 600.95339 132.765866 
L 600.625064 132.926206 
L 601.176028 134.863382 
L 603.853139 141.028469 
L 602.06429 141.945057 
L 605.446194 149.039206 
L 603.824946 149.920634 
L 609.592222 160.811957 
L 611.434204 164.599919 
L 611.217059 164.72344 
L 603.730808 152.222567 
L 603.210633 152.524508 
L 602.452221 151.830651 
L 602.190508 151.985638 
L 607.749975 161.853886 
L 607.523257 161.990298 
M 612.220264 171.526728 
L 612.02732 171.64746 
M 612.707431 174.771022 
L 612.163855 175.12995 
L 607.950681 169.257908 
L 611.694741 175.211875 
L 611.155843 175.581396 
L 597.160961 155.929456 
L 596.913604 156.102908 
L 594.819903 153.672468 
L 594.564673 153.854115 
L 597.225077 158.087374 
L 596.74605 158.43464 
L 601.518477 165.421146 
L 601.304262 165.579313 
L 593.673362 155.80202 
L 592.10302 154.2288 
L 590.344301 155.585242 
L 588.188447 153.388344 
L 586.410343 154.840785 
L 586.351635 155.279919 
L 586.102074 155.491148 
L 581.22164 150.288954 
L 580.95467 150.518141 
L 581.620204 151.822123 
L 581.09777 152.278605 
L 585.021128 157.228988 
L 584.778386 157.444855 
L 585.369954 158.589061 
L 584.894723 159.019171 
L 575.715668 149.492518 
L 574.909119 150.240636 
L 575.602559 151.509468 
L 576.584863 153.067997 
L 575.561105 154.054863 
L 573.203951 152.167091 
L 572.42558 152.941393 
L 573.870998 154.883665 
L 573.620129 155.138511 
L 573.895489 155.905978 
L 573.156275 156.672825 
L 566.292596 150.660245 
L 565.498807 151.507085 
L 567.127727 153.533456 
L 566.87218 153.811875 
L 569.217776 156.452758 
L 568.728009 156.995808 
L 568.82154 157.568293 
L 568.580083 157.840768 
L 564.804534 155.014388 
L 564.554176 155.300917 
L 566.812936 157.756733 
L 564.681316 160.302112 
L 567.165499 162.776178 
L 565.191545 165.307988 
L 569.679658 169.116265 
L 569.47855 169.38567 
L 564.476592 166.110349 
L 564.054438 166.6863 
L 563.247163 166.543664 
L 562.828067 167.128197 
L 567.222752 170.673117 
L 566.83242 171.229763 
L 573.072174 175.953633 
L 572.543174 176.728009 
L 561.1178 169.44488 
L 560.324465 170.64634 
L 559.428098 170.49625 
L 559.036721 171.107377 
L 564.128029 174.746969 
L 563.231168 176.197114 
L 565.113347 177.727571 
L 564.268412 179.160046 
L 572.248309 184.119747 
L 571.951833 184.640941 
L 567.071797 182.253512 
L 566.30564 183.651078 
L 558.103456 179.645304 
L 557.61398 180.576402 
L 564.016303 184.265367 
L 563.574936 185.134223 
L 571.482321 189.427296 
L 570.967282 190.481931 
L 565.400347 188.160088 
L 565.132277 188.729044 
L 562.698842 187.949714 
L 562.429367 188.537556 
L 571.385947 192.922421 
L 569.714369 196.913518 
L 585.503801 203.290973 
L 584.215923 206.964161 
L 584.078815 207.401155 
L 590.831567 209.707603 
L 590.655449 210.293945 
L 609.096356 215.870346 
L 608.947255 216.39664 
L 581.835345 209.163626 
L 581.367696 210.982887 
L 616.505647 219.716305 
L 616.386487 220.244454 
L 579.541218 212.514489 
L 579.083092 214.868658 
L 601.353555 218.963204 
L 600.91692 222.147127 
L 600.885519 222.467026 
L 585.666219 221.241797 
L 585.443836 224.873674 
L 585.413916 226.585929 
L 581.539859 226.8 
L 581.539859 226.8 
" clip-path="url(#p112ca83ec9)" style="fill: none; stroke: #1f77b4; stroke-width: 1.5; stroke-linecap: square"/>
   </g>
   <g id="patch_8">
    <path d="M 797.872358 226.8 
C 797.872358 186.714646 781.931529 148.23008 753.586903 119.885455 
C 725.242278 91.540829 686.757712 75.6 646.672358 75.6 
C 606.587004 75.6 568.102438 91.540829 539.757813 119.885455 
C 511.413187 148.23008 495.472358 186.714646 495.472358 226.8 
" style="fill: none; stroke: #000000; stroke-width: 0.8; stroke-linejoin: miter; stroke-linecap: square"/>
   </g>
   <g id="patch_9">
    <path d="M 646.672358 226.8 
L 797.872358 226.8 
" style="fill: none; stroke: #000000; stroke-width: 0.8; stroke-linejoin: miter; stroke-linecap: square"/>
   </g>
   <g id="patch_10">
    <path d="M 646.672358 226.8 
L 495.472358 226.8 
" style="fill: none; stroke: #000000; stroke-width: 0.8; stroke-linejoin: miter; stroke-linecap: square"/>
   </g>
  </g>
 </g>
 <defs>
  <clipPath id="p7a4823b8cc">
   <rect x="41.782813" y="68.748253" width="390.560909" height="164.903495"/>
  </clipPath>
  <clipPath id="p112ca83ec9">
   <path d="M 797.872358 226.8 
C 797.872358 186.714646 781.931529 148.23008 753.586903 119.885455 
C 725.242278 91.540829 686.757712 75.6 646.672358 75.6 
C 606.587004 75.6 568.102438 91.540829 539.757813 119.885455 
C 511.413187 148.23008 495.472358 186.714646 495.472358 226.8 
L 646.672358 226.8 
C 646.672358 226.8 646.672358 226.8 646.672358 226.8 
C 646.672358 226.8 646.672358 226.8 646.672358 226.8 
C 646.672358 226.8 646.672358 226.8 646.672358 226.8 
C 646.672358 226.8 646.672358 226.8 646.672358 226.8 
L 797.872358 226.8 
z
"/>
  </clipPath>
 </defs>
</svg>
