<?xml version="1.0" encoding="utf-8" standalone="no"?>
<!DOCTYPE svg PUBLIC "-//W3C//DTD SVG 1.1//EN"
  "http://www.w3.org/Graphics/SVG/1.1/DTD/svg11.dtd">
<svg xmlns:xlink="http://www.w3.org/1999/xlink" width="460.8pt" height="345.6pt" viewBox="0 0 460.8 345.6" xmlns="http://www.w3.org/2000/svg" version="1.1">
 <metadata>
  <rdf:RDF xmlns:dc="http://purl.org/dc/elements/1.1/" xmlns:cc="http://creativecommons.org/ns#" xmlns:rdf="http://www.w3.org/1999/02/22-rdf-syntax-ns#">
   <cc:Work>
    <dc:type rdf:resource="http://purl.org/dc/dcmitype/StillImage"/>
    <dc:date>2023-10-24T12:11:00.304125</dc:date>
    <dc:format>image/svg+xml</dc:format>
    <dc:creator>
     <cc:Agent>
      <dc:title>Matplotlib v3.5.2, https://matplotlib.org/</dc:title>
     </cc:Agent>
    </dc:creator>
   </cc:Work>
  </rdf:RDF>
 </metadata>
 <defs>
  <style type="text/css">*{stroke-linejoin: round; stroke-linecap: butt}</style>
 </defs>
 <g id="figure_1">
  <g id="patch_1">
   <path d="M 0 345.6 
L 460.8 345.6 
L 460.8 0 
L 0 0 
z
" style="fill: #ffffff"/>
  </g>
  <g id="axes_1">
   <g id="patch_2">
    <path d="M 369.216 241.056 
C 369.216 205.780889 355.18807 171.914471 330.2448 146.9712 
C 305.301529 122.02793 271.435111 108 236.16 108 
C 200.884889 108 167.018471 122.02793 142.0752 146.9712 
C 117.13193 171.914471 103.104 205.780889 103.104 241.056 
L 236.16 241.056 
C 236.16 241.056 236.16 241.056 236.16 241.056 
C 236.16 241.056 236.16 241.056 236.16 241.056 
C 236.16 241.056 236.16 241.056 236.16 241.056 
C 236.16 241.056 236.16 241.056 236.16 241.056 
L 369.216 241.056 
z
" style="fill: #ffffff"/>
   </g>
   <g id="matplotlib.axis_1">
    <g id="xtick_1">
     <g id="line2d_1">
      <path d="M 236.16 241.056 
L 369.216 241.056 
" clip-path="url(#p2dcf024043)" style="fill: none; stroke-dasharray: 2.96,1.28; stroke-dashoffset: 0; stroke: #b0b0b0; stroke-width: 0.8"/>
     </g>
     <g id="text_1">
      <!-- 0° -->
      <g transform="translate(377.53475 243.815375)scale(0.1 -0.1)">
       <defs>
        <path id="DejaVuSans-30" d="M 2034 4250 
Q 1547 4250 1301 3770 
Q 1056 3291 1056 2328 
Q 1056 1369 1301 889 
Q 1547 409 2034 409 
Q 2525 409 2770 889 
Q 3016 1369 3016 2328 
Q 3016 3291 2770 3770 
Q 2525 4250 2034 4250 
z
M 2034 4750 
Q 2819 4750 3233 4129 
Q 3647 3509 3647 2328 
Q 3647 1150 3233 529 
Q 2819 -91 2034 -91 
Q 1250 -91 836 529 
Q 422 1150 422 2328 
Q 422 3509 836 4129 
Q 1250 4750 2034 4750 
z
" transform="scale(0.015625)"/>
        <path id="DejaVuSans-b0" d="M 1600 4347 
Q 1350 4347 1178 4173 
Q 1006 4000 1006 3750 
Q 1006 3503 1178 3333 
Q 1350 3163 1600 3163 
Q 1850 3163 2022 3333 
Q 2194 3503 2194 3750 
Q 2194 3997 2020 4172 
Q 1847 4347 1600 4347 
z
M 1600 4750 
Q 1800 4750 1984 4673 
Q 2169 4597 2303 4453 
Q 2447 4313 2519 4134 
Q 2591 3956 2591 3750 
Q 2591 3338 2302 3052 
Q 2013 2766 1594 2766 
Q 1172 2766 890 3047 
Q 609 3328 609 3750 
Q 609 4169 896 4459 
Q 1184 4750 1600 4750 
z
" transform="scale(0.015625)"/>
       </defs>
       <use xlink:href="#DejaVuSans-30"/>
       <use xlink:href="#DejaVuSans-b0" x="63.623047"/>
      </g>
     </g>
    </g>
    <g id="xtick_2">
     <g id="line2d_2">
      <path d="M 236.16 241.056 
L 351.389876 174.528 
" clip-path="url(#p2dcf024043)" style="fill: none; stroke-dasharray: 2.96,1.28; stroke-dashoffset: 0; stroke: #b0b0b0; stroke-width: 0.8"/>
     </g>
     <g id="text_2">
      <!-- 30° -->
      <g transform="translate(354.651732 170.287375)scale(0.1 -0.1)">
       <defs>
        <path id="DejaVuSans-33" d="M 2597 2516 
Q 3050 2419 3304 2112 
Q 3559 1806 3559 1356 
Q 3559 666 3084 287 
Q 2609 -91 1734 -91 
Q 1441 -91 1130 -33 
Q 819 25 488 141 
L 488 750 
Q 750 597 1062 519 
Q 1375 441 1716 441 
Q 2309 441 2620 675 
Q 2931 909 2931 1356 
Q 2931 1769 2642 2001 
Q 2353 2234 1838 2234 
L 1294 2234 
L 1294 2753 
L 1863 2753 
Q 2328 2753 2575 2939 
Q 2822 3125 2822 3475 
Q 2822 3834 2567 4026 
Q 2313 4219 1838 4219 
Q 1578 4219 1281 4162 
Q 984 4106 628 3988 
L 628 4550 
Q 988 4650 1302 4700 
Q 1616 4750 1894 4750 
Q 2613 4750 3031 4423 
Q 3450 4097 3450 3541 
Q 3450 3153 3228 2886 
Q 3006 2619 2597 2516 
z
" transform="scale(0.015625)"/>
       </defs>
       <use xlink:href="#DejaVuSans-33"/>
       <use xlink:href="#DejaVuSans-30" x="63.623047"/>
       <use xlink:href="#DejaVuSans-b0" x="127.246094"/>
      </g>
     </g>
    </g>
    <g id="xtick_3">
     <g id="line2d_3">
      <path d="M 236.16 241.056 
L 302.688 125.826124 
" clip-path="url(#p2dcf024043)" style="fill: none; stroke-dasharray: 2.96,1.28; stroke-dashoffset: 0; stroke: #b0b0b0; stroke-width: 0.8"/>
     </g>
     <g id="text_3">
      <!-- 60° -->
      <g transform="translate(300.8255 116.461143)scale(0.1 -0.1)">
       <defs>
        <path id="DejaVuSans-36" d="M 2113 2584 
Q 1688 2584 1439 2293 
Q 1191 2003 1191 1497 
Q 1191 994 1439 701 
Q 1688 409 2113 409 
Q 2538 409 2786 701 
Q 3034 994 3034 1497 
Q 3034 2003 2786 2293 
Q 2538 2584 2113 2584 
z
M 3366 4563 
L 3366 3988 
Q 3128 4100 2886 4159 
Q 2644 4219 2406 4219 
Q 1781 4219 1451 3797 
Q 1122 3375 1075 2522 
Q 1259 2794 1537 2939 
Q 1816 3084 2150 3084 
Q 2853 3084 3261 2657 
Q 3669 2231 3669 1497 
Q 3669 778 3244 343 
Q 2819 -91 2113 -91 
Q 1303 -91 875 529 
Q 447 1150 447 2328 
Q 447 3434 972 4092 
Q 1497 4750 2381 4750 
Q 2619 4750 2861 4703 
Q 3103 4656 3366 4563 
z
" transform="scale(0.015625)"/>
       </defs>
       <use xlink:href="#DejaVuSans-36"/>
       <use xlink:href="#DejaVuSans-30" x="63.623047"/>
       <use xlink:href="#DejaVuSans-b0" x="127.246094"/>
      </g>
     </g>
    </g>
    <g id="xtick_4">
     <g id="line2d_4">
      <path d="M 236.16 241.056 
L 236.16 108 
" clip-path="url(#p2dcf024043)" style="fill: none; stroke-dasharray: 2.96,1.28; stroke-dashoffset: 0; stroke: #b0b0b0; stroke-width: 0.8"/>
     </g>
     <g id="text_4">
      <!-- 90° -->
      <g transform="translate(227.2975 96.759375)scale(0.1 -0.1)">
       <defs>
        <path id="DejaVuSans-39" d="M 703 97 
L 703 672 
Q 941 559 1184 500 
Q 1428 441 1663 441 
Q 2288 441 2617 861 
Q 2947 1281 2994 2138 
Q 2813 1869 2534 1725 
Q 2256 1581 1919 1581 
Q 1219 1581 811 2004 
Q 403 2428 403 3163 
Q 403 3881 828 4315 
Q 1253 4750 1959 4750 
Q 2769 4750 3195 4129 
Q 3622 3509 3622 2328 
Q 3622 1225 3098 567 
Q 2575 -91 1691 -91 
Q 1453 -91 1209 -44 
Q 966 3 703 97 
z
M 1959 2075 
Q 2384 2075 2632 2365 
Q 2881 2656 2881 3163 
Q 2881 3666 2632 3958 
Q 2384 4250 1959 4250 
Q 1534 4250 1286 3958 
Q 1038 3666 1038 3163 
Q 1038 2656 1286 2365 
Q 1534 2075 1959 2075 
z
" transform="scale(0.015625)"/>
       </defs>
       <use xlink:href="#DejaVuSans-39"/>
       <use xlink:href="#DejaVuSans-30" x="63.623047"/>
       <use xlink:href="#DejaVuSans-b0" x="127.246094"/>
      </g>
     </g>
    </g>
    <g id="xtick_5">
     <g id="line2d_5">
      <path d="M 236.16 241.056 
L 169.632 125.826124 
" clip-path="url(#p2dcf024043)" style="fill: none; stroke-dasharray: 2.96,1.28; stroke-dashoffset: 0; stroke: #b0b0b0; stroke-width: 0.8"/>
     </g>
     <g id="text_5">
      <!-- 120° -->
      <g transform="translate(150.58825 116.461143)scale(0.1 -0.1)">
       <defs>
        <path id="DejaVuSans-31" d="M 794 531 
L 1825 531 
L 1825 4091 
L 703 3866 
L 703 4441 
L 1819 4666 
L 2450 4666 
L 2450 531 
L 3481 531 
L 3481 0 
L 794 0 
L 794 531 
z
" transform="scale(0.015625)"/>
        <path id="DejaVuSans-32" d="M 1228 531 
L 3431 531 
L 3431 0 
L 469 0 
L 469 531 
Q 828 903 1448 1529 
Q 2069 2156 2228 2338 
Q 2531 2678 2651 2914 
Q 2772 3150 2772 3378 
Q 2772 3750 2511 3984 
Q 2250 4219 1831 4219 
Q 1534 4219 1204 4116 
Q 875 4013 500 3803 
L 500 4441 
Q 881 4594 1212 4672 
Q 1544 4750 1819 4750 
Q 2544 4750 2975 4387 
Q 3406 4025 3406 3419 
Q 3406 3131 3298 2873 
Q 3191 2616 2906 2266 
Q 2828 2175 2409 1742 
Q 1991 1309 1228 531 
z
" transform="scale(0.015625)"/>
       </defs>
       <use xlink:href="#DejaVuSans-31"/>
       <use xlink:href="#DejaVuSans-32" x="63.623047"/>
       <use xlink:href="#DejaVuSans-30" x="127.246094"/>
       <use xlink:href="#DejaVuSans-b0" x="190.869141"/>
      </g>
     </g>
    </g>
    <g id="xtick_6">
     <g id="line2d_6">
      <path d="M 236.16 241.056 
L 120.930124 174.528 
" clip-path="url(#p2dcf024043)" style="fill: none; stroke-dasharray: 2.96,1.28; stroke-dashoffset: 0; stroke: #b0b0b0; stroke-width: 0.8"/>
     </g>
     <g id="text_6">
      <!-- 150° -->
      <g transform="translate(96.762018 170.287375)scale(0.1 -0.1)">
       <defs>
        <path id="DejaVuSans-35" d="M 691 4666 
L 3169 4666 
L 3169 4134 
L 1269 4134 
L 1269 2991 
Q 1406 3038 1543 3061 
Q 1681 3084 1819 3084 
Q 2600 3084 3056 2656 
Q 3513 2228 3513 1497 
Q 3513 744 3044 326 
Q 2575 -91 1722 -91 
Q 1428 -91 1123 -41 
Q 819 9 494 109 
L 494 744 
Q 775 591 1075 516 
Q 1375 441 1709 441 
Q 2250 441 2565 725 
Q 2881 1009 2881 1497 
Q 2881 1984 2565 2268 
Q 2250 2553 1709 2553 
Q 1456 2553 1204 2497 
Q 953 2441 691 2322 
L 691 4666 
z
" transform="scale(0.015625)"/>
       </defs>
       <use xlink:href="#DejaVuSans-31"/>
       <use xlink:href="#DejaVuSans-35" x="63.623047"/>
       <use xlink:href="#DejaVuSans-30" x="127.246094"/>
       <use xlink:href="#DejaVuSans-b0" x="190.869141"/>
      </g>
     </g>
    </g>
    <g id="xtick_7">
     <g id="line2d_7">
      <path d="M 236.16 241.056 
L 103.104 241.056 
" clip-path="url(#p2dcf024043)" style="fill: none; stroke-dasharray: 2.96,1.28; stroke-dashoffset: 0; stroke: #b0b0b0; stroke-width: 0.8"/>
     </g>
     <g id="text_7">
      <!-- 180° -->
      <g transform="translate(77.06025 243.815375)scale(0.1 -0.1)">
       <defs>
        <path id="DejaVuSans-38" d="M 2034 2216 
Q 1584 2216 1326 1975 
Q 1069 1734 1069 1313 
Q 1069 891 1326 650 
Q 1584 409 2034 409 
Q 2484 409 2743 651 
Q 3003 894 3003 1313 
Q 3003 1734 2745 1975 
Q 2488 2216 2034 2216 
z
M 1403 2484 
Q 997 2584 770 2862 
Q 544 3141 544 3541 
Q 544 4100 942 4425 
Q 1341 4750 2034 4750 
Q 2731 4750 3128 4425 
Q 3525 4100 3525 3541 
Q 3525 3141 3298 2862 
Q 3072 2584 2669 2484 
Q 3125 2378 3379 2068 
Q 3634 1759 3634 1313 
Q 3634 634 3220 271 
Q 2806 -91 2034 -91 
Q 1263 -91 848 271 
Q 434 634 434 1313 
Q 434 1759 690 2068 
Q 947 2378 1403 2484 
z
M 1172 3481 
Q 1172 3119 1398 2916 
Q 1625 2713 2034 2713 
Q 2441 2713 2670 2916 
Q 2900 3119 2900 3481 
Q 2900 3844 2670 4047 
Q 2441 4250 2034 4250 
Q 1625 4250 1398 4047 
Q 1172 3844 1172 3481 
z
" transform="scale(0.015625)"/>
       </defs>
       <use xlink:href="#DejaVuSans-31"/>
       <use xlink:href="#DejaVuSans-38" x="63.623047"/>
       <use xlink:href="#DejaVuSans-30" x="127.246094"/>
       <use xlink:href="#DejaVuSans-b0" x="190.869141"/>
      </g>
     </g>
    </g>
   </g>
   <g id="matplotlib.axis_2">
    <g id="ytick_1">
     <g id="line2d_8">
      <path d="M 342.6048 241.056 
C 342.6048 212.835911 331.382456 185.742776 311.42784 165.78816 
C 291.473224 145.833544 264.380089 134.6112 236.16 134.6112 
C 207.939911 134.6112 180.846776 145.833544 160.89216 165.78816 
C 140.937544 185.742776 129.7152 212.835911 129.7152 241.056 
" clip-path="url(#p2dcf024043)" style="fill: none; stroke-dasharray: 2.96,1.28; stroke-dashoffset: 0; stroke: #b0b0b0; stroke-width: 0.8"/>
     </g>
     <g id="text_8">
      <!-- −10 -->
      <g transform="translate(332.052456 255.654437)scale(0.1 -0.1)">
       <defs>
        <path id="DejaVuSans-2212" d="M 678 2272 
L 4684 2272 
L 4684 1741 
L 678 1741 
L 678 2272 
z
" transform="scale(0.015625)"/>
       </defs>
       <use xlink:href="#DejaVuSans-2212"/>
       <use xlink:href="#DejaVuSans-31" x="83.789062"/>
       <use xlink:href="#DejaVuSans-30" x="147.412109"/>
      </g>
     </g>
    </g>
    <g id="ytick_2">
     <g id="line2d_9">
      <path d="M 315.9936 241.056 
C 315.9936 219.890933 307.576842 199.571082 292.61088 184.60512 
C 277.644918 169.639158 257.325067 161.2224 236.16 161.2224 
C 214.994933 161.2224 194.675082 169.639158 179.70912 184.60512 
C 164.743158 199.571082 156.3264 219.890933 156.3264 241.056 
" clip-path="url(#p2dcf024043)" style="fill: none; stroke-dasharray: 2.96,1.28; stroke-dashoffset: 0; stroke: #b0b0b0; stroke-width: 0.8"/>
     </g>
     <g id="text_9">
      <!-- −20 -->
      <g transform="translate(305.441256 255.654437)scale(0.1 -0.1)">
       <use xlink:href="#DejaVuSans-2212"/>
       <use xlink:href="#DejaVuSans-32" x="83.789062"/>
       <use xlink:href="#DejaVuSans-30" x="147.412109"/>
      </g>
     </g>
    </g>
    <g id="ytick_3">
     <g id="line2d_10">
      <path d="M 289.3824 241.056 
C 289.3824 226.945955 283.771228 213.399388 273.79392 203.42208 
C 263.816612 193.444772 250.270045 187.8336 236.16 187.8336 
C 222.049955 187.8336 208.503388 193.444772 198.52608 203.42208 
C 188.548772 213.399388 182.9376 226.945955 182.9376 241.056 
" clip-path="url(#p2dcf024043)" style="fill: none; stroke-dasharray: 2.96,1.28; stroke-dashoffset: 0; stroke: #b0b0b0; stroke-width: 0.8"/>
     </g>
     <g id="text_10">
      <!-- −30 -->
      <g transform="translate(278.830056 255.654437)scale(0.1 -0.1)">
       <use xlink:href="#DejaVuSans-2212"/>
       <use xlink:href="#DejaVuSans-33" x="83.789062"/>
       <use xlink:href="#DejaVuSans-30" x="147.412109"/>
      </g>
     </g>
    </g>
    <g id="ytick_4">
     <g id="line2d_11">
      <path d="M 262.7712 241.056 
C 262.7712 234.000978 259.965614 227.227694 254.97696 222.23904 
C 249.988306 217.250386 243.215022 214.4448 236.16 214.4448 
C 229.104978 214.4448 222.331694 217.250386 217.34304 222.23904 
C 212.354386 227.227694 209.5488 234.000978 209.5488 241.056 
" clip-path="url(#p2dcf024043)" style="fill: none; stroke-dasharray: 2.96,1.28; stroke-dashoffset: 0; stroke: #b0b0b0; stroke-width: 0.8"/>
     </g>
     <g id="text_11">
      <!-- −40 -->
      <g transform="translate(252.218856 255.654437)scale(0.1 -0.1)">
       <defs>
        <path id="DejaVuSans-34" d="M 2419 4116 
L 825 1625 
L 2419 1625 
L 2419 4116 
z
M 2253 4666 
L 3047 4666 
L 3047 1625 
L 3713 1625 
L 3713 1100 
L 3047 1100 
L 3047 0 
L 2419 0 
L 2419 1100 
L 313 1100 
L 313 1709 
L 2253 4666 
z
" transform="scale(0.015625)"/>
       </defs>
       <use xlink:href="#DejaVuSans-2212"/>
       <use xlink:href="#DejaVuSans-34" x="83.789062"/>
       <use xlink:href="#DejaVuSans-30" x="147.412109"/>
      </g>
     </g>
    </g>
    <g id="ytick_5">
     <g id="line2d_12">
      <path d="M 236.16 241.056 
C 236.16 241.056 236.16 241.056 236.16 241.056 
C 236.16 241.056 236.16 241.056 236.16 241.056 
C 236.16 241.056 236.16 241.056 236.16 241.056 
C 236.16 241.056 236.16 241.056 236.16 241.056 
" clip-path="url(#p2dcf024043)" style="fill: none; stroke-dasharray: 2.96,1.28; stroke-dashoffset: 0; stroke: #b0b0b0; stroke-width: 0.8"/>
     </g>
     <g id="text_12">
      <!-- −50 -->
      <g transform="translate(225.607656 255.654437)scale(0.1 -0.1)">
       <use xlink:href="#DejaVuSans-2212"/>
       <use xlink:href="#DejaVuSans-35" x="83.789062"/>
       <use xlink:href="#DejaVuSans-30" x="147.412109"/>
      </g>
     </g>
    </g>
   </g>
   <g id="line2d_13">
    <path d="M 334.103478 241.056 
L 337.016001 240.703553 
L 336.89594 236.123702 
L 336.600608 231.904965 
L 333.001752 231.891516 
L 332.437698 227.166526 
L 332.01183 224.480733 
L 333.564763 223.861413 
L 332.904545 220.468754 
L 335.308973 219.594651 
L 334.837227 217.520639 
L 333.953546 217.369918 
L 333.253243 214.645581 
L 329.802334 215.23248 
L 329.432232 213.926098 
L 326.945792 214.304876 
L 326.66036 213.354599 
L 328.895757 212.31555 
L 327.379272 207.814783 
L 326.784564 206.226091 
L 329.047194 204.983443 
L 327.171958 200.484043 
L 327.029623 200.166246 
L 328.01878 199.33453 
L 327.724945 198.693546 
L 325.703591 199.248216 
L 325.409208 198.623414 
L 321.755287 199.993291 
L 321.172962 198.800877 
L 320.385785 198.824452 
L 319.938425 197.943798 
L 320.39545 197.335626 
L 318.962092 194.717854 
L 315.228088 196.443944 
L 314.914362 195.892425 
L 314.495508 195.402138 
L 313.849719 194.311647 
L 313.941291 193.885558 
L 313.105265 192.533778 
L 312.119111 192.783833 
L 311.77988 192.254132 
L 307.426672 194.709942 
L 306.771898 193.718324 
L 306.091268 193.819573 
L 305.592225 193.089049 
L 302.901154 194.602786 
L 302.574861 194.137465 
L 303.411318 193.19338 
L 303.075163 192.724528 
L 300.572022 194.18911 
L 300.242895 193.740078 
L 293.615384 198.32249 
L 293.4657 198.121971 
L 280.421761 207.652495 
L 279.349476 206.277173 
L 290.384918 197.077506 
L 288.975168 195.394116 
L 278.947193 203.801826 
L 278.816745 203.652532 
L 286.060947 196.991066 
L 285.906656 196.816954 
L 294.141107 189.130179 
L 293.77678 188.726215 
L 297.606815 184.854523 
L 297.410042 184.640138 
L 297.937815 183.753693 
L 297.333695 183.109198 
L 300.134491 180.030573 
L 299.49122 179.363255 
L 302.79108 175.693416 
L 302.562262 175.460971 
L 303.74417 173.825169 
L 303.035646 173.120349 
L 304.811863 170.82676 
L 303.823513 169.874025 
L 306.688597 165.813792 
L 305.895925 165.078545 
L 306.974163 163.360526 
L 306.429418 162.867501 
L 307.498131 161.118225 
L 307.21835 160.869419 
L 307.414574 160.079657 
L 306.846888 159.583635 
L 307.806259 157.892548 
L 307.515204 157.642686 
L 308.617049 155.752967 
L 308.318512 155.500285 
L 309.120146 153.933875 
L 306.967367 152.175382 
L 307.792617 150.491905 
L 305.556048 148.766912 
L 306.787415 145.749843 
L 306.453933 145.503615 
L 306.683494 144.48639 
L 306.006844 143.995858 
L 305.814687 143.545954 
L 305.473509 143.303138 
L 305.945242 141.905333 
L 305.598331 141.662071 
L 305.688369 140.788673 
L 304.633402 140.065287 
L 304.687522 139.221127 
L 305.023845 137.945229 
L 303.939106 137.228965 
L 303.903509 136.48699 
L 302.803545 135.782552 
L 303.033601 134.597782 
L 302.661171 134.36474 
L 302.568731 133.678967 
L 301.816649 133.217458 
L 301.695515 132.564693 
L 301.315988 132.33634 
L 301.435321 131.268939 
L 299.928217 130.308486 
L 299.735884 129.74479 
L 299.346515 129.523301 
L 299.290381 127.78373 
L 296.901671 126.485054 
L 296.778941 125.744645 
L 294.348032 124.499072 
L 294.21364 123.744222 
L 293.986959 123.167725 
L 293.574642 122.966367 
L 293.250805 122.58138 
L 292.000768 121.999786 
L 291.789431 121.364191 
L 290.951543 120.978319 
L 290.581275 120.677685 
L 289.359987 120.014396 
L 289.082971 119.493197 
L 286.562735 118.312822 
L 286.227287 117.906744 
L 281.020584 115.916076 
L 277.946321 114.856254 
L 277.427606 114.947681 
L 274.774584 114.110196 
L 273.768383 114.241416 
L 273.324995 114.110767 
L 272.83525 114.140517 
L 272.391516 114.013129 
L 271.910652 114.017659 
L 271.466494 113.893502 
L 270.930865 114.103293 
L 270.487013 113.982561 
L 269.948636 114.216637 
L 269.061328 113.983586 
L 268.552172 114.123689 
L 267.992959 114.470344 
L 266.664158 114.143582 
L 266.162278 114.283653 
L 265.27553 114.077063 
L 264.700125 114.558911 
L 264.183138 114.796801 
L 263.300025 114.60403 
L 262.739772 115.0702 
L 262.299348 114.978086 
L 261.710691 115.613705 
L 261.272172 115.525183 
L 260.790244 115.657641 
L 260.351885 115.572335 
L 259.826642 115.946297 
L 259.389297 115.864357 
L 258.826737 116.470624 
L 258.231313 117.288929 
L 256.065508 116.922195 
L 255.457376 117.964684 
L 252.872438 117.587156 
L 251.732691 119.628676 
L 251.215247 120.320945 
L 250.371059 120.218672 
L 249.908332 120.523673 
L 249.335123 121.850907 
L 248.918476 121.805594 
L 248.386739 122.872689 
L 247.560454 122.790122 
L 247.057486 123.715935 
L 246.647371 123.67857 
L 246.096522 125.280896 
L 245.287124 125.214277 
L 244.82733 125.912765 
L 244.022379 125.855001 
L 243.023716 128.96023 
L 242.240109 128.914997 
L 241.769685 130.442444 
L 241.383108 130.423516 
L 240.898819 132.639951 
L 240.519926 132.624053 
L 240.116887 133.265808 
L 239.740187 133.252639 
L 239.311643 134.984154 
L 238.940952 134.973788 
L 238.089389 140.683786 
L 234.230611 140.683786 
L 233.929397 142.871231 
L 233.681832 146.523794 
L 233.351501 146.533031 
L 233.18048 151.339376 
L 232.86698 151.350336 
L 232.661671 154.052106 
L 232.357655 154.064862 
L 232.157076 156.268663 
L 231.860809 156.283169 
L 231.874459 162.013854 
L 231.322136 162.045737 
L 231.722526 172.512188 
L 231.249464 169.105941 
L 230.746723 169.142019 
L 231.70385 184.498418 
L 231.308676 184.530944 
L 229.946759 171.515758 
L 229.703786 171.537895 
L 229.516372 172.136421 
L 229.034854 172.184537 
L 228.815834 172.411846 
L 228.575999 172.437929 
L 227.307803 163.448335 
L 227.423928 166.772753 
L 226.904974 166.835624 
L 224.608607 153.41307 
L 223.967552 150.980122 
L 222.081727 151.255544 
L 221.910084 152.191336 
L 220.359632 152.453873 
L 219.877017 151.558266 
L 218.779647 147.386572 
L 218.452422 147.44788 
L 217.464615 144.082759 
L 217.125852 144.148683 
L 216.733528 143.946882 
L 216.394296 144.015361 
L 216.105724 144.328215 
L 214.751997 144.601516 
L 213.679936 141.418641 
L 213.494155 142.20549 
L 212.803839 142.366317 
L 212.582074 142.960139 
L 211.554988 143.212707 
L 211.520811 144.504611 
L 210.371912 141.456536 
L 209.676439 141.639202 
L 209.501648 142.37079 
L 209.156952 142.464551 
L 209.244701 144.115855 
L 208.906105 144.210504 
L 208.3424 143.515843 
L 208.001713 143.613648 
L 206.82062 140.84088 
L 206.470594 140.94402 
L 205.856897 140.169348 
L 206.038912 142.032643 
L 203.969437 142.685919 
L 204.457765 145.311416 
L 202.789772 145.879926 
L 203.430845 148.742797 
L 202.751015 147.860649 
L 202.425544 147.977966 
L 200.952466 144.963098 
L 200.616881 145.086719 
L 200.000351 144.459841 
L 199.663013 144.586792 
L 200.368921 147.442422 
L 200.042004 147.568067 
L 200.677228 150.158478 
L 200.04281 150.408688 
L 198.469819 147.413793 
L 198.142813 147.546075 
L 199.108494 150.82638 
L 198.478781 151.087538 
L 198.965922 153.114377 
L 198.046036 153.509131 
L 199.571809 157.809865 
L 197.5212 153.971704 
L 196.913509 154.243878 
L 198.495536 158.512943 
L 197.91956 158.778197 
L 200.097124 164.16756 
L 198.584378 161.665109 
L 198.030431 161.929665 
L 195.927308 158.305962 
L 195.638381 158.447062 
L 196.12323 160.151776 
L 198.479088 165.577053 
L 196.9049 166.38365 
L 199.880976 172.626502 
L 198.454277 173.402158 
L 203.529481 182.986522 
L 205.150425 186.319929 
L 204.959337 186.428627 
L 198.371436 175.427859 
L 197.913682 175.693567 
L 197.24628 175.082973 
L 197.015972 175.219361 
L 201.908303 183.90342 
L 201.708791 184.023463 
M 205.842158 192.415521 
L 205.672367 192.521765 
M 206.270864 195.270499 
L 205.792518 195.586356 
L 202.084925 190.418959 
L 205.379697 195.65845 
L 204.905467 195.983628 
L 192.589971 178.689922 
L 192.372296 178.842559 
L 190.52984 176.703772 
L 190.305237 176.863621 
L 192.646393 180.588889 
L 192.224849 180.894483 
L 196.424584 187.042609 
L 196.236075 187.181795 
L 189.520883 178.577777 
L 188.138982 177.193344 
L 186.59131 178.387013 
L 184.694159 176.453742 
L 183.129427 177.731891 
L 183.077763 178.118329 
L 182.85815 178.304211 
L 178.563369 173.72628 
L 178.328434 173.927964 
L 178.914104 175.075468 
L 178.454363 175.477172 
L 181.906918 179.83351 
L 181.693305 180.023473 
L 182.213885 181.030374 
L 181.795681 181.408871 
L 173.718113 173.025416 
L 173.00835 173.68376 
L 174.483004 176.171837 
L 173.582097 177.040279 
L 171.507802 175.37904 
L 170.822835 176.060426 
L 172.094803 177.769625 
L 171.874038 177.993889 
L 172.116355 178.669261 
L 171.465847 179.344086 
L 165.425809 174.053015 
L 164.727275 174.798234 
L 166.160725 176.581442 
L 165.935844 176.82645 
L 167.999968 179.150427 
L 167.568973 179.628311 
L 167.65128 180.132098 
L 167.438798 180.371876 
L 164.116315 177.884662 
L 163.896 178.136807 
L 165.883709 180.297925 
L 164.007883 182.537859 
L 166.193964 184.715037 
L 164.456884 186.94303 
L 168.406424 190.294313 
L 168.229449 190.53139 
L 163.827726 187.649107 
L 163.45623 188.155944 
L 162.745828 188.030425 
L 162.377024 188.544813 
L 166.244347 191.664343 
L 165.900855 192.154192 
L 171.391838 196.311197 
L 170.926318 196.992648 
L 160.871989 190.583494 
L 160.173854 191.640779 
L 159.385052 191.5087 
L 159.040639 192.046492 
L 163.52099 195.249333 
L 162.731753 196.52546 
L 164.38807 197.872263 
L 163.644527 199.13284 
L 170.666837 203.497377 
L 170.405938 203.956028 
L 166.111507 201.85509 
L 165.437288 203.084949 
L 158.219366 199.559868 
L 157.788627 200.379233 
L 163.422671 203.625523 
L 163.034269 204.390116 
L 169.992768 208.16802 
L 169.539533 209.0961 
L 164.64063 207.052877 
L 164.404728 207.553558 
L 162.263306 206.867749 
L 162.026168 207.38505 
L 169.907959 211.243731 
L 168.436969 214.755896 
L 182.33167 220.368057 
L 181.137674 223.792634 
L 181.077683 223.985017 
L 187.020104 226.01469 
L 186.86512 226.530672 
L 203.093118 231.437904 
L 202.96191 231.901043 
L 179.103429 225.535991 
L 178.691898 227.13694 
L 209.613295 234.822349 
L 209.508434 235.287119 
L 177.084597 228.48475 
L 176.681446 230.556419 
L 196.279453 234.159619 
L 195.881152 237.102203 
L 195.867582 237.242983 
L 182.474598 236.164781 
L 182.273306 239.549133 
L 182.252571 240.867617 
L 178.843401 241.056 
L 178.843401 241.056 
" clip-path="url(#p2dcf024043)" style="fill: none; stroke: #1f77b4; stroke-width: 1.5; stroke-linecap: square"/>
   </g>
   <g id="patch_3">
    <path d="M 369.216 241.056 
C 369.216 205.780889 355.18807 171.914471 330.2448 146.9712 
C 305.301529 122.02793 271.435111 108 236.16 108 
C 200.884889 108 167.018471 122.02793 142.0752 146.9712 
C 117.13193 171.914471 103.104 205.780889 103.104 241.056 
" style="fill: none; stroke: #000000; stroke-width: 0.8; stroke-linejoin: miter; stroke-linecap: square"/>
   </g>
   <g id="patch_4">
    <path d="M 236.16 241.056 
L 369.216 241.056 
" style="fill: none; stroke: #000000; stroke-width: 0.8; stroke-linejoin: miter; stroke-linecap: square"/>
   </g>
   <g id="patch_5">
    <path d="M 236.16 241.056 
L 103.104 241.056 
" style="fill: none; stroke: #000000; stroke-width: 0.8; stroke-linejoin: miter; stroke-linecap: square"/>
   </g>
  </g>
 </g>
 <defs>
  <clipPath id="p2dcf024043">
   <path d="M 369.216 241.056 
C 369.216 205.780889 355.18807 171.914471 330.2448 146.9712 
C 305.301529 122.02793 271.435111 108 236.16 108 
C 200.884889 108 167.018471 122.02793 142.0752 146.9712 
C 117.13193 171.914471 103.104 205.780889 103.104 241.056 
L 236.16 241.056 
C 236.16 241.056 236.16 241.056 236.16 241.056 
C 236.16 241.056 236.16 241.056 236.16 241.056 
C 236.16 241.056 236.16 241.056 236.16 241.056 
C 236.16 241.056 236.16 241.056 236.16 241.056 
L 369.216 241.056 
z
"/>
  </clipPath>
 </defs>
</svg>
