<?xml version="1.0" encoding="utf-8" standalone="no"?>
<!DOCTYPE svg PUBLIC "-//W3C//DTD SVG 1.1//EN"
  "http://www.w3.org/Graphics/SVG/1.1/DTD/svg11.dtd">
<svg xmlns:xlink="http://www.w3.org/1999/xlink" width="460.8pt" height="345.6pt" viewBox="0 0 460.8 345.6" xmlns="http://www.w3.org/2000/svg" version="1.1">
 <metadata>
  <rdf:RDF xmlns:dc="http://purl.org/dc/elements/1.1/" xmlns:cc="http://creativecommons.org/ns#" xmlns:rdf="http://www.w3.org/1999/02/22-rdf-syntax-ns#">
   <cc:Work>
    <dc:type rdf:resource="http://purl.org/dc/dcmitype/StillImage"/>
    <dc:date>2023-10-24T12:11:00.111377</dc:date>
    <dc:format>image/svg+xml</dc:format>
    <dc:creator>
     <cc:Agent>
      <dc:title>Matplotlib v3.5.2, https://matplotlib.org/</dc:title>
     </cc:Agent>
    </dc:creator>
   </cc:Work>
  </rdf:RDF>
 </metadata>
 <defs>
  <style type="text/css">*{stroke-linejoin: round; stroke-linecap: butt}</style>
 </defs>
 <g id="figure_1">
  <g id="patch_1">
   <path d="M 0 345.6 
L 460.8 345.6 
L 460.8 0 
L 0 0 
z
" style="fill: #ffffff"/>
  </g>
  <g id="axes_1">
   <g id="patch_2">
    <path d="M 57.6 307.584 
L 414.72 307.584 
L 414.72 41.472 
L 57.6 41.472 
z
" style="fill: #ffffff"/>
   </g>
   <g id="matplotlib.axis_1">
    <g id="xtick_1">
     <g id="line2d_1">
      <path d="M 57.6 307.584 
L 57.6 41.472 
" clip-path="url(#pb32aee48f4)" style="fill: none; stroke-dasharray: 2.96,1.28; stroke-dashoffset: 0; stroke: #b0b0b0; stroke-width: 0.8"/>
     </g>
     <g id="line2d_2">
      <defs>
       <path id="m4210aa2ea6" d="M 0 0 
L 0 3.5 
" style="stroke: #000000; stroke-width: 0.8"/>
      </defs>
      <g>
       <use xlink:href="#m4210aa2ea6" x="57.6" y="307.584" style="stroke: #000000; stroke-width: 0.8"/>
      </g>
     </g>
     <g id="text_1">
      <!-- 0 -->
      <g transform="translate(54.41875 322.182437)scale(0.1 -0.1)">
       <defs>
        <path id="DejaVuSans-30" d="M 2034 4250 
Q 1547 4250 1301 3770 
Q 1056 3291 1056 2328 
Q 1056 1369 1301 889 
Q 1547 409 2034 409 
Q 2525 409 2770 889 
Q 3016 1369 3016 2328 
Q 3016 3291 2770 3770 
Q 2525 4250 2034 4250 
z
M 2034 4750 
Q 2819 4750 3233 4129 
Q 3647 3509 3647 2328 
Q 3647 1150 3233 529 
Q 2819 -91 2034 -91 
Q 1250 -91 836 529 
Q 422 1150 422 2328 
Q 422 3509 836 4129 
Q 1250 4750 2034 4750 
z
" transform="scale(0.015625)"/>
       </defs>
       <use xlink:href="#DejaVuSans-30"/>
      </g>
     </g>
    </g>
    <g id="xtick_2">
     <g id="line2d_3">
      <path d="M 97.28 307.584 
L 97.28 41.472 
" clip-path="url(#pb32aee48f4)" style="fill: none; stroke-dasharray: 2.96,1.28; stroke-dashoffset: 0; stroke: #b0b0b0; stroke-width: 0.8"/>
     </g>
     <g id="line2d_4">
      <g>
       <use xlink:href="#m4210aa2ea6" x="97.28" y="307.584" style="stroke: #000000; stroke-width: 0.8"/>
      </g>
     </g>
     <g id="text_2">
      <!-- 20 -->
      <g transform="translate(90.9175 322.182437)scale(0.1 -0.1)">
       <defs>
        <path id="DejaVuSans-32" d="M 1228 531 
L 3431 531 
L 3431 0 
L 469 0 
L 469 531 
Q 828 903 1448 1529 
Q 2069 2156 2228 2338 
Q 2531 2678 2651 2914 
Q 2772 3150 2772 3378 
Q 2772 3750 2511 3984 
Q 2250 4219 1831 4219 
Q 1534 4219 1204 4116 
Q 875 4013 500 3803 
L 500 4441 
Q 881 4594 1212 4672 
Q 1544 4750 1819 4750 
Q 2544 4750 2975 4387 
Q 3406 4025 3406 3419 
Q 3406 3131 3298 2873 
Q 3191 2616 2906 2266 
Q 2828 2175 2409 1742 
Q 1991 1309 1228 531 
z
" transform="scale(0.015625)"/>
       </defs>
       <use xlink:href="#DejaVuSans-32"/>
       <use xlink:href="#DejaVuSans-30" x="63.623047"/>
      </g>
     </g>
    </g>
    <g id="xtick_3">
     <g id="line2d_5">
      <path d="M 136.96 307.584 
L 136.96 41.472 
" clip-path="url(#pb32aee48f4)" style="fill: none; stroke-dasharray: 2.96,1.28; stroke-dashoffset: 0; stroke: #b0b0b0; stroke-width: 0.8"/>
     </g>
     <g id="line2d_6">
      <g>
       <use xlink:href="#m4210aa2ea6" x="136.96" y="307.584" style="stroke: #000000; stroke-width: 0.8"/>
      </g>
     </g>
     <g id="text_3">
      <!-- 40 -->
      <g transform="translate(130.5975 322.182437)scale(0.1 -0.1)">
       <defs>
        <path id="DejaVuSans-34" d="M 2419 4116 
L 825 1625 
L 2419 1625 
L 2419 4116 
z
M 2253 4666 
L 3047 4666 
L 3047 1625 
L 3713 1625 
L 3713 1100 
L 3047 1100 
L 3047 0 
L 2419 0 
L 2419 1100 
L 313 1100 
L 313 1709 
L 2253 4666 
z
" transform="scale(0.015625)"/>
       </defs>
       <use xlink:href="#DejaVuSans-34"/>
       <use xlink:href="#DejaVuSans-30" x="63.623047"/>
      </g>
     </g>
    </g>
    <g id="xtick_4">
     <g id="line2d_7">
      <path d="M 176.64 307.584 
L 176.64 41.472 
" clip-path="url(#pb32aee48f4)" style="fill: none; stroke-dasharray: 2.96,1.28; stroke-dashoffset: 0; stroke: #b0b0b0; stroke-width: 0.8"/>
     </g>
     <g id="line2d_8">
      <g>
       <use xlink:href="#m4210aa2ea6" x="176.64" y="307.584" style="stroke: #000000; stroke-width: 0.8"/>
      </g>
     </g>
     <g id="text_4">
      <!-- 60 -->
      <g transform="translate(170.2775 322.182437)scale(0.1 -0.1)">
       <defs>
        <path id="DejaVuSans-36" d="M 2113 2584 
Q 1688 2584 1439 2293 
Q 1191 2003 1191 1497 
Q 1191 994 1439 701 
Q 1688 409 2113 409 
Q 2538 409 2786 701 
Q 3034 994 3034 1497 
Q 3034 2003 2786 2293 
Q 2538 2584 2113 2584 
z
M 3366 4563 
L 3366 3988 
Q 3128 4100 2886 4159 
Q 2644 4219 2406 4219 
Q 1781 4219 1451 3797 
Q 1122 3375 1075 2522 
Q 1259 2794 1537 2939 
Q 1816 3084 2150 3084 
Q 2853 3084 3261 2657 
Q 3669 2231 3669 1497 
Q 3669 778 3244 343 
Q 2819 -91 2113 -91 
Q 1303 -91 875 529 
Q 447 1150 447 2328 
Q 447 3434 972 4092 
Q 1497 4750 2381 4750 
Q 2619 4750 2861 4703 
Q 3103 4656 3366 4563 
z
" transform="scale(0.015625)"/>
       </defs>
       <use xlink:href="#DejaVuSans-36"/>
       <use xlink:href="#DejaVuSans-30" x="63.623047"/>
      </g>
     </g>
    </g>
    <g id="xtick_5">
     <g id="line2d_9">
      <path d="M 216.32 307.584 
L 216.32 41.472 
" clip-path="url(#pb32aee48f4)" style="fill: none; stroke-dasharray: 2.96,1.28; stroke-dashoffset: 0; stroke: #b0b0b0; stroke-width: 0.8"/>
     </g>
     <g id="line2d_10">
      <g>
       <use xlink:href="#m4210aa2ea6" x="216.32" y="307.584" style="stroke: #000000; stroke-width: 0.8"/>
      </g>
     </g>
     <g id="text_5">
      <!-- 80 -->
      <g transform="translate(209.9575 322.182437)scale(0.1 -0.1)">
       <defs>
        <path id="DejaVuSans-38" d="M 2034 2216 
Q 1584 2216 1326 1975 
Q 1069 1734 1069 1313 
Q 1069 891 1326 650 
Q 1584 409 2034 409 
Q 2484 409 2743 651 
Q 3003 894 3003 1313 
Q 3003 1734 2745 1975 
Q 2488 2216 2034 2216 
z
M 1403 2484 
Q 997 2584 770 2862 
Q 544 3141 544 3541 
Q 544 4100 942 4425 
Q 1341 4750 2034 4750 
Q 2731 4750 3128 4425 
Q 3525 4100 3525 3541 
Q 3525 3141 3298 2862 
Q 3072 2584 2669 2484 
Q 3125 2378 3379 2068 
Q 3634 1759 3634 1313 
Q 3634 634 3220 271 
Q 2806 -91 2034 -91 
Q 1263 -91 848 271 
Q 434 634 434 1313 
Q 434 1759 690 2068 
Q 947 2378 1403 2484 
z
M 1172 3481 
Q 1172 3119 1398 2916 
Q 1625 2713 2034 2713 
Q 2441 2713 2670 2916 
Q 2900 3119 2900 3481 
Q 2900 3844 2670 4047 
Q 2441 4250 2034 4250 
Q 1625 4250 1398 4047 
Q 1172 3844 1172 3481 
z
" transform="scale(0.015625)"/>
       </defs>
       <use xlink:href="#DejaVuSans-38"/>
       <use xlink:href="#DejaVuSans-30" x="63.623047"/>
      </g>
     </g>
    </g>
    <g id="xtick_6">
     <g id="line2d_11">
      <path d="M 256 307.584 
L 256 41.472 
" clip-path="url(#pb32aee48f4)" style="fill: none; stroke-dasharray: 2.96,1.28; stroke-dashoffset: 0; stroke: #b0b0b0; stroke-width: 0.8"/>
     </g>
     <g id="line2d_12">
      <g>
       <use xlink:href="#m4210aa2ea6" x="256" y="307.584" style="stroke: #000000; stroke-width: 0.8"/>
      </g>
     </g>
     <g id="text_6">
      <!-- 100 -->
      <g transform="translate(246.45625 322.182437)scale(0.1 -0.1)">
       <defs>
        <path id="DejaVuSans-31" d="M 794 531 
L 1825 531 
L 1825 4091 
L 703 3866 
L 703 4441 
L 1819 4666 
L 2450 4666 
L 2450 531 
L 3481 531 
L 3481 0 
L 794 0 
L 794 531 
z
" transform="scale(0.015625)"/>
       </defs>
       <use xlink:href="#DejaVuSans-31"/>
       <use xlink:href="#DejaVuSans-30" x="63.623047"/>
       <use xlink:href="#DejaVuSans-30" x="127.246094"/>
      </g>
     </g>
    </g>
    <g id="xtick_7">
     <g id="line2d_13">
      <path d="M 295.68 307.584 
L 295.68 41.472 
" clip-path="url(#pb32aee48f4)" style="fill: none; stroke-dasharray: 2.96,1.28; stroke-dashoffset: 0; stroke: #b0b0b0; stroke-width: 0.8"/>
     </g>
     <g id="line2d_14">
      <g>
       <use xlink:href="#m4210aa2ea6" x="295.68" y="307.584" style="stroke: #000000; stroke-width: 0.8"/>
      </g>
     </g>
     <g id="text_7">
      <!-- 120 -->
      <g transform="translate(286.13625 322.182437)scale(0.1 -0.1)">
       <use xlink:href="#DejaVuSans-31"/>
       <use xlink:href="#DejaVuSans-32" x="63.623047"/>
       <use xlink:href="#DejaVuSans-30" x="127.246094"/>
      </g>
     </g>
    </g>
    <g id="xtick_8">
     <g id="line2d_15">
      <path d="M 335.36 307.584 
L 335.36 41.472 
" clip-path="url(#pb32aee48f4)" style="fill: none; stroke-dasharray: 2.96,1.28; stroke-dashoffset: 0; stroke: #b0b0b0; stroke-width: 0.8"/>
     </g>
     <g id="line2d_16">
      <g>
       <use xlink:href="#m4210aa2ea6" x="335.36" y="307.584" style="stroke: #000000; stroke-width: 0.8"/>
      </g>
     </g>
     <g id="text_8">
      <!-- 140 -->
      <g transform="translate(325.81625 322.182437)scale(0.1 -0.1)">
       <use xlink:href="#DejaVuSans-31"/>
       <use xlink:href="#DejaVuSans-34" x="63.623047"/>
       <use xlink:href="#DejaVuSans-30" x="127.246094"/>
      </g>
     </g>
    </g>
    <g id="xtick_9">
     <g id="line2d_17">
      <path d="M 375.04 307.584 
L 375.04 41.472 
" clip-path="url(#pb32aee48f4)" style="fill: none; stroke-dasharray: 2.96,1.28; stroke-dashoffset: 0; stroke: #b0b0b0; stroke-width: 0.8"/>
     </g>
     <g id="line2d_18">
      <g>
       <use xlink:href="#m4210aa2ea6" x="375.04" y="307.584" style="stroke: #000000; stroke-width: 0.8"/>
      </g>
     </g>
     <g id="text_9">
      <!-- 160 -->
      <g transform="translate(365.49625 322.182437)scale(0.1 -0.1)">
       <use xlink:href="#DejaVuSans-31"/>
       <use xlink:href="#DejaVuSans-36" x="63.623047"/>
       <use xlink:href="#DejaVuSans-30" x="127.246094"/>
      </g>
     </g>
    </g>
    <g id="xtick_10">
     <g id="line2d_19">
      <path d="M 414.72 307.584 
L 414.72 41.472 
" clip-path="url(#pb32aee48f4)" style="fill: none; stroke-dasharray: 2.96,1.28; stroke-dashoffset: 0; stroke: #b0b0b0; stroke-width: 0.8"/>
     </g>
     <g id="line2d_20">
      <g>
       <use xlink:href="#m4210aa2ea6" x="414.72" y="307.584" style="stroke: #000000; stroke-width: 0.8"/>
      </g>
     </g>
     <g id="text_10">
      <!-- 180 -->
      <g transform="translate(405.17625 322.182437)scale(0.1 -0.1)">
       <use xlink:href="#DejaVuSans-31"/>
       <use xlink:href="#DejaVuSans-38" x="63.623047"/>
       <use xlink:href="#DejaVuSans-30" x="127.246094"/>
      </g>
     </g>
    </g>
    <g id="text_11">
     <!-- Angle [deg] -->
     <g transform="translate(207.015469 335.860562)scale(0.1 -0.1)">
      <defs>
       <path id="DejaVuSans-41" d="M 2188 4044 
L 1331 1722 
L 3047 1722 
L 2188 4044 
z
M 1831 4666 
L 2547 4666 
L 4325 0 
L 3669 0 
L 3244 1197 
L 1141 1197 
L 716 0 
L 50 0 
L 1831 4666 
z
" transform="scale(0.015625)"/>
       <path id="DejaVuSans-6e" d="M 3513 2113 
L 3513 0 
L 2938 0 
L 2938 2094 
Q 2938 2591 2744 2837 
Q 2550 3084 2163 3084 
Q 1697 3084 1428 2787 
Q 1159 2491 1159 1978 
L 1159 0 
L 581 0 
L 581 3500 
L 1159 3500 
L 1159 2956 
Q 1366 3272 1645 3428 
Q 1925 3584 2291 3584 
Q 2894 3584 3203 3211 
Q 3513 2838 3513 2113 
z
" transform="scale(0.015625)"/>
       <path id="DejaVuSans-67" d="M 2906 1791 
Q 2906 2416 2648 2759 
Q 2391 3103 1925 3103 
Q 1463 3103 1205 2759 
Q 947 2416 947 1791 
Q 947 1169 1205 825 
Q 1463 481 1925 481 
Q 2391 481 2648 825 
Q 2906 1169 2906 1791 
z
M 3481 434 
Q 3481 -459 3084 -895 
Q 2688 -1331 1869 -1331 
Q 1566 -1331 1297 -1286 
Q 1028 -1241 775 -1147 
L 775 -588 
Q 1028 -725 1275 -790 
Q 1522 -856 1778 -856 
Q 2344 -856 2625 -561 
Q 2906 -266 2906 331 
L 2906 616 
Q 2728 306 2450 153 
Q 2172 0 1784 0 
Q 1141 0 747 490 
Q 353 981 353 1791 
Q 353 2603 747 3093 
Q 1141 3584 1784 3584 
Q 2172 3584 2450 3431 
Q 2728 3278 2906 2969 
L 2906 3500 
L 3481 3500 
L 3481 434 
z
" transform="scale(0.015625)"/>
       <path id="DejaVuSans-6c" d="M 603 4863 
L 1178 4863 
L 1178 0 
L 603 0 
L 603 4863 
z
" transform="scale(0.015625)"/>
       <path id="DejaVuSans-65" d="M 3597 1894 
L 3597 1613 
L 953 1613 
Q 991 1019 1311 708 
Q 1631 397 2203 397 
Q 2534 397 2845 478 
Q 3156 559 3463 722 
L 3463 178 
Q 3153 47 2828 -22 
Q 2503 -91 2169 -91 
Q 1331 -91 842 396 
Q 353 884 353 1716 
Q 353 2575 817 3079 
Q 1281 3584 2069 3584 
Q 2775 3584 3186 3129 
Q 3597 2675 3597 1894 
z
M 3022 2063 
Q 3016 2534 2758 2815 
Q 2500 3097 2075 3097 
Q 1594 3097 1305 2825 
Q 1016 2553 972 2059 
L 3022 2063 
z
" transform="scale(0.015625)"/>
       <path id="DejaVuSans-20" transform="scale(0.015625)"/>
       <path id="DejaVuSans-5b" d="M 550 4863 
L 1875 4863 
L 1875 4416 
L 1125 4416 
L 1125 -397 
L 1875 -397 
L 1875 -844 
L 550 -844 
L 550 4863 
z
" transform="scale(0.015625)"/>
       <path id="DejaVuSans-64" d="M 2906 2969 
L 2906 4863 
L 3481 4863 
L 3481 0 
L 2906 0 
L 2906 525 
Q 2725 213 2448 61 
Q 2172 -91 1784 -91 
Q 1150 -91 751 415 
Q 353 922 353 1747 
Q 353 2572 751 3078 
Q 1150 3584 1784 3584 
Q 2172 3584 2448 3432 
Q 2725 3281 2906 2969 
z
M 947 1747 
Q 947 1113 1208 752 
Q 1469 391 1925 391 
Q 2381 391 2643 752 
Q 2906 1113 2906 1747 
Q 2906 2381 2643 2742 
Q 2381 3103 1925 3103 
Q 1469 3103 1208 2742 
Q 947 2381 947 1747 
z
" transform="scale(0.015625)"/>
       <path id="DejaVuSans-5d" d="M 1947 4863 
L 1947 -844 
L 622 -844 
L 622 -397 
L 1369 -397 
L 1369 4416 
L 622 4416 
L 622 4863 
L 1947 4863 
z
" transform="scale(0.015625)"/>
      </defs>
      <use xlink:href="#DejaVuSans-41"/>
      <use xlink:href="#DejaVuSans-6e" x="68.408203"/>
      <use xlink:href="#DejaVuSans-67" x="131.787109"/>
      <use xlink:href="#DejaVuSans-6c" x="195.263672"/>
      <use xlink:href="#DejaVuSans-65" x="223.046875"/>
      <use xlink:href="#DejaVuSans-20" x="284.570312"/>
      <use xlink:href="#DejaVuSans-5b" x="316.357422"/>
      <use xlink:href="#DejaVuSans-64" x="355.371094"/>
      <use xlink:href="#DejaVuSans-65" x="418.847656"/>
      <use xlink:href="#DejaVuSans-67" x="480.371094"/>
      <use xlink:href="#DejaVuSans-5d" x="543.847656"/>
     </g>
    </g>
   </g>
   <g id="matplotlib.axis_2">
    <g id="ytick_1">
     <g id="line2d_21">
      <path d="M 57.6 289.455198 
L 414.72 289.455198 
" clip-path="url(#pb32aee48f4)" style="fill: none; stroke-dasharray: 2.96,1.28; stroke-dashoffset: 0; stroke: #b0b0b0; stroke-width: 0.8"/>
     </g>
     <g id="line2d_22">
      <defs>
       <path id="m9c3db8d379" d="M 0 0 
L -3.5 0 
" style="stroke: #000000; stroke-width: 0.8"/>
      </defs>
      <g>
       <use xlink:href="#m9c3db8d379" x="57.6" y="289.455198" style="stroke: #000000; stroke-width: 0.8"/>
      </g>
     </g>
     <g id="text_12">
      <!-- −50 -->
      <g transform="translate(29.495313 293.254417)scale(0.1 -0.1)">
       <defs>
        <path id="DejaVuSans-2212" d="M 678 2272 
L 4684 2272 
L 4684 1741 
L 678 1741 
L 678 2272 
z
" transform="scale(0.015625)"/>
        <path id="DejaVuSans-35" d="M 691 4666 
L 3169 4666 
L 3169 4134 
L 1269 4134 
L 1269 2991 
Q 1406 3038 1543 3061 
Q 1681 3084 1819 3084 
Q 2600 3084 3056 2656 
Q 3513 2228 3513 1497 
Q 3513 744 3044 326 
Q 2575 -91 1722 -91 
Q 1428 -91 1123 -41 
Q 819 9 494 109 
L 494 744 
Q 775 591 1075 516 
Q 1375 441 1709 441 
Q 2250 441 2565 725 
Q 2881 1009 2881 1497 
Q 2881 1984 2565 2268 
Q 2250 2553 1709 2553 
Q 1456 2553 1204 2497 
Q 953 2441 691 2322 
L 691 4666 
z
" transform="scale(0.015625)"/>
       </defs>
       <use xlink:href="#DejaVuSans-2212"/>
       <use xlink:href="#DejaVuSans-35" x="83.789062"/>
       <use xlink:href="#DejaVuSans-30" x="147.412109"/>
      </g>
     </g>
    </g>
    <g id="ytick_2">
     <g id="line2d_23">
      <path d="M 57.6 242.277758 
L 414.72 242.277758 
" clip-path="url(#pb32aee48f4)" style="fill: none; stroke-dasharray: 2.96,1.28; stroke-dashoffset: 0; stroke: #b0b0b0; stroke-width: 0.8"/>
     </g>
     <g id="line2d_24">
      <g>
       <use xlink:href="#m9c3db8d379" x="57.6" y="242.277758" style="stroke: #000000; stroke-width: 0.8"/>
      </g>
     </g>
     <g id="text_13">
      <!-- −40 -->
      <g transform="translate(29.495313 246.076977)scale(0.1 -0.1)">
       <use xlink:href="#DejaVuSans-2212"/>
       <use xlink:href="#DejaVuSans-34" x="83.789062"/>
       <use xlink:href="#DejaVuSans-30" x="147.412109"/>
      </g>
     </g>
    </g>
    <g id="ytick_3">
     <g id="line2d_25">
      <path d="M 57.6 195.100319 
L 414.72 195.100319 
" clip-path="url(#pb32aee48f4)" style="fill: none; stroke-dasharray: 2.96,1.28; stroke-dashoffset: 0; stroke: #b0b0b0; stroke-width: 0.8"/>
     </g>
     <g id="line2d_26">
      <g>
       <use xlink:href="#m9c3db8d379" x="57.6" y="195.100319" style="stroke: #000000; stroke-width: 0.8"/>
      </g>
     </g>
     <g id="text_14">
      <!-- −30 -->
      <g transform="translate(29.495313 198.899538)scale(0.1 -0.1)">
       <defs>
        <path id="DejaVuSans-33" d="M 2597 2516 
Q 3050 2419 3304 2112 
Q 3559 1806 3559 1356 
Q 3559 666 3084 287 
Q 2609 -91 1734 -91 
Q 1441 -91 1130 -33 
Q 819 25 488 141 
L 488 750 
Q 750 597 1062 519 
Q 1375 441 1716 441 
Q 2309 441 2620 675 
Q 2931 909 2931 1356 
Q 2931 1769 2642 2001 
Q 2353 2234 1838 2234 
L 1294 2234 
L 1294 2753 
L 1863 2753 
Q 2328 2753 2575 2939 
Q 2822 3125 2822 3475 
Q 2822 3834 2567 4026 
Q 2313 4219 1838 4219 
Q 1578 4219 1281 4162 
Q 984 4106 628 3988 
L 628 4550 
Q 988 4650 1302 4700 
Q 1616 4750 1894 4750 
Q 2613 4750 3031 4423 
Q 3450 4097 3450 3541 
Q 3450 3153 3228 2886 
Q 3006 2619 2597 2516 
z
" transform="scale(0.015625)"/>
       </defs>
       <use xlink:href="#DejaVuSans-2212"/>
       <use xlink:href="#DejaVuSans-33" x="83.789062"/>
       <use xlink:href="#DejaVuSans-30" x="147.412109"/>
      </g>
     </g>
    </g>
    <g id="ytick_4">
     <g id="line2d_27">
      <path d="M 57.6 147.922879 
L 414.72 147.922879 
" clip-path="url(#pb32aee48f4)" style="fill: none; stroke-dasharray: 2.96,1.28; stroke-dashoffset: 0; stroke: #b0b0b0; stroke-width: 0.8"/>
     </g>
     <g id="line2d_28">
      <g>
       <use xlink:href="#m9c3db8d379" x="57.6" y="147.922879" style="stroke: #000000; stroke-width: 0.8"/>
      </g>
     </g>
     <g id="text_15">
      <!-- −20 -->
      <g transform="translate(29.495313 151.722098)scale(0.1 -0.1)">
       <use xlink:href="#DejaVuSans-2212"/>
       <use xlink:href="#DejaVuSans-32" x="83.789062"/>
       <use xlink:href="#DejaVuSans-30" x="147.412109"/>
      </g>
     </g>
    </g>
    <g id="ytick_5">
     <g id="line2d_29">
      <path d="M 57.6 100.74544 
L 414.72 100.74544 
" clip-path="url(#pb32aee48f4)" style="fill: none; stroke-dasharray: 2.96,1.28; stroke-dashoffset: 0; stroke: #b0b0b0; stroke-width: 0.8"/>
     </g>
     <g id="line2d_30">
      <g>
       <use xlink:href="#m9c3db8d379" x="57.6" y="100.74544" style="stroke: #000000; stroke-width: 0.8"/>
      </g>
     </g>
     <g id="text_16">
      <!-- −10 -->
      <g transform="translate(29.495313 104.544658)scale(0.1 -0.1)">
       <use xlink:href="#DejaVuSans-2212"/>
       <use xlink:href="#DejaVuSans-31" x="83.789062"/>
       <use xlink:href="#DejaVuSans-30" x="147.412109"/>
      </g>
     </g>
    </g>
    <g id="ytick_6">
     <g id="line2d_31">
      <path d="M 57.6 53.568 
L 414.72 53.568 
" clip-path="url(#pb32aee48f4)" style="fill: none; stroke-dasharray: 2.96,1.28; stroke-dashoffset: 0; stroke: #b0b0b0; stroke-width: 0.8"/>
     </g>
     <g id="line2d_32">
      <g>
       <use xlink:href="#m9c3db8d379" x="57.6" y="53.568" style="stroke: #000000; stroke-width: 0.8"/>
      </g>
     </g>
     <g id="text_17">
      <!-- 0 -->
      <g transform="translate(44.2375 57.367219)scale(0.1 -0.1)">
       <use xlink:href="#DejaVuSans-30"/>
      </g>
     </g>
    </g>
    <g id="text_18">
     <!-- Amplitude [dB] -->
     <g transform="translate(23.415625 212.245969)rotate(-90)scale(0.1 -0.1)">
      <defs>
       <path id="DejaVuSans-6d" d="M 3328 2828 
Q 3544 3216 3844 3400 
Q 4144 3584 4550 3584 
Q 5097 3584 5394 3201 
Q 5691 2819 5691 2113 
L 5691 0 
L 5113 0 
L 5113 2094 
Q 5113 2597 4934 2840 
Q 4756 3084 4391 3084 
Q 3944 3084 3684 2787 
Q 3425 2491 3425 1978 
L 3425 0 
L 2847 0 
L 2847 2094 
Q 2847 2600 2669 2842 
Q 2491 3084 2119 3084 
Q 1678 3084 1418 2786 
Q 1159 2488 1159 1978 
L 1159 0 
L 581 0 
L 581 3500 
L 1159 3500 
L 1159 2956 
Q 1356 3278 1631 3431 
Q 1906 3584 2284 3584 
Q 2666 3584 2933 3390 
Q 3200 3197 3328 2828 
z
" transform="scale(0.015625)"/>
       <path id="DejaVuSans-70" d="M 1159 525 
L 1159 -1331 
L 581 -1331 
L 581 3500 
L 1159 3500 
L 1159 2969 
Q 1341 3281 1617 3432 
Q 1894 3584 2278 3584 
Q 2916 3584 3314 3078 
Q 3713 2572 3713 1747 
Q 3713 922 3314 415 
Q 2916 -91 2278 -91 
Q 1894 -91 1617 61 
Q 1341 213 1159 525 
z
M 3116 1747 
Q 3116 2381 2855 2742 
Q 2594 3103 2138 3103 
Q 1681 3103 1420 2742 
Q 1159 2381 1159 1747 
Q 1159 1113 1420 752 
Q 1681 391 2138 391 
Q 2594 391 2855 752 
Q 3116 1113 3116 1747 
z
" transform="scale(0.015625)"/>
       <path id="DejaVuSans-69" d="M 603 3500 
L 1178 3500 
L 1178 0 
L 603 0 
L 603 3500 
z
M 603 4863 
L 1178 4863 
L 1178 4134 
L 603 4134 
L 603 4863 
z
" transform="scale(0.015625)"/>
       <path id="DejaVuSans-74" d="M 1172 4494 
L 1172 3500 
L 2356 3500 
L 2356 3053 
L 1172 3053 
L 1172 1153 
Q 1172 725 1289 603 
Q 1406 481 1766 481 
L 2356 481 
L 2356 0 
L 1766 0 
Q 1100 0 847 248 
Q 594 497 594 1153 
L 594 3053 
L 172 3053 
L 172 3500 
L 594 3500 
L 594 4494 
L 1172 4494 
z
" transform="scale(0.015625)"/>
       <path id="DejaVuSans-75" d="M 544 1381 
L 544 3500 
L 1119 3500 
L 1119 1403 
Q 1119 906 1312 657 
Q 1506 409 1894 409 
Q 2359 409 2629 706 
Q 2900 1003 2900 1516 
L 2900 3500 
L 3475 3500 
L 3475 0 
L 2900 0 
L 2900 538 
Q 2691 219 2414 64 
Q 2138 -91 1772 -91 
Q 1169 -91 856 284 
Q 544 659 544 1381 
z
M 1991 3584 
L 1991 3584 
z
" transform="scale(0.015625)"/>
       <path id="DejaVuSans-42" d="M 1259 2228 
L 1259 519 
L 2272 519 
Q 2781 519 3026 730 
Q 3272 941 3272 1375 
Q 3272 1813 3026 2020 
Q 2781 2228 2272 2228 
L 1259 2228 
z
M 1259 4147 
L 1259 2741 
L 2194 2741 
Q 2656 2741 2882 2914 
Q 3109 3088 3109 3444 
Q 3109 3797 2882 3972 
Q 2656 4147 2194 4147 
L 1259 4147 
z
M 628 4666 
L 2241 4666 
Q 2963 4666 3353 4366 
Q 3744 4066 3744 3513 
Q 3744 3084 3544 2831 
Q 3344 2578 2956 2516 
Q 3422 2416 3680 2098 
Q 3938 1781 3938 1306 
Q 3938 681 3513 340 
Q 3088 0 2303 0 
L 628 0 
L 628 4666 
z
" transform="scale(0.015625)"/>
      </defs>
      <use xlink:href="#DejaVuSans-41"/>
      <use xlink:href="#DejaVuSans-6d" x="68.408203"/>
      <use xlink:href="#DejaVuSans-70" x="165.820312"/>
      <use xlink:href="#DejaVuSans-6c" x="229.296875"/>
      <use xlink:href="#DejaVuSans-69" x="257.080078"/>
      <use xlink:href="#DejaVuSans-74" x="284.863281"/>
      <use xlink:href="#DejaVuSans-75" x="324.072266"/>
      <use xlink:href="#DejaVuSans-64" x="387.451172"/>
      <use xlink:href="#DejaVuSans-65" x="450.927734"/>
      <use xlink:href="#DejaVuSans-20" x="512.451172"/>
      <use xlink:href="#DejaVuSans-5b" x="544.238281"/>
      <use xlink:href="#DejaVuSans-64" x="583.251953"/>
      <use xlink:href="#DejaVuSans-42" x="646.728516"/>
      <use xlink:href="#DejaVuSans-5d" x="715.332031"/>
     </g>
    </g>
   </g>
   <g id="line2d_33">
    <path d="M 57.6 115.816935 
L 57.997241 110.652403 
L 67.928276 110.652403 
L 68.325517 117.003071 
L 77.064828 117.003071 
L 77.462069 114.10207 
L 81.434483 114.10207 
L 81.831724 109.609115 
L 84.215172 109.609115 
L 84.612414 111.069916 
L 87.790345 111.069916 
L 88.187586 117.245379 
L 89.776552 117.245379 
L 90.173793 121.664552 
L 91.365517 121.664552 
L 91.762759 117.334892 
L 99.310345 117.334892 
L 99.707586 112.799213 
L 105.666207 112.799213 
L 106.063448 110.593883 
L 106.857931 110.593883 
L 107.255172 114.25804 
L 108.049655 114.25804 
L 108.446897 121.150071 
L 110.035862 121.150071 
L 110.433103 122.417338 
L 111.624828 122.417338 
L 112.022069 121.202525 
L 115.597241 121.236825 
L 115.994483 128.506984 
L 116.788966 128.506984 
L 117.186207 128.714808 
L 119.172414 128.714808 
L 119.569655 128.185274 
L 121.555862 128.185274 
L 121.953103 129.899576 
L 122.747586 129.899576 
L 123.144828 138.743904 
L 124.733793 138.743904 
L 125.131034 139.845208 
L 126.322759 139.845208 
L 126.72 145.294919 
L 127.514483 145.294919 
L 127.911724 143.117144 
L 128.706207 143.117144 
L 129.103448 148.234002 
L 129.897931 148.234002 
L 130.295172 162.510907 
L 130.692414 162.510907 
L 131.089655 191.148018 
L 134.664828 191.148018 
L 135.062069 165.680264 
L 138.637241 165.680264 
L 139.034483 188.876831 
L 139.431724 188.876831 
L 139.828966 171.433704 
L 140.226207 171.433704 
L 140.623448 151.468216 
L 141.417931 151.468216 
L 141.815172 141.826171 
L 142.212414 141.826171 
L 142.609655 140.072362 
L 143.801379 140.072362 
L 144.198621 132.713167 
L 145.390345 132.713167 
L 145.787586 123.981852 
L 146.184828 123.981852 
L 146.582069 120.452117 
L 147.773793 120.452117 
L 148.171034 115.344251 
L 149.76 115.344251 
L 150.554483 106.623121 
L 151.746207 106.623121 
L 152.143448 103.085516 
L 152.937931 103.085516 
L 153.335172 99.511328 
L 153.732414 99.511328 
L 154.129655 98.23156 
L 154.924138 98.23156 
L 155.321379 94.851249 
L 155.718621 94.851249 
L 156.115862 91.034462 
L 156.513103 91.034462 
L 156.910345 87.994186 
L 159.691034 87.994186 
L 160.088276 84.746985 
L 162.868966 84.746985 
L 163.663448 79.154829 
L 164.06069 79.154829 
L 164.457931 77.459729 
L 165.252414 77.459729 
L 165.649655 77.010012 
L 166.046897 77.010012 
L 166.444138 74.503486 
L 166.841379 74.503486 
L 167.238621 73.141429 
L 168.430345 73.141429 
L 168.827586 71.847569 
L 169.224828 69.636719 
L 170.416552 69.636719 
L 170.813793 68.56839 
L 172.005517 68.56839 
L 172.402759 66.574183 
L 172.8 66.574183 
L 173.197241 65.627751 
L 173.991724 65.627751 
L 174.388966 64.749603 
L 174.786207 64.749603 
L 175.183448 63.016307 
L 175.58069 63.016307 
L 175.977931 62.896061 
L 176.772414 62.896061 
L 177.169655 62.198779 
L 177.566897 62.198779 
L 178.361379 59.558924 
L 180.744828 59.558924 
L 181.142069 58.499708 
L 183.525517 58.499708 
L 183.922759 57.407391 
L 184.32 56.668199 
L 184.717241 56.668199 
L 185.114483 56.303991 
L 186.306207 56.324361 
L 186.703448 55.461861 
L 187.497931 55.461861 
L 187.895172 55.248049 
L 188.689655 55.248049 
L 189.086897 55.055592 
L 189.484138 54.405858 
L 190.675862 54.405858 
L 191.073103 54.218949 
L 191.867586 54.218949 
L 192.264828 53.777458 
L 194.648276 53.801666 
L 195.045517 53.568 
L 195.442759 53.568 
L 195.84 53.69866 
L 199.812414 53.777458 
L 200.209655 54.218949 
L 202.593103 54.218949 
L 203.387586 54.954911 
L 203.784828 54.954911 
L 204.182069 55.248049 
L 204.57931 55.248049 
L 204.976552 55.488145 
L 205.373793 55.488145 
L 205.771034 56.09913 
L 206.168276 56.09913 
L 206.565517 56.74724 
L 207.36 56.74724 
L 207.757241 57.212527 
L 208.154483 58.051734 
L 209.346207 58.051734 
L 209.743448 58.499708 
L 210.537931 58.499708 
L 210.935172 59.558924 
L 211.332414 60.170641 
L 212.126897 60.170641 
L 212.524138 61.185721 
L 212.921379 61.185721 
L 213.318621 62.499583 
L 213.715862 62.499583 
L 214.113103 62.896061 
L 214.510345 62.896061 
L 214.907586 63.721943 
L 215.304828 63.721943 
L 215.702069 64.9593 
L 216.09931 66.574183 
L 218.085517 66.574183 
L 218.482759 68.56839 
L 220.866207 68.56839 
L 221.66069 72.420703 
L 222.057931 73.753391 
L 222.852414 73.753391 
L 223.249655 74.384909 
L 223.646897 76.836594 
L 224.044138 76.836594 
L 224.441379 78.816647 
L 225.235862 78.816647 
L 225.633103 80.534677 
L 226.030345 80.534677 
L 226.427586 83.449726 
L 227.222069 83.449726 
L 227.61931 84.746985 
L 228.413793 84.746985 
L 229.208276 90.354977 
L 230.002759 90.354977 
L 230.4 93.102879 
L 230.797241 93.102879 
L 231.194483 97.06721 
L 231.591724 97.06721 
L 231.988966 98.23156 
L 232.386207 98.23156 
L 232.783448 101.32364 
L 233.18069 101.32364 
L 233.975172 111.478299 
L 238.344828 111.478299 
L 238.742069 115.344251 
L 239.13931 121.807004 
L 239.536552 121.807004 
L 239.933793 130.314157 
L 240.331034 130.314157 
L 240.728276 135.086447 
L 241.125517 135.086447 
L 241.522759 138.973263 
L 241.92 138.973263 
L 242.317241 149.120189 
L 243.111724 149.120189 
L 243.508966 167.6835 
L 243.906207 161.602418 
L 244.70069 161.602418 
L 245.097931 188.876831 
L 245.892414 188.876831 
L 246.289655 165.680264 
L 246.686897 165.680264 
L 247.084138 166.705336 
L 247.878621 166.705336 
L 248.275862 167.065474 
L 248.673103 167.065474 
L 249.070345 150.976972 
L 249.467586 156.855189 
L 250.262069 156.855189 
L 251.056552 132.734427 
L 251.453793 128.308688 
L 253.837241 128.308688 
L 254.234483 129.899576 
L 256.22069 129.899576 
L 256.617931 128.185274 
L 257.015172 120.5597 
L 257.412414 120.5597 
L 257.809655 114.371264 
L 258.206897 114.371264 
L 258.604138 113.885086 
L 259.001379 113.885086 
L 259.398621 114.325391 
L 260.987586 114.295498 
L 261.384828 108.373896 
L 261.782069 109.661066 
L 262.576552 109.661066 
L 262.973793 110.593883 
L 264.165517 110.593883 
L 264.562759 112.799213 
L 264.96 107.058508 
L 265.754483 107.058508 
L 266.151724 108.230918 
L 266.548966 108.230918 
L 266.946207 111.094436 
L 267.343448 111.094436 
L 267.74069 109.637142 
L 268.137931 109.637142 
L 268.535172 104.332262 
L 268.932414 104.332262 
L 269.329655 102.705094 
L 269.726897 105.960492 
L 272.110345 105.960492 
L 272.507586 110.652403 
L 274.493793 110.652403 
L 274.891034 115.816935 
L 275.288276 113.93911 
L 275.685517 113.93911 
L 276.082759 108.023114 
L 276.48 108.023114 
L 276.877241 106.600213 
L 277.274483 106.600213 
L 277.671724 111.777 
L 278.068966 111.777 
L 278.466207 116.465592 
L 279.26069 116.465592 
L 279.657931 110.499932 
L 280.055172 110.499932 
L 280.452414 116.530904 
L 281.246897 116.530904 
L 281.644138 120.177811 
L 282.835862 120.177811 
L 283.233103 128.247311 
L 283.630345 120.554182 
L 284.424828 120.554182 
L 284.822069 128.604945 
L 285.616552 128.604945 
L 286.013793 138.895511 
L 286.411034 133.739141 
L 287.205517 133.739141 
L 287.602759 126.332216 
L 288 126.332216 
L 288.397241 129.423118 
L 288.794483 139.895 
L 291.177931 139.895 
L 291.575172 152.145633 
L 293.958621 152.145633 
L 294.355862 171.367251 
L 294.753103 177.926259 
L 295.150345 177.926259 
L 295.547586 155.197963 
L 296.342069 155.197963 
L 296.73931 153.665285 
L 297.136552 153.665285 
L 297.533793 171.330247 
L 297.931034 171.330247 
L 298.328276 292.946648 
L 299.122759 292.946648 
L 299.52 187.843882 
L 299.917241 187.843882 
L 300.314483 295.488 
L 301.506207 295.488 
L 301.903448 192.519952 
L 303.095172 192.519952 
L 303.492414 181.250551 
L 303.889655 192.217395 
L 305.081379 192.217395 
L 305.478621 154.58081 
L 305.875862 154.58081 
L 306.273103 149.599231 
L 306.670345 149.599231 
L 307.067586 157.384985 
L 307.862069 157.384985 
L 308.25931 170.57762 
L 308.656552 170.57762 
L 309.053793 151.233402 
L 309.451034 147.800204 
L 312.231724 147.800204 
L 312.628966 143.024667 
L 315.409655 143.024667 
L 315.806897 143.490209 
L 316.204138 143.490209 
L 316.601379 132.374407 
L 316.998621 132.374407 
L 317.395862 134.592413 
L 318.190345 134.592413 
L 318.587586 144.432968 
L 318.984828 144.432968 
L 319.382069 146.378441 
L 320.176552 146.378441 
L 320.573793 125.746463 
L 321.765517 125.746463 
L 322.162759 127.929555 
L 322.56 130.748685 
L 324.148966 130.748685 
L 324.546207 126.071047 
L 325.737931 126.071047 
L 326.135172 129.80578 
L 326.532414 129.80578 
L 326.929655 130.949945 
L 328.121379 130.949945 
L 328.518621 116.726152 
L 329.710345 116.726152 
L 330.107586 120.738173 
L 330.504828 120.738173 
L 330.902069 126.218079 
L 331.696552 126.218079 
L 332.093793 126.92163 
L 332.491034 126.92163 
L 332.888276 119.586723 
L 333.285517 119.586723 
L 333.682759 124.759265 
L 337.257931 124.759265 
L 337.655172 130.199648 
L 341.230345 130.199648 
L 341.627586 139.366643 
L 342.024828 139.366643 
L 342.422069 130.054622 
L 343.216552 130.054622 
L 343.613793 128.904336 
L 344.408276 128.904336 
L 344.805517 137.696089 
L 345.6 137.696089 
L 345.997241 149.895158 
L 347.188966 149.895158 
L 347.586207 128.763389 
L 349.175172 128.763389 
L 349.572414 127.462417 
L 350.366897 127.462417 
L 350.764138 137.210774 
L 352.750345 137.210774 
L 353.147586 140.95874 
L 355.133793 140.95874 
L 355.531034 155.608547 
L 356.325517 155.608547 
L 356.722759 147.146673 
L 358.708966 147.146673 
L 359.106207 132.915488 
L 360.297931 132.915488 
L 360.695172 144.431133 
L 361.886897 144.431133 
L 362.284138 158.460063 
L 363.873103 158.460063 
L 364.270345 149.061905 
L 365.064828 149.061905 
L 365.462069 145.106725 
L 366.256552 145.106725 
L 366.653793 160.657264 
L 372.612414 160.657264 
L 373.009655 187.220789 
L 380.557241 187.220789 
L 380.954483 198.348213 
L 382.146207 198.348213 
L 382.543448 228.403354 
L 384.132414 228.403354 
L 384.529655 184.627589 
L 387.707586 184.627589 
L 388.104828 241.111986 
L 390.488276 241.111986 
L 390.885517 182.378806 
L 394.857931 182.378806 
L 395.255172 217.703984 
L 403.994483 217.703984 
L 404.391724 193.885287 
L 414.322759 193.885287 
L 414.72 187.841953 
L 414.72 187.841953 
" clip-path="url(#pb32aee48f4)" style="fill: none; stroke: #1f77b4; stroke-width: 1.5; stroke-linecap: square"/>
   </g>
   <g id="patch_3">
    <path d="M 57.6 307.584 
L 57.6 41.472 
" style="fill: none; stroke: #000000; stroke-width: 0.8; stroke-linejoin: miter; stroke-linecap: square"/>
   </g>
   <g id="patch_4">
    <path d="M 414.72 307.584 
L 414.72 41.472 
" style="fill: none; stroke: #000000; stroke-width: 0.8; stroke-linejoin: miter; stroke-linecap: square"/>
   </g>
   <g id="patch_5">
    <path d="M 57.6 307.584 
L 414.72 307.584 
" style="fill: none; stroke: #000000; stroke-width: 0.8; stroke-linejoin: miter; stroke-linecap: square"/>
   </g>
   <g id="patch_6">
    <path d="M 57.6 41.472 
L 414.72 41.472 
" style="fill: none; stroke: #000000; stroke-width: 0.8; stroke-linejoin: miter; stroke-linecap: square"/>
   </g>
  </g>
 </g>
 <defs>
  <clipPath id="pb32aee48f4">
   <rect x="57.6" y="41.472" width="357.12" height="266.112"/>
  </clipPath>
 </defs>
</svg>
