<?xml version="1.0" encoding="utf-8" standalone="no"?>
<!DOCTYPE svg PUBLIC "-//W3C//DTD SVG 1.1//EN"
  "http://www.w3.org/Graphics/SVG/1.1/DTD/svg11.dtd">
<svg xmlns:xlink="http://www.w3.org/1999/xlink" width="817.553608pt" height="302.4pt" viewBox="0 0 817.553608 302.4" xmlns="http://www.w3.org/2000/svg" version="1.1">
 <metadata>
  <rdf:RDF xmlns:dc="http://purl.org/dc/elements/1.1/" xmlns:cc="http://creativecommons.org/ns#" xmlns:rdf="http://www.w3.org/1999/02/22-rdf-syntax-ns#">
   <cc:Work>
    <dc:type rdf:resource="http://purl.org/dc/dcmitype/StillImage"/>
    <dc:date>2023-10-24T23:01:30.181736</dc:date>
    <dc:format>image/svg+xml</dc:format>
    <dc:creator>
     <cc:Agent>
      <dc:title>Matplotlib v3.5.2, https://matplotlib.org/</dc:title>
     </cc:Agent>
    </dc:creator>
   </cc:Work>
  </rdf:RDF>
 </metadata>
 <defs>
  <style type="text/css">*{stroke-linejoin: round; stroke-linecap: butt}</style>
 </defs>
 <g id="figure_1">
  <g id="patch_1">
   <path d="M 0 302.4 
L 817.553608 302.4 
L 817.553608 0 
L 0 0 
z
" style="fill: #ffffff"/>
  </g>
  <g id="axes_1">
   <g id="patch_2">
    <path d="M 41.782813 233.651747 
L 432.343722 233.651747 
L 432.343722 68.748253 
L 41.782813 68.748253 
z
" style="fill: #ffffff"/>
   </g>
   <g id="matplotlib.axis_1">
    <g id="xtick_1">
     <g id="line2d_1">
      <path d="M 41.782813 233.651747 
L 41.782813 68.748253 
" clip-path="url(#pdf9ae67b27)" style="fill: none; stroke-dasharray: 2.96,1.28; stroke-dashoffset: 0; stroke: #b0b0b0; stroke-width: 0.8"/>
     </g>
     <g id="line2d_2">
      <defs>
       <path id="m5cbb1e9689" d="M 0 0 
L 0 3.5 
" style="stroke: #000000; stroke-width: 0.8"/>
      </defs>
      <g>
       <use xlink:href="#m5cbb1e9689" x="41.782813" y="233.651747" style="stroke: #000000; stroke-width: 0.8"/>
      </g>
     </g>
     <g id="text_1">
      <!-- 0 -->
      <g transform="translate(38.601563 248.250185)scale(0.1 -0.1)">
       <defs>
        <path id="DejaVuSans-30" d="M 2034 4250 
Q 1547 4250 1301 3770 
Q 1056 3291 1056 2328 
Q 1056 1369 1301 889 
Q 1547 409 2034 409 
Q 2525 409 2770 889 
Q 3016 1369 3016 2328 
Q 3016 3291 2770 3770 
Q 2525 4250 2034 4250 
z
M 2034 4750 
Q 2819 4750 3233 4129 
Q 3647 3509 3647 2328 
Q 3647 1150 3233 529 
Q 2819 -91 2034 -91 
Q 1250 -91 836 529 
Q 422 1150 422 2328 
Q 422 3509 836 4129 
Q 1250 4750 2034 4750 
z
" transform="scale(0.015625)"/>
       </defs>
       <use xlink:href="#DejaVuSans-30"/>
      </g>
     </g>
    </g>
    <g id="xtick_2">
     <g id="line2d_3">
      <path d="M 85.178469 233.651747 
L 85.178469 68.748253 
" clip-path="url(#pdf9ae67b27)" style="fill: none; stroke-dasharray: 2.96,1.28; stroke-dashoffset: 0; stroke: #b0b0b0; stroke-width: 0.8"/>
     </g>
     <g id="line2d_4">
      <g>
       <use xlink:href="#m5cbb1e9689" x="85.178469" y="233.651747" style="stroke: #000000; stroke-width: 0.8"/>
      </g>
     </g>
     <g id="text_2">
      <!-- 20 -->
      <g transform="translate(78.815969 248.250185)scale(0.1 -0.1)">
       <defs>
        <path id="DejaVuSans-32" d="M 1228 531 
L 3431 531 
L 3431 0 
L 469 0 
L 469 531 
Q 828 903 1448 1529 
Q 2069 2156 2228 2338 
Q 2531 2678 2651 2914 
Q 2772 3150 2772 3378 
Q 2772 3750 2511 3984 
Q 2250 4219 1831 4219 
Q 1534 4219 1204 4116 
Q 875 4013 500 3803 
L 500 4441 
Q 881 4594 1212 4672 
Q 1544 4750 1819 4750 
Q 2544 4750 2975 4387 
Q 3406 4025 3406 3419 
Q 3406 3131 3298 2873 
Q 3191 2616 2906 2266 
Q 2828 2175 2409 1742 
Q 1991 1309 1228 531 
z
" transform="scale(0.015625)"/>
       </defs>
       <use xlink:href="#DejaVuSans-32"/>
       <use xlink:href="#DejaVuSans-30" x="63.623047"/>
      </g>
     </g>
    </g>
    <g id="xtick_3">
     <g id="line2d_5">
      <path d="M 128.574126 233.651747 
L 128.574126 68.748253 
" clip-path="url(#pdf9ae67b27)" style="fill: none; stroke-dasharray: 2.96,1.28; stroke-dashoffset: 0; stroke: #b0b0b0; stroke-width: 0.8"/>
     </g>
     <g id="line2d_6">
      <g>
       <use xlink:href="#m5cbb1e9689" x="128.574126" y="233.651747" style="stroke: #000000; stroke-width: 0.8"/>
      </g>
     </g>
     <g id="text_3">
      <!-- 40 -->
      <g transform="translate(122.211626 248.250185)scale(0.1 -0.1)">
       <defs>
        <path id="DejaVuSans-34" d="M 2419 4116 
L 825 1625 
L 2419 1625 
L 2419 4116 
z
M 2253 4666 
L 3047 4666 
L 3047 1625 
L 3713 1625 
L 3713 1100 
L 3047 1100 
L 3047 0 
L 2419 0 
L 2419 1100 
L 313 1100 
L 313 1709 
L 2253 4666 
z
" transform="scale(0.015625)"/>
       </defs>
       <use xlink:href="#DejaVuSans-34"/>
       <use xlink:href="#DejaVuSans-30" x="63.623047"/>
      </g>
     </g>
    </g>
    <g id="xtick_4">
     <g id="line2d_7">
      <path d="M 171.969782 233.651747 
L 171.969782 68.748253 
" clip-path="url(#pdf9ae67b27)" style="fill: none; stroke-dasharray: 2.96,1.28; stroke-dashoffset: 0; stroke: #b0b0b0; stroke-width: 0.8"/>
     </g>
     <g id="line2d_8">
      <g>
       <use xlink:href="#m5cbb1e9689" x="171.969782" y="233.651747" style="stroke: #000000; stroke-width: 0.8"/>
      </g>
     </g>
     <g id="text_4">
      <!-- 60 -->
      <g transform="translate(165.607282 248.250185)scale(0.1 -0.1)">
       <defs>
        <path id="DejaVuSans-36" d="M 2113 2584 
Q 1688 2584 1439 2293 
Q 1191 2003 1191 1497 
Q 1191 994 1439 701 
Q 1688 409 2113 409 
Q 2538 409 2786 701 
Q 3034 994 3034 1497 
Q 3034 2003 2786 2293 
Q 2538 2584 2113 2584 
z
M 3366 4563 
L 3366 3988 
Q 3128 4100 2886 4159 
Q 2644 4219 2406 4219 
Q 1781 4219 1451 3797 
Q 1122 3375 1075 2522 
Q 1259 2794 1537 2939 
Q 1816 3084 2150 3084 
Q 2853 3084 3261 2657 
Q 3669 2231 3669 1497 
Q 3669 778 3244 343 
Q 2819 -91 2113 -91 
Q 1303 -91 875 529 
Q 447 1150 447 2328 
Q 447 3434 972 4092 
Q 1497 4750 2381 4750 
Q 2619 4750 2861 4703 
Q 3103 4656 3366 4563 
z
" transform="scale(0.015625)"/>
       </defs>
       <use xlink:href="#DejaVuSans-36"/>
       <use xlink:href="#DejaVuSans-30" x="63.623047"/>
      </g>
     </g>
    </g>
    <g id="xtick_5">
     <g id="line2d_9">
      <path d="M 215.365439 233.651747 
L 215.365439 68.748253 
" clip-path="url(#pdf9ae67b27)" style="fill: none; stroke-dasharray: 2.96,1.28; stroke-dashoffset: 0; stroke: #b0b0b0; stroke-width: 0.8"/>
     </g>
     <g id="line2d_10">
      <g>
       <use xlink:href="#m5cbb1e9689" x="215.365439" y="233.651747" style="stroke: #000000; stroke-width: 0.8"/>
      </g>
     </g>
     <g id="text_5">
      <!-- 80 -->
      <g transform="translate(209.002939 248.250185)scale(0.1 -0.1)">
       <defs>
        <path id="DejaVuSans-38" d="M 2034 2216 
Q 1584 2216 1326 1975 
Q 1069 1734 1069 1313 
Q 1069 891 1326 650 
Q 1584 409 2034 409 
Q 2484 409 2743 651 
Q 3003 894 3003 1313 
Q 3003 1734 2745 1975 
Q 2488 2216 2034 2216 
z
M 1403 2484 
Q 997 2584 770 2862 
Q 544 3141 544 3541 
Q 544 4100 942 4425 
Q 1341 4750 2034 4750 
Q 2731 4750 3128 4425 
Q 3525 4100 3525 3541 
Q 3525 3141 3298 2862 
Q 3072 2584 2669 2484 
Q 3125 2378 3379 2068 
Q 3634 1759 3634 1313 
Q 3634 634 3220 271 
Q 2806 -91 2034 -91 
Q 1263 -91 848 271 
Q 434 634 434 1313 
Q 434 1759 690 2068 
Q 947 2378 1403 2484 
z
M 1172 3481 
Q 1172 3119 1398 2916 
Q 1625 2713 2034 2713 
Q 2441 2713 2670 2916 
Q 2900 3119 2900 3481 
Q 2900 3844 2670 4047 
Q 2441 4250 2034 4250 
Q 1625 4250 1398 4047 
Q 1172 3844 1172 3481 
z
" transform="scale(0.015625)"/>
       </defs>
       <use xlink:href="#DejaVuSans-38"/>
       <use xlink:href="#DejaVuSans-30" x="63.623047"/>
      </g>
     </g>
    </g>
    <g id="xtick_6">
     <g id="line2d_11">
      <path d="M 258.761095 233.651747 
L 258.761095 68.748253 
" clip-path="url(#pdf9ae67b27)" style="fill: none; stroke-dasharray: 2.96,1.28; stroke-dashoffset: 0; stroke: #b0b0b0; stroke-width: 0.8"/>
     </g>
     <g id="line2d_12">
      <g>
       <use xlink:href="#m5cbb1e9689" x="258.761095" y="233.651747" style="stroke: #000000; stroke-width: 0.8"/>
      </g>
     </g>
     <g id="text_6">
      <!-- 100 -->
      <g transform="translate(249.217345 248.250185)scale(0.1 -0.1)">
       <defs>
        <path id="DejaVuSans-31" d="M 794 531 
L 1825 531 
L 1825 4091 
L 703 3866 
L 703 4441 
L 1819 4666 
L 2450 4666 
L 2450 531 
L 3481 531 
L 3481 0 
L 794 0 
L 794 531 
z
" transform="scale(0.015625)"/>
       </defs>
       <use xlink:href="#DejaVuSans-31"/>
       <use xlink:href="#DejaVuSans-30" x="63.623047"/>
       <use xlink:href="#DejaVuSans-30" x="127.246094"/>
      </g>
     </g>
    </g>
    <g id="xtick_7">
     <g id="line2d_13">
      <path d="M 302.156752 233.651747 
L 302.156752 68.748253 
" clip-path="url(#pdf9ae67b27)" style="fill: none; stroke-dasharray: 2.96,1.28; stroke-dashoffset: 0; stroke: #b0b0b0; stroke-width: 0.8"/>
     </g>
     <g id="line2d_14">
      <g>
       <use xlink:href="#m5cbb1e9689" x="302.156752" y="233.651747" style="stroke: #000000; stroke-width: 0.8"/>
      </g>
     </g>
     <g id="text_7">
      <!-- 120 -->
      <g transform="translate(292.613002 248.250185)scale(0.1 -0.1)">
       <use xlink:href="#DejaVuSans-31"/>
       <use xlink:href="#DejaVuSans-32" x="63.623047"/>
       <use xlink:href="#DejaVuSans-30" x="127.246094"/>
      </g>
     </g>
    </g>
    <g id="xtick_8">
     <g id="line2d_15">
      <path d="M 345.552408 233.651747 
L 345.552408 68.748253 
" clip-path="url(#pdf9ae67b27)" style="fill: none; stroke-dasharray: 2.96,1.28; stroke-dashoffset: 0; stroke: #b0b0b0; stroke-width: 0.8"/>
     </g>
     <g id="line2d_16">
      <g>
       <use xlink:href="#m5cbb1e9689" x="345.552408" y="233.651747" style="stroke: #000000; stroke-width: 0.8"/>
      </g>
     </g>
     <g id="text_8">
      <!-- 140 -->
      <g transform="translate(336.008658 248.250185)scale(0.1 -0.1)">
       <use xlink:href="#DejaVuSans-31"/>
       <use xlink:href="#DejaVuSans-34" x="63.623047"/>
       <use xlink:href="#DejaVuSans-30" x="127.246094"/>
      </g>
     </g>
    </g>
    <g id="xtick_9">
     <g id="line2d_17">
      <path d="M 388.948065 233.651747 
L 388.948065 68.748253 
" clip-path="url(#pdf9ae67b27)" style="fill: none; stroke-dasharray: 2.96,1.28; stroke-dashoffset: 0; stroke: #b0b0b0; stroke-width: 0.8"/>
     </g>
     <g id="line2d_18">
      <g>
       <use xlink:href="#m5cbb1e9689" x="388.948065" y="233.651747" style="stroke: #000000; stroke-width: 0.8"/>
      </g>
     </g>
     <g id="text_9">
      <!-- 160 -->
      <g transform="translate(379.404315 248.250185)scale(0.1 -0.1)">
       <use xlink:href="#DejaVuSans-31"/>
       <use xlink:href="#DejaVuSans-36" x="63.623047"/>
       <use xlink:href="#DejaVuSans-30" x="127.246094"/>
      </g>
     </g>
    </g>
    <g id="xtick_10">
     <g id="line2d_19">
      <path d="M 432.343722 233.651747 
L 432.343722 68.748253 
" clip-path="url(#pdf9ae67b27)" style="fill: none; stroke-dasharray: 2.96,1.28; stroke-dashoffset: 0; stroke: #b0b0b0; stroke-width: 0.8"/>
     </g>
     <g id="line2d_20">
      <g>
       <use xlink:href="#m5cbb1e9689" x="432.343722" y="233.651747" style="stroke: #000000; stroke-width: 0.8"/>
      </g>
     </g>
     <g id="text_10">
      <!-- 180 -->
      <g transform="translate(422.799972 248.250185)scale(0.1 -0.1)">
       <use xlink:href="#DejaVuSans-31"/>
       <use xlink:href="#DejaVuSans-38" x="63.623047"/>
       <use xlink:href="#DejaVuSans-30" x="127.246094"/>
      </g>
     </g>
    </g>
    <g id="text_11">
     <!-- Angle [deg] -->
     <g transform="translate(207.918736 261.92831)scale(0.1 -0.1)">
      <defs>
       <path id="DejaVuSans-41" d="M 2188 4044 
L 1331 1722 
L 3047 1722 
L 2188 4044 
z
M 1831 4666 
L 2547 4666 
L 4325 0 
L 3669 0 
L 3244 1197 
L 1141 1197 
L 716 0 
L 50 0 
L 1831 4666 
z
" transform="scale(0.015625)"/>
       <path id="DejaVuSans-6e" d="M 3513 2113 
L 3513 0 
L 2938 0 
L 2938 2094 
Q 2938 2591 2744 2837 
Q 2550 3084 2163 3084 
Q 1697 3084 1428 2787 
Q 1159 2491 1159 1978 
L 1159 0 
L 581 0 
L 581 3500 
L 1159 3500 
L 1159 2956 
Q 1366 3272 1645 3428 
Q 1925 3584 2291 3584 
Q 2894 3584 3203 3211 
Q 3513 2838 3513 2113 
z
" transform="scale(0.015625)"/>
       <path id="DejaVuSans-67" d="M 2906 1791 
Q 2906 2416 2648 2759 
Q 2391 3103 1925 3103 
Q 1463 3103 1205 2759 
Q 947 2416 947 1791 
Q 947 1169 1205 825 
Q 1463 481 1925 481 
Q 2391 481 2648 825 
Q 2906 1169 2906 1791 
z
M 3481 434 
Q 3481 -459 3084 -895 
Q 2688 -1331 1869 -1331 
Q 1566 -1331 1297 -1286 
Q 1028 -1241 775 -1147 
L 775 -588 
Q 1028 -725 1275 -790 
Q 1522 -856 1778 -856 
Q 2344 -856 2625 -561 
Q 2906 -266 2906 331 
L 2906 616 
Q 2728 306 2450 153 
Q 2172 0 1784 0 
Q 1141 0 747 490 
Q 353 981 353 1791 
Q 353 2603 747 3093 
Q 1141 3584 1784 3584 
Q 2172 3584 2450 3431 
Q 2728 3278 2906 2969 
L 2906 3500 
L 3481 3500 
L 3481 434 
z
" transform="scale(0.015625)"/>
       <path id="DejaVuSans-6c" d="M 603 4863 
L 1178 4863 
L 1178 0 
L 603 0 
L 603 4863 
z
" transform="scale(0.015625)"/>
       <path id="DejaVuSans-65" d="M 3597 1894 
L 3597 1613 
L 953 1613 
Q 991 1019 1311 708 
Q 1631 397 2203 397 
Q 2534 397 2845 478 
Q 3156 559 3463 722 
L 3463 178 
Q 3153 47 2828 -22 
Q 2503 -91 2169 -91 
Q 1331 -91 842 396 
Q 353 884 353 1716 
Q 353 2575 817 3079 
Q 1281 3584 2069 3584 
Q 2775 3584 3186 3129 
Q 3597 2675 3597 1894 
z
M 3022 2063 
Q 3016 2534 2758 2815 
Q 2500 3097 2075 3097 
Q 1594 3097 1305 2825 
Q 1016 2553 972 2059 
L 3022 2063 
z
" transform="scale(0.015625)"/>
       <path id="DejaVuSans-20" transform="scale(0.015625)"/>
       <path id="DejaVuSans-5b" d="M 550 4863 
L 1875 4863 
L 1875 4416 
L 1125 4416 
L 1125 -397 
L 1875 -397 
L 1875 -844 
L 550 -844 
L 550 4863 
z
" transform="scale(0.015625)"/>
       <path id="DejaVuSans-64" d="M 2906 2969 
L 2906 4863 
L 3481 4863 
L 3481 0 
L 2906 0 
L 2906 525 
Q 2725 213 2448 61 
Q 2172 -91 1784 -91 
Q 1150 -91 751 415 
Q 353 922 353 1747 
Q 353 2572 751 3078 
Q 1150 3584 1784 3584 
Q 2172 3584 2448 3432 
Q 2725 3281 2906 2969 
z
M 947 1747 
Q 947 1113 1208 752 
Q 1469 391 1925 391 
Q 2381 391 2643 752 
Q 2906 1113 2906 1747 
Q 2906 2381 2643 2742 
Q 2381 3103 1925 3103 
Q 1469 3103 1208 2742 
Q 947 2381 947 1747 
z
" transform="scale(0.015625)"/>
       <path id="DejaVuSans-5d" d="M 1947 4863 
L 1947 -844 
L 622 -844 
L 622 -397 
L 1369 -397 
L 1369 4416 
L 622 4416 
L 622 4863 
L 1947 4863 
z
" transform="scale(0.015625)"/>
      </defs>
      <use xlink:href="#DejaVuSans-41"/>
      <use xlink:href="#DejaVuSans-6e" x="68.408203"/>
      <use xlink:href="#DejaVuSans-67" x="131.787109"/>
      <use xlink:href="#DejaVuSans-6c" x="195.263672"/>
      <use xlink:href="#DejaVuSans-65" x="223.046875"/>
      <use xlink:href="#DejaVuSans-20" x="284.570312"/>
      <use xlink:href="#DejaVuSans-5b" x="316.357422"/>
      <use xlink:href="#DejaVuSans-64" x="355.371094"/>
      <use xlink:href="#DejaVuSans-65" x="418.847656"/>
      <use xlink:href="#DejaVuSans-67" x="480.371094"/>
      <use xlink:href="#DejaVuSans-5d" x="543.847656"/>
     </g>
    </g>
   </g>
   <g id="matplotlib.axis_2">
    <g id="ytick_1">
     <g id="line2d_21">
      <path d="M 41.782813 233.651747 
L 432.343722 233.651747 
" clip-path="url(#pdf9ae67b27)" style="fill: none; stroke-dasharray: 2.96,1.28; stroke-dashoffset: 0; stroke: #b0b0b0; stroke-width: 0.8"/>
     </g>
     <g id="line2d_22">
      <defs>
       <path id="ma8b1ec1812" d="M 0 0 
L -3.5 0 
" style="stroke: #000000; stroke-width: 0.8"/>
      </defs>
      <g>
       <use xlink:href="#ma8b1ec1812" x="41.782813" y="233.651747" style="stroke: #000000; stroke-width: 0.8"/>
      </g>
     </g>
     <g id="text_12">
      <!-- −80 -->
      <g transform="translate(13.678125 237.450966)scale(0.1 -0.1)">
       <defs>
        <path id="DejaVuSans-2212" d="M 678 2272 
L 4684 2272 
L 4684 1741 
L 678 1741 
L 678 2272 
z
" transform="scale(0.015625)"/>
       </defs>
       <use xlink:href="#DejaVuSans-2212"/>
       <use xlink:href="#DejaVuSans-38" x="83.789062"/>
       <use xlink:href="#DejaVuSans-30" x="147.412109"/>
      </g>
     </g>
    </g>
    <g id="ytick_2">
     <g id="line2d_23">
      <path d="M 41.782813 213.038811 
L 432.343722 213.038811 
" clip-path="url(#pdf9ae67b27)" style="fill: none; stroke-dasharray: 2.96,1.28; stroke-dashoffset: 0; stroke: #b0b0b0; stroke-width: 0.8"/>
     </g>
     <g id="line2d_24">
      <g>
       <use xlink:href="#ma8b1ec1812" x="41.782813" y="213.038811" style="stroke: #000000; stroke-width: 0.8"/>
      </g>
     </g>
     <g id="text_13">
      <!-- −70 -->
      <g transform="translate(13.678125 216.838029)scale(0.1 -0.1)">
       <defs>
        <path id="DejaVuSans-37" d="M 525 4666 
L 3525 4666 
L 3525 4397 
L 1831 0 
L 1172 0 
L 2766 4134 
L 525 4134 
L 525 4666 
z
" transform="scale(0.015625)"/>
       </defs>
       <use xlink:href="#DejaVuSans-2212"/>
       <use xlink:href="#DejaVuSans-37" x="83.789062"/>
       <use xlink:href="#DejaVuSans-30" x="147.412109"/>
      </g>
     </g>
    </g>
    <g id="ytick_3">
     <g id="line2d_25">
      <path d="M 41.782813 192.425874 
L 432.343722 192.425874 
" clip-path="url(#pdf9ae67b27)" style="fill: none; stroke-dasharray: 2.96,1.28; stroke-dashoffset: 0; stroke: #b0b0b0; stroke-width: 0.8"/>
     </g>
     <g id="line2d_26">
      <g>
       <use xlink:href="#ma8b1ec1812" x="41.782813" y="192.425874" style="stroke: #000000; stroke-width: 0.8"/>
      </g>
     </g>
     <g id="text_14">
      <!-- −60 -->
      <g transform="translate(13.678125 196.225092)scale(0.1 -0.1)">
       <use xlink:href="#DejaVuSans-2212"/>
       <use xlink:href="#DejaVuSans-36" x="83.789062"/>
       <use xlink:href="#DejaVuSans-30" x="147.412109"/>
      </g>
     </g>
    </g>
    <g id="ytick_4">
     <g id="line2d_27">
      <path d="M 41.782813 171.812937 
L 432.343722 171.812937 
" clip-path="url(#pdf9ae67b27)" style="fill: none; stroke-dasharray: 2.96,1.28; stroke-dashoffset: 0; stroke: #b0b0b0; stroke-width: 0.8"/>
     </g>
     <g id="line2d_28">
      <g>
       <use xlink:href="#ma8b1ec1812" x="41.782813" y="171.812937" style="stroke: #000000; stroke-width: 0.8"/>
      </g>
     </g>
     <g id="text_15">
      <!-- −50 -->
      <g transform="translate(13.678125 175.612156)scale(0.1 -0.1)">
       <defs>
        <path id="DejaVuSans-35" d="M 691 4666 
L 3169 4666 
L 3169 4134 
L 1269 4134 
L 1269 2991 
Q 1406 3038 1543 3061 
Q 1681 3084 1819 3084 
Q 2600 3084 3056 2656 
Q 3513 2228 3513 1497 
Q 3513 744 3044 326 
Q 2575 -91 1722 -91 
Q 1428 -91 1123 -41 
Q 819 9 494 109 
L 494 744 
Q 775 591 1075 516 
Q 1375 441 1709 441 
Q 2250 441 2565 725 
Q 2881 1009 2881 1497 
Q 2881 1984 2565 2268 
Q 2250 2553 1709 2553 
Q 1456 2553 1204 2497 
Q 953 2441 691 2322 
L 691 4666 
z
" transform="scale(0.015625)"/>
       </defs>
       <use xlink:href="#DejaVuSans-2212"/>
       <use xlink:href="#DejaVuSans-35" x="83.789062"/>
       <use xlink:href="#DejaVuSans-30" x="147.412109"/>
      </g>
     </g>
    </g>
    <g id="ytick_5">
     <g id="line2d_29">
      <path d="M 41.782813 151.2 
L 432.343722 151.2 
" clip-path="url(#pdf9ae67b27)" style="fill: none; stroke-dasharray: 2.96,1.28; stroke-dashoffset: 0; stroke: #b0b0b0; stroke-width: 0.8"/>
     </g>
     <g id="line2d_30">
      <g>
       <use xlink:href="#ma8b1ec1812" x="41.782813" y="151.2" style="stroke: #000000; stroke-width: 0.8"/>
      </g>
     </g>
     <g id="text_16">
      <!-- −40 -->
      <g transform="translate(13.678125 154.999219)scale(0.1 -0.1)">
       <use xlink:href="#DejaVuSans-2212"/>
       <use xlink:href="#DejaVuSans-34" x="83.789062"/>
       <use xlink:href="#DejaVuSans-30" x="147.412109"/>
      </g>
     </g>
    </g>
    <g id="ytick_6">
     <g id="line2d_31">
      <path d="M 41.782813 130.587063 
L 432.343722 130.587063 
" clip-path="url(#pdf9ae67b27)" style="fill: none; stroke-dasharray: 2.96,1.28; stroke-dashoffset: 0; stroke: #b0b0b0; stroke-width: 0.8"/>
     </g>
     <g id="line2d_32">
      <g>
       <use xlink:href="#ma8b1ec1812" x="41.782813" y="130.587063" style="stroke: #000000; stroke-width: 0.8"/>
      </g>
     </g>
     <g id="text_17">
      <!-- −30 -->
      <g transform="translate(13.678125 134.386282)scale(0.1 -0.1)">
       <defs>
        <path id="DejaVuSans-33" d="M 2597 2516 
Q 3050 2419 3304 2112 
Q 3559 1806 3559 1356 
Q 3559 666 3084 287 
Q 2609 -91 1734 -91 
Q 1441 -91 1130 -33 
Q 819 25 488 141 
L 488 750 
Q 750 597 1062 519 
Q 1375 441 1716 441 
Q 2309 441 2620 675 
Q 2931 909 2931 1356 
Q 2931 1769 2642 2001 
Q 2353 2234 1838 2234 
L 1294 2234 
L 1294 2753 
L 1863 2753 
Q 2328 2753 2575 2939 
Q 2822 3125 2822 3475 
Q 2822 3834 2567 4026 
Q 2313 4219 1838 4219 
Q 1578 4219 1281 4162 
Q 984 4106 628 3988 
L 628 4550 
Q 988 4650 1302 4700 
Q 1616 4750 1894 4750 
Q 2613 4750 3031 4423 
Q 3450 4097 3450 3541 
Q 3450 3153 3228 2886 
Q 3006 2619 2597 2516 
z
" transform="scale(0.015625)"/>
       </defs>
       <use xlink:href="#DejaVuSans-2212"/>
       <use xlink:href="#DejaVuSans-33" x="83.789062"/>
       <use xlink:href="#DejaVuSans-30" x="147.412109"/>
      </g>
     </g>
    </g>
    <g id="ytick_7">
     <g id="line2d_33">
      <path d="M 41.782813 109.974126 
L 432.343722 109.974126 
" clip-path="url(#pdf9ae67b27)" style="fill: none; stroke-dasharray: 2.96,1.28; stroke-dashoffset: 0; stroke: #b0b0b0; stroke-width: 0.8"/>
     </g>
     <g id="line2d_34">
      <g>
       <use xlink:href="#ma8b1ec1812" x="41.782813" y="109.974126" style="stroke: #000000; stroke-width: 0.8"/>
      </g>
     </g>
     <g id="text_18">
      <!-- −20 -->
      <g transform="translate(13.678125 113.773345)scale(0.1 -0.1)">
       <use xlink:href="#DejaVuSans-2212"/>
       <use xlink:href="#DejaVuSans-32" x="83.789062"/>
       <use xlink:href="#DejaVuSans-30" x="147.412109"/>
      </g>
     </g>
    </g>
    <g id="ytick_8">
     <g id="line2d_35">
      <path d="M 41.782813 89.361189 
L 432.343722 89.361189 
" clip-path="url(#pdf9ae67b27)" style="fill: none; stroke-dasharray: 2.96,1.28; stroke-dashoffset: 0; stroke: #b0b0b0; stroke-width: 0.8"/>
     </g>
     <g id="line2d_36">
      <g>
       <use xlink:href="#ma8b1ec1812" x="41.782813" y="89.361189" style="stroke: #000000; stroke-width: 0.8"/>
      </g>
     </g>
     <g id="text_19">
      <!-- −10 -->
      <g transform="translate(13.678125 93.160408)scale(0.1 -0.1)">
       <use xlink:href="#DejaVuSans-2212"/>
       <use xlink:href="#DejaVuSans-31" x="83.789062"/>
       <use xlink:href="#DejaVuSans-30" x="147.412109"/>
      </g>
     </g>
    </g>
    <g id="ytick_9">
     <g id="line2d_37">
      <path d="M 41.782813 68.748253 
L 432.343722 68.748253 
" clip-path="url(#pdf9ae67b27)" style="fill: none; stroke-dasharray: 2.96,1.28; stroke-dashoffset: 0; stroke: #b0b0b0; stroke-width: 0.8"/>
     </g>
     <g id="line2d_38">
      <g>
       <use xlink:href="#ma8b1ec1812" x="41.782813" y="68.748253" style="stroke: #000000; stroke-width: 0.8"/>
      </g>
     </g>
     <g id="text_20">
      <!-- 0 -->
      <g transform="translate(28.420313 72.547471)scale(0.1 -0.1)">
       <use xlink:href="#DejaVuSans-30"/>
      </g>
     </g>
    </g>
    <g id="text_21">
     <!-- Amplitude [dB] -->
     <g transform="translate(7.598438 188.917969)rotate(-90)scale(0.1 -0.1)">
      <defs>
       <path id="DejaVuSans-6d" d="M 3328 2828 
Q 3544 3216 3844 3400 
Q 4144 3584 4550 3584 
Q 5097 3584 5394 3201 
Q 5691 2819 5691 2113 
L 5691 0 
L 5113 0 
L 5113 2094 
Q 5113 2597 4934 2840 
Q 4756 3084 4391 3084 
Q 3944 3084 3684 2787 
Q 3425 2491 3425 1978 
L 3425 0 
L 2847 0 
L 2847 2094 
Q 2847 2600 2669 2842 
Q 2491 3084 2119 3084 
Q 1678 3084 1418 2786 
Q 1159 2488 1159 1978 
L 1159 0 
L 581 0 
L 581 3500 
L 1159 3500 
L 1159 2956 
Q 1356 3278 1631 3431 
Q 1906 3584 2284 3584 
Q 2666 3584 2933 3390 
Q 3200 3197 3328 2828 
z
" transform="scale(0.015625)"/>
       <path id="DejaVuSans-70" d="M 1159 525 
L 1159 -1331 
L 581 -1331 
L 581 3500 
L 1159 3500 
L 1159 2969 
Q 1341 3281 1617 3432 
Q 1894 3584 2278 3584 
Q 2916 3584 3314 3078 
Q 3713 2572 3713 1747 
Q 3713 922 3314 415 
Q 2916 -91 2278 -91 
Q 1894 -91 1617 61 
Q 1341 213 1159 525 
z
M 3116 1747 
Q 3116 2381 2855 2742 
Q 2594 3103 2138 3103 
Q 1681 3103 1420 2742 
Q 1159 2381 1159 1747 
Q 1159 1113 1420 752 
Q 1681 391 2138 391 
Q 2594 391 2855 752 
Q 3116 1113 3116 1747 
z
" transform="scale(0.015625)"/>
       <path id="DejaVuSans-69" d="M 603 3500 
L 1178 3500 
L 1178 0 
L 603 0 
L 603 3500 
z
M 603 4863 
L 1178 4863 
L 1178 4134 
L 603 4134 
L 603 4863 
z
" transform="scale(0.015625)"/>
       <path id="DejaVuSans-74" d="M 1172 4494 
L 1172 3500 
L 2356 3500 
L 2356 3053 
L 1172 3053 
L 1172 1153 
Q 1172 725 1289 603 
Q 1406 481 1766 481 
L 2356 481 
L 2356 0 
L 1766 0 
Q 1100 0 847 248 
Q 594 497 594 1153 
L 594 3053 
L 172 3053 
L 172 3500 
L 594 3500 
L 594 4494 
L 1172 4494 
z
" transform="scale(0.015625)"/>
       <path id="DejaVuSans-75" d="M 544 1381 
L 544 3500 
L 1119 3500 
L 1119 1403 
Q 1119 906 1312 657 
Q 1506 409 1894 409 
Q 2359 409 2629 706 
Q 2900 1003 2900 1516 
L 2900 3500 
L 3475 3500 
L 3475 0 
L 2900 0 
L 2900 538 
Q 2691 219 2414 64 
Q 2138 -91 1772 -91 
Q 1169 -91 856 284 
Q 544 659 544 1381 
z
M 1991 3584 
L 1991 3584 
z
" transform="scale(0.015625)"/>
       <path id="DejaVuSans-42" d="M 1259 2228 
L 1259 519 
L 2272 519 
Q 2781 519 3026 730 
Q 3272 941 3272 1375 
Q 3272 1813 3026 2020 
Q 2781 2228 2272 2228 
L 1259 2228 
z
M 1259 4147 
L 1259 2741 
L 2194 2741 
Q 2656 2741 2882 2914 
Q 3109 3088 3109 3444 
Q 3109 3797 2882 3972 
Q 2656 4147 2194 4147 
L 1259 4147 
z
M 628 4666 
L 2241 4666 
Q 2963 4666 3353 4366 
Q 3744 4066 3744 3513 
Q 3744 3084 3544 2831 
Q 3344 2578 2956 2516 
Q 3422 2416 3680 2098 
Q 3938 1781 3938 1306 
Q 3938 681 3513 340 
Q 3088 0 2303 0 
L 628 0 
L 628 4666 
z
" transform="scale(0.015625)"/>
      </defs>
      <use xlink:href="#DejaVuSans-41"/>
      <use xlink:href="#DejaVuSans-6d" x="68.408203"/>
      <use xlink:href="#DejaVuSans-70" x="165.820312"/>
      <use xlink:href="#DejaVuSans-6c" x="229.296875"/>
      <use xlink:href="#DejaVuSans-69" x="257.080078"/>
      <use xlink:href="#DejaVuSans-74" x="284.863281"/>
      <use xlink:href="#DejaVuSans-75" x="324.072266"/>
      <use xlink:href="#DejaVuSans-64" x="387.451172"/>
      <use xlink:href="#DejaVuSans-65" x="450.927734"/>
      <use xlink:href="#DejaVuSans-20" x="512.451172"/>
      <use xlink:href="#DejaVuSans-5b" x="544.238281"/>
      <use xlink:href="#DejaVuSans-64" x="583.251953"/>
      <use xlink:href="#DejaVuSans-42" x="646.728516"/>
      <use xlink:href="#DejaVuSans-5d" x="715.332031"/>
     </g>
    </g>
   </g>
   <g id="line2d_39">
    <path d="M 41.782813 95.921114 
L 51.340477 95.8124 
L 64.808094 95.402709 
L 76.103515 95.133375 
L 82.620104 95.196679 
L 87.833376 95.467629 
L 92.177769 95.911251 
L 96.087722 96.539035 
L 99.563236 97.333901 
L 102.604311 98.263552 
L 105.210947 99.279951 
L 107.817582 100.551839 
L 109.989779 101.857271 
L 112.161975 103.447 
L 113.899732 104.978627 
L 115.637489 106.807148 
L 117.375247 109.023465 
L 118.678564 111.022276 
L 119.981882 113.408449 
L 121.2852 116.324859 
L 122.588518 120.013201 
L 123.457396 123.111495 
L 124.326275 126.996502 
L 125.195153 132.147228 
L 126.064032 139.684929 
L 126.498471 145.261624 
L 126.932911 153.556988 
L 127.36735 169.868141 
L 127.801789 181.989259 
L 128.236228 157.124844 
L 128.670668 146.992637 
L 129.105107 140.487815 
L 129.973986 131.832522 
L 130.842864 125.892016 
L 131.711743 121.338266 
L 133.01506 116.000687 
L 134.318378 111.76346 
L 135.621696 108.233867 
L 137.359453 104.274197 
L 139.09721 100.915151 
L 140.834967 97.991535 
L 143.007164 94.795507 
L 145.17936 91.99101 
L 147.785996 89.026513 
L 150.392631 86.410631 
L 152.999267 84.079427 
L 156.040342 81.660844 
L 159.081417 79.519856 
L 162.556931 77.368498 
L 166.032445 75.497419 
L 169.50796 73.880875 
L 172.983474 72.500844 
L 176.458988 71.344892 
L 179.934502 70.404835 
L 183.410016 69.675866 
L 186.885531 69.156027 
L 190.361045 68.845903 
L 193.836559 68.74851 
L 197.312073 68.869346 
L 200.787588 69.216622 
L 204.263102 69.8017 
L 207.304177 70.520565 
L 210.345252 71.446336 
L 213.386327 72.596018 
L 216.427401 73.991635 
L 219.468476 75.66215 
L 222.075112 77.34197 
L 224.681748 79.285094 
L 227.288383 81.53625 
L 229.46058 83.692076 
L 231.632776 86.15612 
L 233.804972 89.001533 
L 235.54273 91.624459 
L 237.280487 94.645243 
L 239.018244 98.194157 
L 240.321562 101.327161 
L 241.624879 105.025775 
L 242.928197 109.546945 
L 243.797076 113.244834 
L 244.665954 117.791465 
L 245.534833 123.72575 
L 246.403711 132.365703 
L 246.838151 138.84679 
L 247.27259 148.907535 
L 247.707029 173.219414 
L 248.141469 162.268104 
L 248.575908 145.734846 
L 249.010347 137.398925 
L 249.879226 127.632422 
L 250.748104 121.539148 
L 251.616983 117.154381 
L 252.485861 113.764549 
L 253.35474 111.028947 
L 254.658058 107.758951 
L 255.961376 105.18592 
L 257.264693 103.109569 
L 258.568011 101.408347 
L 259.871329 100.003072 
L 261.609086 98.498198 
L 263.346843 97.336442 
L 265.0846 96.458849 
L 266.822357 95.824581 
L 268.560115 95.404728 
L 270.297872 95.178676 
L 272.470068 95.146928 
L 274.642264 95.377198 
L 276.814461 95.860127 
L 278.986657 96.594227 
L 281.158854 97.585702 
L 283.33105 98.849243 
L 285.503246 100.409976 
L 287.675443 102.30717 
L 289.4132 104.106621 
L 291.150957 106.204553 
L 292.888714 108.666952 
L 294.626471 111.593911 
L 295.929789 114.187169 
L 297.233107 117.237307 
L 298.536425 120.917392 
L 299.839742 125.53323 
L 300.708621 129.411673 
L 301.5775 134.326937 
L 302.446378 141.048099 
L 302.880817 145.633434 
L 303.315257 151.768828 
L 303.749696 161.097074 
L 304.184135 181.442316 
L 304.618574 179.739001 
L 305.053014 160.711016 
L 305.487453 151.754707 
L 306.356332 141.462876 
L 307.22521 135.073236 
L 308.094089 130.460215 
L 308.962967 126.870757 
L 310.266285 122.674848 
L 311.569603 119.404067 
L 312.872921 116.754856 
L 314.176239 114.554692 
L 315.913996 112.139296 
L 317.651753 110.172773 
L 319.38951 108.552999 
L 321.127267 107.211514 
L 323.299463 105.853994 
L 325.47166 104.790442 
L 327.643856 103.97401 
L 329.816052 103.37059 
L 332.422688 102.89224 
L 335.029324 102.651478 
L 337.635959 102.62431 
L 340.677034 102.839328 
L 343.718109 103.301449 
L 346.759184 103.997879 
L 349.800259 104.921757 
L 352.841334 106.071729 
L 355.882409 107.452078 
L 358.923484 109.07346 
L 361.964559 110.954397 
L 365.005634 113.123921 
L 367.612269 115.246075 
L 370.218905 117.653061 
L 372.825541 120.404478 
L 374.997737 123.024107 
L 377.169934 126.023424 
L 378.907691 128.775849 
L 380.645448 131.943892 
L 382.383205 135.679742 
L 383.686523 139.004745 
L 384.989841 142.981056 
L 386.293158 147.948967 
L 387.162037 152.13272 
L 388.030915 157.481827 
L 388.899794 164.958863 
L 389.334233 170.23524 
L 389.768673 177.652587 
L 390.203112 190.347671 
L 390.637551 259.461059 
L 391.07199 189.799995 
L 391.50643 177.671387 
L 391.940869 170.572858 
L 392.809747 161.677912 
L 393.678626 155.879773 
L 394.547505 151.600128 
L 395.416383 148.226102 
L 396.719701 144.238344 
L 398.023019 141.096533 
L 399.326337 138.52654 
L 400.629654 136.369836 
L 402.367412 133.969325 
L 404.105169 131.977215 
L 405.842926 130.296945 
L 408.015122 128.537965 
L 410.187319 127.079129 
L 412.359515 125.86141 
L 414.966151 124.660464 
L 417.572786 123.695865 
L 420.613861 122.821749 
L 423.654936 122.180883 
L 426.696011 121.746692 
L 430.171525 121.482291 
L 432.343722 121.436865 
L 432.343722 121.436865 
" clip-path="url(#pdf9ae67b27)" style="fill: none; stroke: #1f77b4; stroke-width: 1.5; stroke-linecap: square"/>
   </g>
   <g id="patch_3">
    <path d="M 41.782813 233.651747 
L 41.782813 68.748253 
" style="fill: none; stroke: #000000; stroke-width: 0.8; stroke-linejoin: miter; stroke-linecap: square"/>
   </g>
   <g id="patch_4">
    <path d="M 432.343722 233.651747 
L 432.343722 68.748253 
" style="fill: none; stroke: #000000; stroke-width: 0.8; stroke-linejoin: miter; stroke-linecap: square"/>
   </g>
   <g id="patch_5">
    <path d="M 41.782813 233.651747 
L 432.343722 233.651747 
" style="fill: none; stroke: #000000; stroke-width: 0.8; stroke-linejoin: miter; stroke-linecap: square"/>
   </g>
   <g id="patch_6">
    <path d="M 41.782813 68.748253 
L 432.343722 68.748253 
" style="fill: none; stroke: #000000; stroke-width: 0.8; stroke-linejoin: miter; stroke-linecap: square"/>
   </g>
  </g>
  <g id="axes_2">
   <g id="patch_7">
    <path d="M 797.872358 226.8 
C 797.872358 186.714646 781.931529 148.23008 753.586903 119.885455 
C 725.242278 91.540829 686.757712 75.6 646.672358 75.6 
C 606.587004 75.6 568.102438 91.540829 539.757813 119.885455 
C 511.413187 148.23008 495.472358 186.714646 495.472358 226.8 
L 646.672358 226.8 
C 646.672358 226.8 646.672358 226.8 646.672358 226.8 
C 646.672358 226.8 646.672358 226.8 646.672358 226.8 
C 646.672358 226.8 646.672358 226.8 646.672358 226.8 
C 646.672358 226.8 646.672358 226.8 646.672358 226.8 
L 797.872358 226.8 
z
" style="fill: #ffffff"/>
   </g>
   <g id="matplotlib.axis_3">
    <g id="xtick_11">
     <g id="line2d_40">
      <path d="M 646.672358 226.8 
L 797.872358 226.8 
" clip-path="url(#p0ddc4d834e)" style="fill: none; stroke-dasharray: 2.96,1.28; stroke-dashoffset: 0; stroke: #b0b0b0; stroke-width: 0.8"/>
     </g>
     <g id="text_22">
      <!-- 0° -->
      <g transform="translate(806.191108 229.559375)scale(0.1 -0.1)">
       <defs>
        <path id="DejaVuSans-b0" d="M 1600 4347 
Q 1350 4347 1178 4173 
Q 1006 4000 1006 3750 
Q 1006 3503 1178 3333 
Q 1350 3163 1600 3163 
Q 1850 3163 2022 3333 
Q 2194 3503 2194 3750 
Q 2194 3997 2020 4172 
Q 1847 4347 1600 4347 
z
M 1600 4750 
Q 1800 4750 1984 4673 
Q 2169 4597 2303 4453 
Q 2447 4313 2519 4134 
Q 2591 3956 2591 3750 
Q 2591 3338 2302 3052 
Q 2013 2766 1594 2766 
Q 1172 2766 890 3047 
Q 609 3328 609 3750 
Q 609 4169 896 4459 
Q 1184 4750 1600 4750 
z
" transform="scale(0.015625)"/>
       </defs>
       <use xlink:href="#DejaVuSans-30"/>
       <use xlink:href="#DejaVuSans-b0" x="63.623047"/>
      </g>
     </g>
    </g>
    <g id="xtick_12">
     <g id="line2d_41">
      <path d="M 646.672358 226.8 
L 777.615399 151.2 
" clip-path="url(#p0ddc4d834e)" style="fill: none; stroke-dasharray: 2.96,1.28; stroke-dashoffset: 0; stroke: #b0b0b0; stroke-width: 0.8"/>
     </g>
     <g id="text_23">
      <!-- 30° -->
      <g transform="translate(780.877255 146.959375)scale(0.1 -0.1)">
       <use xlink:href="#DejaVuSans-33"/>
       <use xlink:href="#DejaVuSans-30" x="63.623047"/>
       <use xlink:href="#DejaVuSans-b0" x="127.246094"/>
      </g>
     </g>
    </g>
    <g id="xtick_13">
     <g id="line2d_42">
      <path d="M 646.672358 226.8 
L 722.272358 95.856959 
" clip-path="url(#p0ddc4d834e)" style="fill: none; stroke-dasharray: 2.96,1.28; stroke-dashoffset: 0; stroke: #b0b0b0; stroke-width: 0.8"/>
     </g>
     <g id="text_24">
      <!-- 60° -->
      <g transform="translate(720.409858 86.491978)scale(0.1 -0.1)">
       <use xlink:href="#DejaVuSans-36"/>
       <use xlink:href="#DejaVuSans-30" x="63.623047"/>
       <use xlink:href="#DejaVuSans-b0" x="127.246094"/>
      </g>
     </g>
    </g>
    <g id="xtick_14">
     <g id="line2d_43">
      <path d="M 646.672358 226.8 
L 646.672358 75.6 
" clip-path="url(#p0ddc4d834e)" style="fill: none; stroke-dasharray: 2.96,1.28; stroke-dashoffset: 0; stroke: #b0b0b0; stroke-width: 0.8"/>
     </g>
     <g id="text_25">
      <!-- 90° -->
      <g transform="translate(637.809858 64.359375)scale(0.1 -0.1)">
       <defs>
        <path id="DejaVuSans-39" d="M 703 97 
L 703 672 
Q 941 559 1184 500 
Q 1428 441 1663 441 
Q 2288 441 2617 861 
Q 2947 1281 2994 2138 
Q 2813 1869 2534 1725 
Q 2256 1581 1919 1581 
Q 1219 1581 811 2004 
Q 403 2428 403 3163 
Q 403 3881 828 4315 
Q 1253 4750 1959 4750 
Q 2769 4750 3195 4129 
Q 3622 3509 3622 2328 
Q 3622 1225 3098 567 
Q 2575 -91 1691 -91 
Q 1453 -91 1209 -44 
Q 966 3 703 97 
z
M 1959 2075 
Q 2384 2075 2632 2365 
Q 2881 2656 2881 3163 
Q 2881 3666 2632 3958 
Q 2384 4250 1959 4250 
Q 1534 4250 1286 3958 
Q 1038 3666 1038 3163 
Q 1038 2656 1286 2365 
Q 1534 2075 1959 2075 
z
" transform="scale(0.015625)"/>
       </defs>
       <use xlink:href="#DejaVuSans-39"/>
       <use xlink:href="#DejaVuSans-30" x="63.623047"/>
       <use xlink:href="#DejaVuSans-b0" x="127.246094"/>
      </g>
     </g>
    </g>
    <g id="xtick_15">
     <g id="line2d_44">
      <path d="M 646.672358 226.8 
L 571.072358 95.856959 
" clip-path="url(#p0ddc4d834e)" style="fill: none; stroke-dasharray: 2.96,1.28; stroke-dashoffset: 0; stroke: #b0b0b0; stroke-width: 0.8"/>
     </g>
     <g id="text_26">
      <!-- 120° -->
      <g transform="translate(552.028608 86.491978)scale(0.1 -0.1)">
       <use xlink:href="#DejaVuSans-31"/>
       <use xlink:href="#DejaVuSans-32" x="63.623047"/>
       <use xlink:href="#DejaVuSans-30" x="127.246094"/>
       <use xlink:href="#DejaVuSans-b0" x="190.869141"/>
      </g>
     </g>
    </g>
    <g id="xtick_16">
     <g id="line2d_45">
      <path d="M 646.672358 226.8 
L 515.729317 151.2 
" clip-path="url(#p0ddc4d834e)" style="fill: none; stroke-dasharray: 2.96,1.28; stroke-dashoffset: 0; stroke: #b0b0b0; stroke-width: 0.8"/>
     </g>
     <g id="text_27">
      <!-- 150° -->
      <g transform="translate(491.561211 146.959375)scale(0.1 -0.1)">
       <use xlink:href="#DejaVuSans-31"/>
       <use xlink:href="#DejaVuSans-35" x="63.623047"/>
       <use xlink:href="#DejaVuSans-30" x="127.246094"/>
       <use xlink:href="#DejaVuSans-b0" x="190.869141"/>
      </g>
     </g>
    </g>
    <g id="xtick_17">
     <g id="line2d_46">
      <path d="M 646.672358 226.8 
L 495.472358 226.8 
" clip-path="url(#p0ddc4d834e)" style="fill: none; stroke-dasharray: 2.96,1.28; stroke-dashoffset: 0; stroke: #b0b0b0; stroke-width: 0.8"/>
     </g>
     <g id="text_28">
      <!-- 180° -->
      <g transform="translate(469.428608 229.559375)scale(0.1 -0.1)">
       <use xlink:href="#DejaVuSans-31"/>
       <use xlink:href="#DejaVuSans-38" x="63.623047"/>
       <use xlink:href="#DejaVuSans-30" x="127.246094"/>
       <use xlink:href="#DejaVuSans-b0" x="190.869141"/>
      </g>
     </g>
    </g>
   </g>
   <g id="matplotlib.axis_4">
    <g id="ytick_10">
     <g id="line2d_47">
      <path d="M 767.632358 226.8 
C 767.632358 194.731717 754.879695 163.944064 732.203994 141.268364 
C 709.528294 118.592663 678.740641 105.84 646.672358 105.84 
C 614.604075 105.84 583.816422 118.592663 561.140722 141.268364 
C 538.465021 163.944064 525.712358 194.731717 525.712358 226.8 
" clip-path="url(#p0ddc4d834e)" style="fill: none; stroke-dasharray: 2.96,1.28; stroke-dashoffset: 0; stroke: #b0b0b0; stroke-width: 0.8"/>
     </g>
     <g id="text_29">
      <!-- −10 -->
      <g transform="translate(757.080014 241.398438)scale(0.1 -0.1)">
       <use xlink:href="#DejaVuSans-2212"/>
       <use xlink:href="#DejaVuSans-31" x="83.789062"/>
       <use xlink:href="#DejaVuSans-30" x="147.412109"/>
      </g>
     </g>
    </g>
    <g id="ytick_11">
     <g id="line2d_48">
      <path d="M 737.392358 226.8 
C 737.392358 202.748788 727.82786 179.658048 710.821085 162.651273 
C 693.81431 145.644498 670.72357 136.08 646.672358 136.08 
C 622.621146 136.08 599.530406 145.644498 582.523631 162.651273 
C 565.516855 179.658048 555.952358 202.748788 555.952358 226.8 
" clip-path="url(#p0ddc4d834e)" style="fill: none; stroke-dasharray: 2.96,1.28; stroke-dashoffset: 0; stroke: #b0b0b0; stroke-width: 0.8"/>
     </g>
     <g id="text_30">
      <!-- −20 -->
      <g transform="translate(726.840014 241.398438)scale(0.1 -0.1)">
       <use xlink:href="#DejaVuSans-2212"/>
       <use xlink:href="#DejaVuSans-32" x="83.789062"/>
       <use xlink:href="#DejaVuSans-30" x="147.412109"/>
      </g>
     </g>
    </g>
    <g id="ytick_12">
     <g id="line2d_49">
      <path d="M 707.152358 226.8 
C 707.152358 210.765858 700.776026 195.372032 689.438176 184.034182 
C 678.100326 172.696332 662.706499 166.32 646.672358 166.32 
C 630.638216 166.32 615.24439 172.696332 603.90654 184.034182 
C 592.56869 195.372032 586.192358 210.765858 586.192358 226.8 
" clip-path="url(#p0ddc4d834e)" style="fill: none; stroke-dasharray: 2.96,1.28; stroke-dashoffset: 0; stroke: #b0b0b0; stroke-width: 0.8"/>
     </g>
     <g id="text_31">
      <!-- −30 -->
      <g transform="translate(696.600014 241.398438)scale(0.1 -0.1)">
       <use xlink:href="#DejaVuSans-2212"/>
       <use xlink:href="#DejaVuSans-33" x="83.789062"/>
       <use xlink:href="#DejaVuSans-30" x="147.412109"/>
      </g>
     </g>
    </g>
    <g id="ytick_13">
     <g id="line2d_50">
      <path d="M 676.912358 226.8 
C 676.912358 218.782929 673.724192 211.086016 668.055267 205.417091 
C 662.386342 199.748166 654.689429 196.56 646.672358 196.56 
C 638.655287 196.56 630.958374 199.748166 625.289449 205.417091 
C 619.620524 211.086016 616.432358 218.782929 616.432358 226.8 
" clip-path="url(#p0ddc4d834e)" style="fill: none; stroke-dasharray: 2.96,1.28; stroke-dashoffset: 0; stroke: #b0b0b0; stroke-width: 0.8"/>
     </g>
     <g id="text_32">
      <!-- −40 -->
      <g transform="translate(666.360014 241.398438)scale(0.1 -0.1)">
       <use xlink:href="#DejaVuSans-2212"/>
       <use xlink:href="#DejaVuSans-34" x="83.789062"/>
       <use xlink:href="#DejaVuSans-30" x="147.412109"/>
      </g>
     </g>
    </g>
    <g id="ytick_14">
     <g id="line2d_51">
      <path d="M 646.672358 226.8 
C 646.672358 226.8 646.672358 226.8 646.672358 226.8 
C 646.672358 226.8 646.672358 226.8 646.672358 226.8 
C 646.672358 226.8 646.672358 226.8 646.672358 226.8 
C 646.672358 226.8 646.672358 226.8 646.672358 226.8 
" clip-path="url(#p0ddc4d834e)" style="fill: none; stroke-dasharray: 2.96,1.28; stroke-dashoffset: 0; stroke: #b0b0b0; stroke-width: 0.8"/>
     </g>
     <g id="text_33">
      <!-- −50 -->
      <g transform="translate(636.120014 241.398438)scale(0.1 -0.1)">
       <use xlink:href="#DejaVuSans-2212"/>
       <use xlink:href="#DejaVuSans-35" x="83.789062"/>
       <use xlink:href="#DejaVuSans-30" x="147.412109"/>
      </g>
     </g>
    </g>
   </g>
   <g id="line2d_52">
    <path d="M 758.008687 226.8 
L 757.896377 219.794574 
L 757.582358 213.559933 
L 757.089919 208.103099 
L 756.453967 203.438466 
L 755.650108 199.192421 
L 754.694502 195.379821 
L 753.616313 192.01048 
L 752.456004 189.086776 
L 751.077445 186.254492 
L 749.667662 183.874163 
L 748.042235 181.610616 
L 746.455184 179.786125 
L 744.665533 178.093149 
L 742.999416 176.803769 
L 741.153116 175.647102 
L 739.101212 174.649489 
L 737.28986 173.988203 
L 735.304308 173.471925 
L 733.116466 173.128469 
L 730.689068 172.99412 
L 727.971046 173.117723 
L 725.699206 173.419787 
L 723.180717 173.944533 
L 720.355638 174.746717 
L 717.136768 175.904978 
L 713.390237 177.538524 
L 708.895108 179.84168 
L 705.296303 181.911124 
L 700.983455 184.608121 
L 695.578289 188.256063 
L 688.287319 193.528123 
L 683.382691 197.238578 
L 676.925049 202.263904 
L 667.414192 209.857072 
L 648.875652 224.987369 
M 663.216682 212.994117 
L 674.547666 203.372927 
L 687.024215 192.403268 
L 694.589418 185.372824 
L 699.980581 180.056808 
L 704.131557 175.702291 
L 708.923098 170.261474 
L 712.596656 165.651602 
L 715.516021 161.587819 
L 717.887181 157.910984 
L 719.838318 154.523497 
L 721.454739 151.361424 
L 723.190047 147.421872 
L 724.533828 143.734843 
L 725.554535 140.252508 
L 726.301511 136.941602 
L 726.811595 133.778317 
L 727.113106 130.745245 
L 727.230248 127.117647 
L 727.090387 123.655154 
L 726.720471 120.344841 
L 726.142207 117.177644 
L 725.373492 114.147309 
L 724.429396 111.249666 
L 723.322864 108.482133 
L 722.065214 105.843351 
L 720.370659 102.846265 
L 718.488522 100.034811 
L 716.432878 97.411009 
L 714.216679 94.97789 
L 711.852043 92.739333 
L 709.350478 90.699943 
L 706.723053 88.864983 
L 703.980542 87.24034 
L 701.133536 85.83252 
L 698.19254 84.648684 
L 695.168061 83.69671 
L 692.070682 82.9853 
L 688.91114 82.52413 
L 686.238603 82.338771 
L 683.537014 82.341763 
L 680.813068 82.541024 
L 678.073689 82.945541 
L 675.326087 83.565634 
L 672.577819 84.413311 
L 669.836868 85.502738 
L 667.111755 86.850899 
L 664.411676 88.478499 
L 662.276368 89.998851 
L 660.16917 91.730626 
L 658.096342 93.693781 
L 656.064909 95.913251 
L 654.082907 98.420815 
L 652.159749 101.257903 
L 650.306771 104.480018 
L 648.971458 107.194384 
L 647.690939 110.211919 
L 646.474553 113.592091 
L 645.334451 117.417943 
L 644.287161 121.810481 
L 643.356505 126.956022 
L 642.818303 130.949137 
L 642.364557 135.554939 
L 642.020649 141.00427 
L 641.828785 147.696497 
L 641.868835 156.417908 
L 642.328472 169.092596 
L 642.873656 178.586767 
L 643.915911 193.310108 
M 645.426221 212.852909 
L 643.134561 188.706328 
L 641.828054 176.54622 
L 640.002519 162.329522 
L 638.570086 153.492739 
L 637.306607 147.162558 
L 636.134895 142.29516 
L 635.020134 138.392044 
L 633.417275 133.769808 
L 631.871127 130.182669 
L 630.366257 127.337183 
L 628.894875 125.055079 
L 627.453107 123.220042 
L 626.039269 121.7521 
L 624.652998 120.594023 
L 623.29477 119.703576 
L 621.965641 119.04882 
L 620.66708 118.605153 
L 619.400883 118.353359 
L 617.766569 118.290387 
L 616.199055 118.514481 
L 614.704656 119.00566 
L 613.290485 119.749795 
L 611.964565 120.737597 
L 610.73601 121.964056 
L 609.615295 123.428226 
L 608.614625 125.133337 
L 607.748475 127.087256 
L 607.034347 129.303375 
L 606.493903 131.802122 
L 606.154671 134.613403 
L 606.052737 137.780608 
L 606.160873 140.426831 
L 606.457544 143.346373 
L 606.980108 146.591965 
L 607.78058 150.23924 
L 608.934868 154.401355 
L 610.560693 159.25757 
L 612.856458 165.115614 
L 614.931898 169.849386 
L 617.669793 175.606572 
L 621.467894 183.026914 
L 627.275778 193.651512 
L 631.732935 201.472199 
L 638.638263 213.287394 
M 638.202516 212.888607 
L 626.642762 194.413918 
L 620.261679 184.755997 
L 615.737254 178.309157 
L 612.175872 173.551159 
L 607.878702 168.271919 
L 604.356397 164.388627 
L 601.336401 161.420712 
L 598.671681 159.104632 
L 596.274252 157.279809 
L 594.087536 155.840908 
L 591.435119 154.399582 
L 589.028877 153.396426 
L 586.828162 152.748777 
L 584.805011 152.397176 
L 582.939599 152.297226 
L 581.217563 152.414742 
L 579.628342 152.722722 
L 578.1641 153.199358 
L 576.500842 154.005282 
L 575.015796 155.018125 
L 573.703636 156.214366 
L 572.561147 157.57442 
L 571.58681 159.081727 
L 570.78053 160.72211 
L 570.143485 162.483312 
L 569.678062 164.354665 
L 569.387858 166.32686 
L 569.277766 168.391781 
L 569.354126 170.542411 
L 569.624972 172.772781 
L 570.100382 175.077978 
L 570.792989 177.454218 
L 571.718698 179.898983 
L 572.897704 182.411264 
L 574.355995 184.991951 
L 576.127573 187.64445 
L 578.257906 190.375673 
L 580.261663 192.625195 
L 582.577966 194.942312 
L 585.265901 197.341422 
L 588.408543 199.844289 
L 592.127799 202.484739 
L 596.612904 205.317797 
L 600.662128 207.6241 
L 605.538136 210.160255 
L 611.626386 213.048835 
L 619.686529 216.536574 
L 626.969555 219.463709 
L 637.224897 223.35725 
L 644.494949 226.015139 
M 644.948344 226.219112 
L 632.549354 222.151062 
L 621.205749 218.711937 
L 613.584851 216.672192 
L 607.868843 215.366078 
L 603.316474 214.517156 
L 598.432029 213.858985 
L 594.477577 213.577379 
L 591.184772 213.565737 
L 588.390376 213.757464 
L 585.987798 214.107825 
L 583.425941 214.721357 
L 581.263704 215.489147 
L 579.432505 216.378958 
L 577.88336 217.366467 
L 576.580363 218.432651 
L 575.304464 219.794483 
L 574.31081 221.225864 
L 573.575322 222.708686 
L 573.081413 224.227287 
L 572.818495 225.767591 
L 572.768652 226.8 
L 572.768652 226.8 
" clip-path="url(#p0ddc4d834e)" style="fill: none; stroke: #1f77b4; stroke-width: 1.5; stroke-linecap: square"/>
   </g>
   <g id="patch_8">
    <path d="M 797.872358 226.8 
C 797.872358 186.714646 781.931529 148.23008 753.586903 119.885455 
C 725.242278 91.540829 686.757712 75.6 646.672358 75.6 
C 606.587004 75.6 568.102438 91.540829 539.757813 119.885455 
C 511.413187 148.23008 495.472358 186.714646 495.472358 226.8 
" style="fill: none; stroke: #000000; stroke-width: 0.8; stroke-linejoin: miter; stroke-linecap: square"/>
   </g>
   <g id="patch_9">
    <path d="M 646.672358 226.8 
L 797.872358 226.8 
" style="fill: none; stroke: #000000; stroke-width: 0.8; stroke-linejoin: miter; stroke-linecap: square"/>
   </g>
   <g id="patch_10">
    <path d="M 646.672358 226.8 
L 495.472358 226.8 
" style="fill: none; stroke: #000000; stroke-width: 0.8; stroke-linejoin: miter; stroke-linecap: square"/>
   </g>
  </g>
 </g>
 <defs>
  <clipPath id="pdf9ae67b27">
   <rect x="41.782813" y="68.748253" width="390.560909" height="164.903495"/>
  </clipPath>
  <clipPath id="p0ddc4d834e">
   <path d="M 797.872358 226.8 
C 797.872358 186.714646 781.931529 148.23008 753.586903 119.885455 
C 725.242278 91.540829 686.757712 75.6 646.672358 75.6 
C 606.587004 75.6 568.102438 91.540829 539.757813 119.885455 
C 511.413187 148.23008 495.472358 186.714646 495.472358 226.8 
L 646.672358 226.8 
C 646.672358 226.8 646.672358 226.8 646.672358 226.8 
C 646.672358 226.8 646.672358 226.8 646.672358 226.8 
C 646.672358 226.8 646.672358 226.8 646.672358 226.8 
C 646.672358 226.8 646.672358 226.8 646.672358 226.8 
L 797.872358 226.8 
z
"/>
  </clipPath>
 </defs>
</svg>
