<?xml version="1.0" encoding="utf-8" standalone="no"?>
<!DOCTYPE svg PUBLIC "-//W3C//DTD SVG 1.1//EN"
  "http://www.w3.org/Graphics/SVG/1.1/DTD/svg11.dtd">
<svg xmlns:xlink="http://www.w3.org/1999/xlink" width="460.8pt" height="345.6pt" viewBox="0 0 460.8 345.6" xmlns="http://www.w3.org/2000/svg" version="1.1">
 <metadata>
  <rdf:RDF xmlns:dc="http://purl.org/dc/elements/1.1/" xmlns:cc="http://creativecommons.org/ns#" xmlns:rdf="http://www.w3.org/1999/02/22-rdf-syntax-ns#">
   <cc:Work>
    <dc:type rdf:resource="http://purl.org/dc/dcmitype/StillImage"/>
    <dc:date>2023-10-24T12:41:35.525416</dc:date>
    <dc:format>image/svg+xml</dc:format>
    <dc:creator>
     <cc:Agent>
      <dc:title>Matplotlib v3.5.2, https://matplotlib.org/</dc:title>
     </cc:Agent>
    </dc:creator>
   </cc:Work>
  </rdf:RDF>
 </metadata>
 <defs>
  <style type="text/css">*{stroke-linejoin: round; stroke-linecap: butt}</style>
 </defs>
 <g id="figure_1">
  <g id="patch_1">
   <path d="M 0 345.6 
L 460.8 345.6 
L 460.8 0 
L 0 0 
z
" style="fill: #ffffff"/>
  </g>
  <g id="axes_1">
   <g id="patch_2">
    <path d="M 369.216 241.056 
C 369.216 205.780889 355.18807 171.914471 330.2448 146.9712 
C 305.301529 122.02793 271.435111 108 236.16 108 
C 200.884889 108 167.018471 122.02793 142.0752 146.9712 
C 117.13193 171.914471 103.104 205.780889 103.104 241.056 
L 236.16 241.056 
C 236.16 241.056 236.16 241.056 236.16 241.056 
C 236.16 241.056 236.16 241.056 236.16 241.056 
C 236.16 241.056 236.16 241.056 236.16 241.056 
C 236.16 241.056 236.16 241.056 236.16 241.056 
L 369.216 241.056 
z
" style="fill: #ffffff"/>
   </g>
   <g id="matplotlib.axis_1">
    <g id="xtick_1">
     <g id="line2d_1">
      <path d="M 236.16 241.056 
L 369.216 241.056 
" clip-path="url(#pa04883c41a)" style="fill: none; stroke-dasharray: 2.96,1.28; stroke-dashoffset: 0; stroke: #b0b0b0; stroke-width: 0.8"/>
     </g>
     <g id="text_1">
      <!-- 0° -->
      <g transform="translate(377.53475 243.815375)scale(0.1 -0.1)">
       <defs>
        <path id="DejaVuSans-30" d="M 2034 4250 
Q 1547 4250 1301 3770 
Q 1056 3291 1056 2328 
Q 1056 1369 1301 889 
Q 1547 409 2034 409 
Q 2525 409 2770 889 
Q 3016 1369 3016 2328 
Q 3016 3291 2770 3770 
Q 2525 4250 2034 4250 
z
M 2034 4750 
Q 2819 4750 3233 4129 
Q 3647 3509 3647 2328 
Q 3647 1150 3233 529 
Q 2819 -91 2034 -91 
Q 1250 -91 836 529 
Q 422 1150 422 2328 
Q 422 3509 836 4129 
Q 1250 4750 2034 4750 
z
" transform="scale(0.015625)"/>
        <path id="DejaVuSans-b0" d="M 1600 4347 
Q 1350 4347 1178 4173 
Q 1006 4000 1006 3750 
Q 1006 3503 1178 3333 
Q 1350 3163 1600 3163 
Q 1850 3163 2022 3333 
Q 2194 3503 2194 3750 
Q 2194 3997 2020 4172 
Q 1847 4347 1600 4347 
z
M 1600 4750 
Q 1800 4750 1984 4673 
Q 2169 4597 2303 4453 
Q 2447 4313 2519 4134 
Q 2591 3956 2591 3750 
Q 2591 3338 2302 3052 
Q 2013 2766 1594 2766 
Q 1172 2766 890 3047 
Q 609 3328 609 3750 
Q 609 4169 896 4459 
Q 1184 4750 1600 4750 
z
" transform="scale(0.015625)"/>
       </defs>
       <use xlink:href="#DejaVuSans-30"/>
       <use xlink:href="#DejaVuSans-b0" x="63.623047"/>
      </g>
     </g>
    </g>
    <g id="xtick_2">
     <g id="line2d_2">
      <path d="M 236.16 241.056 
L 351.389876 174.528 
" clip-path="url(#pa04883c41a)" style="fill: none; stroke-dasharray: 2.96,1.28; stroke-dashoffset: 0; stroke: #b0b0b0; stroke-width: 0.8"/>
     </g>
     <g id="text_2">
      <!-- 30° -->
      <g transform="translate(354.651732 170.287375)scale(0.1 -0.1)">
       <defs>
        <path id="DejaVuSans-33" d="M 2597 2516 
Q 3050 2419 3304 2112 
Q 3559 1806 3559 1356 
Q 3559 666 3084 287 
Q 2609 -91 1734 -91 
Q 1441 -91 1130 -33 
Q 819 25 488 141 
L 488 750 
Q 750 597 1062 519 
Q 1375 441 1716 441 
Q 2309 441 2620 675 
Q 2931 909 2931 1356 
Q 2931 1769 2642 2001 
Q 2353 2234 1838 2234 
L 1294 2234 
L 1294 2753 
L 1863 2753 
Q 2328 2753 2575 2939 
Q 2822 3125 2822 3475 
Q 2822 3834 2567 4026 
Q 2313 4219 1838 4219 
Q 1578 4219 1281 4162 
Q 984 4106 628 3988 
L 628 4550 
Q 988 4650 1302 4700 
Q 1616 4750 1894 4750 
Q 2613 4750 3031 4423 
Q 3450 4097 3450 3541 
Q 3450 3153 3228 2886 
Q 3006 2619 2597 2516 
z
" transform="scale(0.015625)"/>
       </defs>
       <use xlink:href="#DejaVuSans-33"/>
       <use xlink:href="#DejaVuSans-30" x="63.623047"/>
       <use xlink:href="#DejaVuSans-b0" x="127.246094"/>
      </g>
     </g>
    </g>
    <g id="xtick_3">
     <g id="line2d_3">
      <path d="M 236.16 241.056 
L 302.688 125.826124 
" clip-path="url(#pa04883c41a)" style="fill: none; stroke-dasharray: 2.96,1.28; stroke-dashoffset: 0; stroke: #b0b0b0; stroke-width: 0.8"/>
     </g>
     <g id="text_3">
      <!-- 60° -->
      <g transform="translate(300.8255 116.461143)scale(0.1 -0.1)">
       <defs>
        <path id="DejaVuSans-36" d="M 2113 2584 
Q 1688 2584 1439 2293 
Q 1191 2003 1191 1497 
Q 1191 994 1439 701 
Q 1688 409 2113 409 
Q 2538 409 2786 701 
Q 3034 994 3034 1497 
Q 3034 2003 2786 2293 
Q 2538 2584 2113 2584 
z
M 3366 4563 
L 3366 3988 
Q 3128 4100 2886 4159 
Q 2644 4219 2406 4219 
Q 1781 4219 1451 3797 
Q 1122 3375 1075 2522 
Q 1259 2794 1537 2939 
Q 1816 3084 2150 3084 
Q 2853 3084 3261 2657 
Q 3669 2231 3669 1497 
Q 3669 778 3244 343 
Q 2819 -91 2113 -91 
Q 1303 -91 875 529 
Q 447 1150 447 2328 
Q 447 3434 972 4092 
Q 1497 4750 2381 4750 
Q 2619 4750 2861 4703 
Q 3103 4656 3366 4563 
z
" transform="scale(0.015625)"/>
       </defs>
       <use xlink:href="#DejaVuSans-36"/>
       <use xlink:href="#DejaVuSans-30" x="63.623047"/>
       <use xlink:href="#DejaVuSans-b0" x="127.246094"/>
      </g>
     </g>
    </g>
    <g id="xtick_4">
     <g id="line2d_4">
      <path d="M 236.16 241.056 
L 236.16 108 
" clip-path="url(#pa04883c41a)" style="fill: none; stroke-dasharray: 2.96,1.28; stroke-dashoffset: 0; stroke: #b0b0b0; stroke-width: 0.8"/>
     </g>
     <g id="text_4">
      <!-- 90° -->
      <g transform="translate(227.2975 96.759375)scale(0.1 -0.1)">
       <defs>
        <path id="DejaVuSans-39" d="M 703 97 
L 703 672 
Q 941 559 1184 500 
Q 1428 441 1663 441 
Q 2288 441 2617 861 
Q 2947 1281 2994 2138 
Q 2813 1869 2534 1725 
Q 2256 1581 1919 1581 
Q 1219 1581 811 2004 
Q 403 2428 403 3163 
Q 403 3881 828 4315 
Q 1253 4750 1959 4750 
Q 2769 4750 3195 4129 
Q 3622 3509 3622 2328 
Q 3622 1225 3098 567 
Q 2575 -91 1691 -91 
Q 1453 -91 1209 -44 
Q 966 3 703 97 
z
M 1959 2075 
Q 2384 2075 2632 2365 
Q 2881 2656 2881 3163 
Q 2881 3666 2632 3958 
Q 2384 4250 1959 4250 
Q 1534 4250 1286 3958 
Q 1038 3666 1038 3163 
Q 1038 2656 1286 2365 
Q 1534 2075 1959 2075 
z
" transform="scale(0.015625)"/>
       </defs>
       <use xlink:href="#DejaVuSans-39"/>
       <use xlink:href="#DejaVuSans-30" x="63.623047"/>
       <use xlink:href="#DejaVuSans-b0" x="127.246094"/>
      </g>
     </g>
    </g>
    <g id="xtick_5">
     <g id="line2d_5">
      <path d="M 236.16 241.056 
L 169.632 125.826124 
" clip-path="url(#pa04883c41a)" style="fill: none; stroke-dasharray: 2.96,1.28; stroke-dashoffset: 0; stroke: #b0b0b0; stroke-width: 0.8"/>
     </g>
     <g id="text_5">
      <!-- 120° -->
      <g transform="translate(150.58825 116.461143)scale(0.1 -0.1)">
       <defs>
        <path id="DejaVuSans-31" d="M 794 531 
L 1825 531 
L 1825 4091 
L 703 3866 
L 703 4441 
L 1819 4666 
L 2450 4666 
L 2450 531 
L 3481 531 
L 3481 0 
L 794 0 
L 794 531 
z
" transform="scale(0.015625)"/>
        <path id="DejaVuSans-32" d="M 1228 531 
L 3431 531 
L 3431 0 
L 469 0 
L 469 531 
Q 828 903 1448 1529 
Q 2069 2156 2228 2338 
Q 2531 2678 2651 2914 
Q 2772 3150 2772 3378 
Q 2772 3750 2511 3984 
Q 2250 4219 1831 4219 
Q 1534 4219 1204 4116 
Q 875 4013 500 3803 
L 500 4441 
Q 881 4594 1212 4672 
Q 1544 4750 1819 4750 
Q 2544 4750 2975 4387 
Q 3406 4025 3406 3419 
Q 3406 3131 3298 2873 
Q 3191 2616 2906 2266 
Q 2828 2175 2409 1742 
Q 1991 1309 1228 531 
z
" transform="scale(0.015625)"/>
       </defs>
       <use xlink:href="#DejaVuSans-31"/>
       <use xlink:href="#DejaVuSans-32" x="63.623047"/>
       <use xlink:href="#DejaVuSans-30" x="127.246094"/>
       <use xlink:href="#DejaVuSans-b0" x="190.869141"/>
      </g>
     </g>
    </g>
    <g id="xtick_6">
     <g id="line2d_6">
      <path d="M 236.16 241.056 
L 120.930124 174.528 
" clip-path="url(#pa04883c41a)" style="fill: none; stroke-dasharray: 2.96,1.28; stroke-dashoffset: 0; stroke: #b0b0b0; stroke-width: 0.8"/>
     </g>
     <g id="text_6">
      <!-- 150° -->
      <g transform="translate(96.762018 170.287375)scale(0.1 -0.1)">
       <defs>
        <path id="DejaVuSans-35" d="M 691 4666 
L 3169 4666 
L 3169 4134 
L 1269 4134 
L 1269 2991 
Q 1406 3038 1543 3061 
Q 1681 3084 1819 3084 
Q 2600 3084 3056 2656 
Q 3513 2228 3513 1497 
Q 3513 744 3044 326 
Q 2575 -91 1722 -91 
Q 1428 -91 1123 -41 
Q 819 9 494 109 
L 494 744 
Q 775 591 1075 516 
Q 1375 441 1709 441 
Q 2250 441 2565 725 
Q 2881 1009 2881 1497 
Q 2881 1984 2565 2268 
Q 2250 2553 1709 2553 
Q 1456 2553 1204 2497 
Q 953 2441 691 2322 
L 691 4666 
z
" transform="scale(0.015625)"/>
       </defs>
       <use xlink:href="#DejaVuSans-31"/>
       <use xlink:href="#DejaVuSans-35" x="63.623047"/>
       <use xlink:href="#DejaVuSans-30" x="127.246094"/>
       <use xlink:href="#DejaVuSans-b0" x="190.869141"/>
      </g>
     </g>
    </g>
    <g id="xtick_7">
     <g id="line2d_7">
      <path d="M 236.16 241.056 
L 103.104 241.056 
" clip-path="url(#pa04883c41a)" style="fill: none; stroke-dasharray: 2.96,1.28; stroke-dashoffset: 0; stroke: #b0b0b0; stroke-width: 0.8"/>
     </g>
     <g id="text_7">
      <!-- 180° -->
      <g transform="translate(77.06025 243.815375)scale(0.1 -0.1)">
       <defs>
        <path id="DejaVuSans-38" d="M 2034 2216 
Q 1584 2216 1326 1975 
Q 1069 1734 1069 1313 
Q 1069 891 1326 650 
Q 1584 409 2034 409 
Q 2484 409 2743 651 
Q 3003 894 3003 1313 
Q 3003 1734 2745 1975 
Q 2488 2216 2034 2216 
z
M 1403 2484 
Q 997 2584 770 2862 
Q 544 3141 544 3541 
Q 544 4100 942 4425 
Q 1341 4750 2034 4750 
Q 2731 4750 3128 4425 
Q 3525 4100 3525 3541 
Q 3525 3141 3298 2862 
Q 3072 2584 2669 2484 
Q 3125 2378 3379 2068 
Q 3634 1759 3634 1313 
Q 3634 634 3220 271 
Q 2806 -91 2034 -91 
Q 1263 -91 848 271 
Q 434 634 434 1313 
Q 434 1759 690 2068 
Q 947 2378 1403 2484 
z
M 1172 3481 
Q 1172 3119 1398 2916 
Q 1625 2713 2034 2713 
Q 2441 2713 2670 2916 
Q 2900 3119 2900 3481 
Q 2900 3844 2670 4047 
Q 2441 4250 2034 4250 
Q 1625 4250 1398 4047 
Q 1172 3844 1172 3481 
z
" transform="scale(0.015625)"/>
       </defs>
       <use xlink:href="#DejaVuSans-31"/>
       <use xlink:href="#DejaVuSans-38" x="63.623047"/>
       <use xlink:href="#DejaVuSans-30" x="127.246094"/>
       <use xlink:href="#DejaVuSans-b0" x="190.869141"/>
      </g>
     </g>
    </g>
   </g>
   <g id="matplotlib.axis_2">
    <g id="ytick_1">
     <g id="line2d_8">
      <path d="M 342.6048 241.056 
C 342.6048 212.835911 331.382456 185.742776 311.42784 165.78816 
C 291.473224 145.833544 264.380089 134.6112 236.16 134.6112 
C 207.939911 134.6112 180.846776 145.833544 160.89216 165.78816 
C 140.937544 185.742776 129.7152 212.835911 129.7152 241.056 
" clip-path="url(#pa04883c41a)" style="fill: none; stroke-dasharray: 2.96,1.28; stroke-dashoffset: 0; stroke: #b0b0b0; stroke-width: 0.8"/>
     </g>
     <g id="text_8">
      <!-- −10 -->
      <g transform="translate(332.052456 255.654437)scale(0.1 -0.1)">
       <defs>
        <path id="DejaVuSans-2212" d="M 678 2272 
L 4684 2272 
L 4684 1741 
L 678 1741 
L 678 2272 
z
" transform="scale(0.015625)"/>
       </defs>
       <use xlink:href="#DejaVuSans-2212"/>
       <use xlink:href="#DejaVuSans-31" x="83.789062"/>
       <use xlink:href="#DejaVuSans-30" x="147.412109"/>
      </g>
     </g>
    </g>
    <g id="ytick_2">
     <g id="line2d_9">
      <path d="M 315.9936 241.056 
C 315.9936 219.890933 307.576842 199.571082 292.61088 184.60512 
C 277.644918 169.639158 257.325067 161.2224 236.16 161.2224 
C 214.994933 161.2224 194.675082 169.639158 179.70912 184.60512 
C 164.743158 199.571082 156.3264 219.890933 156.3264 241.056 
" clip-path="url(#pa04883c41a)" style="fill: none; stroke-dasharray: 2.96,1.28; stroke-dashoffset: 0; stroke: #b0b0b0; stroke-width: 0.8"/>
     </g>
     <g id="text_9">
      <!-- −20 -->
      <g transform="translate(305.441256 255.654437)scale(0.1 -0.1)">
       <use xlink:href="#DejaVuSans-2212"/>
       <use xlink:href="#DejaVuSans-32" x="83.789062"/>
       <use xlink:href="#DejaVuSans-30" x="147.412109"/>
      </g>
     </g>
    </g>
    <g id="ytick_3">
     <g id="line2d_10">
      <path d="M 289.3824 241.056 
C 289.3824 226.945955 283.771228 213.399388 273.79392 203.42208 
C 263.816612 193.444772 250.270045 187.8336 236.16 187.8336 
C 222.049955 187.8336 208.503388 193.444772 198.52608 203.42208 
C 188.548772 213.399388 182.9376 226.945955 182.9376 241.056 
" clip-path="url(#pa04883c41a)" style="fill: none; stroke-dasharray: 2.96,1.28; stroke-dashoffset: 0; stroke: #b0b0b0; stroke-width: 0.8"/>
     </g>
     <g id="text_10">
      <!-- −30 -->
      <g transform="translate(278.830056 255.654437)scale(0.1 -0.1)">
       <use xlink:href="#DejaVuSans-2212"/>
       <use xlink:href="#DejaVuSans-33" x="83.789062"/>
       <use xlink:href="#DejaVuSans-30" x="147.412109"/>
      </g>
     </g>
    </g>
    <g id="ytick_4">
     <g id="line2d_11">
      <path d="M 262.7712 241.056 
C 262.7712 234.000978 259.965614 227.227694 254.97696 222.23904 
C 249.988306 217.250386 243.215022 214.4448 236.16 214.4448 
C 229.104978 214.4448 222.331694 217.250386 217.34304 222.23904 
C 212.354386 227.227694 209.5488 234.000978 209.5488 241.056 
" clip-path="url(#pa04883c41a)" style="fill: none; stroke-dasharray: 2.96,1.28; stroke-dashoffset: 0; stroke: #b0b0b0; stroke-width: 0.8"/>
     </g>
     <g id="text_11">
      <!-- −40 -->
      <g transform="translate(252.218856 255.654437)scale(0.1 -0.1)">
       <defs>
        <path id="DejaVuSans-34" d="M 2419 4116 
L 825 1625 
L 2419 1625 
L 2419 4116 
z
M 2253 4666 
L 3047 4666 
L 3047 1625 
L 3713 1625 
L 3713 1100 
L 3047 1100 
L 3047 0 
L 2419 0 
L 2419 1100 
L 313 1100 
L 313 1709 
L 2253 4666 
z
" transform="scale(0.015625)"/>
       </defs>
       <use xlink:href="#DejaVuSans-2212"/>
       <use xlink:href="#DejaVuSans-34" x="83.789062"/>
       <use xlink:href="#DejaVuSans-30" x="147.412109"/>
      </g>
     </g>
    </g>
    <g id="ytick_5">
     <g id="line2d_12">
      <path d="M 236.16 241.056 
C 236.16 241.056 236.16 241.056 236.16 241.056 
C 236.16 241.056 236.16 241.056 236.16 241.056 
C 236.16 241.056 236.16 241.056 236.16 241.056 
C 236.16 241.056 236.16 241.056 236.16 241.056 
" clip-path="url(#pa04883c41a)" style="fill: none; stroke-dasharray: 2.96,1.28; stroke-dashoffset: 0; stroke: #b0b0b0; stroke-width: 0.8"/>
     </g>
     <g id="text_12">
      <!-- −50 -->
      <g transform="translate(225.607656 255.654437)scale(0.1 -0.1)">
       <use xlink:href="#DejaVuSans-2212"/>
       <use xlink:href="#DejaVuSans-35" x="83.789062"/>
       <use xlink:href="#DejaVuSans-30" x="147.412109"/>
      </g>
     </g>
    </g>
   </g>
   <g id="line2d_13">
    <path d="M 334.135969 241.056 
L 334.025535 234.548527 
L 333.711155 228.71857 
L 333.247557 223.917409 
L 332.595116 219.475428 
L 331.829605 215.74959 
L 330.924943 212.411048 
L 329.9087 209.468385 
L 328.81858 206.923018 
L 327.526552 204.467124 
L 326.207484 202.413581 
L 324.688141 200.473499 
L 323.205134 198.922936 
L 321.53223 197.500292 
L 319.973302 196.433219 
L 318.24305 195.496191 
L 316.315443 194.715967 
L 314.156116 194.127294 
L 312.230815 193.825053 
L 310.094705 193.706826 
L 307.702846 193.815596 
L 304.991219 194.211513 
L 302.691822 194.748485 
L 300.100331 195.549802 
L 297.128816 196.694425 
L 293.639335 198.304676 
L 289.397294 200.586061 
L 285.945865 202.657794 
L 281.726275 205.401558 
L 276.267834 209.218209 
L 268.465093 215.041949 
L 262.782368 219.464235 
L 254.412814 226.146223 
L 238.098899 239.460885 
M 250.719005 228.906823 
L 267.027972 214.929219 
L 275.322935 207.435723 
L 280.870991 202.126803 
L 285.0045 197.923959 
L 289.666737 192.79926 
L 293.181463 188.534975 
L 295.946794 184.818029 
L 298.179164 181.480442 
L 300.009577 178.421967 
L 301.968495 174.670053 
L 303.495567 171.203247 
L 304.678094 167.958662 
L 305.576316 164.894207 
L 306.233655 161.98061 
L 306.765224 158.519402 
L 307.017992 155.232559 
L 307.027402 152.100023 
L 306.820791 149.107746 
L 306.419846 146.245849 
L 305.8422 143.507437 
L 304.93627 140.377837 
L 303.818135 137.414274 
L 302.505713 134.614149 
L 301.014505 131.976713 
L 299.358224 129.502634 
L 297.549258 127.193688 
L 295.599003 125.052544 
L 293.518123 123.082613 
L 291.316746 121.28795 
L 289.004612 119.673185 
L 286.591202 118.243499 
L 284.085836 117.004617 
L 281.49776 115.962842 
L 278.836219 115.125105 
L 276.110526 114.499064 
L 273.330128 114.093234 
L 270.504676 113.917174 
L 267.644093 113.981746 
L 264.758662 114.299459 
L 262.342888 114.768082 
L 259.923826 115.432549 
L 257.508343 116.304509 
L 255.103734 117.397835 
L 252.717837 118.729322 
L 250.35918 120.319676 
L 248.037194 122.194951 
L 246.213106 123.922527 
L 244.425445 125.875661 
L 242.681284 128.082317 
L 240.988904 130.578955 
L 239.358283 133.414416 
L 237.801866 136.656306 
L 236.692806 139.411456 
L 235.643422 142.507305 
L 234.665493 146.026269 
L 233.775333 150.090462 
L 232.996997 154.892139 
L 232.369135 160.760347 
L 232.066496 165.555758 
L 231.897656 171.444917 
L 231.932899 179.119759 
L 232.33738 190.273484 
L 232.817142 198.628355 
L 233.734327 211.584895 
M 235.0634 228.782559 
L 233.046739 207.533569 
L 231.025835 189.67583 
L 229.634579 180.064463 
L 228.461072 173.559105 
L 227.394896 168.706348 
L 226.391491 164.886507 
L 224.959179 160.426868 
L 223.583932 157.002451 
L 222.248538 154.301988 
L 220.944406 152.141931 
L 219.667203 150.405043 
L 218.414915 149.011981 
L 217.186893 147.906657 
L 215.587723 146.811147 
L 214.034116 146.085099 
L 212.529248 145.678941 
L 211.077146 145.556893 
L 209.682543 145.692818 
L 208.350829 146.067645 
L 207.08808 146.667755 
L 205.901144 147.483969 
L 204.797782 148.510966 
L 203.786887 149.747021 
L 202.878782 151.194032 
L 202.085649 152.857845 
L 201.422149 154.748932 
L 200.90631 156.883557 
L 200.560888 159.285688 
L 200.415465 161.990104 
L 200.509893 165.047612 
L 200.900225 168.534187 
L 201.435692 171.499452 
L 202.235088 174.84683 
L 203.375142 178.691559 
L 204.977828 183.220569 
L 207.256045 188.76594 
L 209.344141 193.334328 
L 212.158419 199.033069 
L 216.221294 206.706207 
L 223.013308 218.767535 
L 229.089996 229.164907 
M 228.706539 228.813974 
L 218.533955 212.556248 
L 212.918602 204.057278 
L 208.937108 198.384059 
L 204.443864 192.471819 
L 200.927795 188.30234 
L 197.994846 185.187927 
L 195.452547 182.78741 
L 193.192906 180.906088 
L 190.508522 179.00075 
L 188.112726 177.621136 
L 185.944988 176.649799 
L 183.9658 176.007207 
L 182.148229 175.636759 
L 180.473306 175.496556 
L 178.927355 175.554567 
L 177.161266 175.867995 
L 175.567152 176.413573 
L 174.135332 177.161062 
L 172.859229 178.086173 
L 171.734564 179.168979 
L 170.758833 180.392835 
L 169.930964 181.743626 
L 169.132986 183.515196 
L 168.550547 185.434306 
L 168.188191 187.485788 
L 168.052759 189.656768 
L 168.153678 191.936405 
L 168.503476 194.315784 
L 169.118599 196.787942 
L 170.020654 199.348066 
L 171.011956 201.546987 
L 172.243965 203.805794 
L 173.744993 206.126983 
L 175.552717 208.515927 
L 177.718588 210.982172 
L 180.3152 213.54166 
L 182.772715 215.673584 
L 185.653285 217.903037 
L 189.075951 220.263467 
L 193.228639 222.81009 
L 197.007677 224.898655 
L 201.605924 227.218389 
L 207.441307 229.903152 
L 215.387714 233.238728 
L 222.880966 236.164353 
L 234.24388 240.365322 
M 234.642868 240.544819 
L 223.731757 236.964935 
L 213.749384 233.938505 
L 207.042994 232.143529 
L 202.012907 230.994149 
L 196.836925 230.063961 
L 192.773236 229.579385 
L 189.456338 229.397985 
L 186.679348 229.437039 
L 183.776182 229.71723 
L 181.358578 230.192643 
L 179.323622 230.817902 
L 177.601619 231.560878 
L 176.143428 232.397727 
L 174.692269 233.500232 
L 173.525452 234.686689 
L 172.611315 235.937282 
L 171.927393 237.235625 
L 171.458099 238.567636 
L 171.193302 239.92074 
L 171.124739 241.056 
L 171.124739 241.056 
" clip-path="url(#pa04883c41a)" style="fill: none; stroke: #1f77b4; stroke-width: 1.5; stroke-linecap: square"/>
   </g>
   <g id="patch_3">
    <path d="M 369.216 241.056 
C 369.216 205.780889 355.18807 171.914471 330.2448 146.9712 
C 305.301529 122.02793 271.435111 108 236.16 108 
C 200.884889 108 167.018471 122.02793 142.0752 146.9712 
C 117.13193 171.914471 103.104 205.780889 103.104 241.056 
" style="fill: none; stroke: #000000; stroke-width: 0.8; stroke-linejoin: miter; stroke-linecap: square"/>
   </g>
   <g id="patch_4">
    <path d="M 236.16 241.056 
L 369.216 241.056 
" style="fill: none; stroke: #000000; stroke-width: 0.8; stroke-linejoin: miter; stroke-linecap: square"/>
   </g>
   <g id="patch_5">
    <path d="M 236.16 241.056 
L 103.104 241.056 
" style="fill: none; stroke: #000000; stroke-width: 0.8; stroke-linejoin: miter; stroke-linecap: square"/>
   </g>
  </g>
 </g>
 <defs>
  <clipPath id="pa04883c41a">
   <path d="M 369.216 241.056 
C 369.216 205.780889 355.18807 171.914471 330.2448 146.9712 
C 305.301529 122.02793 271.435111 108 236.16 108 
C 200.884889 108 167.018471 122.02793 142.0752 146.9712 
C 117.13193 171.914471 103.104 205.780889 103.104 241.056 
L 236.16 241.056 
C 236.16 241.056 236.16 241.056 236.16 241.056 
C 236.16 241.056 236.16 241.056 236.16 241.056 
C 236.16 241.056 236.16 241.056 236.16 241.056 
C 236.16 241.056 236.16 241.056 236.16 241.056 
L 369.216 241.056 
z
"/>
  </clipPath>
 </defs>
</svg>
